<svg width="24" height="24" viewBox="0 0 24 24" fill="none" xmlns="http://www.w3.org/2000/svg">
<path d="M18.0885 5.36994C16.8014 4.18761 15.1979 3.40561 13.4738 3.11941C11.7497 2.83322 9.9795 3.05521 8.37944 3.75829C6.77938 4.46137 5.41865 5.61511 4.46337 7.07866C3.50809 8.5422 2.99961 10.2522 3 11.9999H4.5C4.49989 10.4893 4.95597 9.01382 5.80851 7.76674C6.66106 6.51965 7.87032 5.55908 9.27796 5.01081C10.6856 4.46254 12.226 4.35212 13.6975 4.69402C15.1689 5.03592 16.5028 5.8142 17.5245 6.92694H15.345C15.1461 6.92694 14.9553 7.00596 14.8147 7.14661C14.674 7.28726 14.595 7.47803 14.595 7.67694C14.595 7.87586 14.674 8.06662 14.8147 8.20727C14.9553 8.34793 15.1461 8.42694 15.345 8.42694H18.8385C19.0374 8.42694 19.2282 8.34793 19.3688 8.20727C19.5095 8.06662 19.5885 7.87586 19.5885 7.67694V4.18644C19.5885 3.98753 19.5095 3.79676 19.3688 3.65611C19.2282 3.51546 19.0374 3.43644 18.8385 3.43644C18.6396 3.43644 18.4488 3.51546 18.3082 3.65611C18.1675 3.79676 18.0885 3.98753 18.0885 4.18644V5.37144V5.36994ZM6.4755 17.0714H8.655C8.85391 17.0714 9.04468 16.9924 9.18533 16.8518C9.32598 16.7111 9.405 16.5204 9.405 16.3214C9.405 16.1225 9.32598 15.9318 9.18533 15.7911C9.04468 15.6505 8.85391 15.5714 8.655 15.5714H5.16C4.96109 15.5714 4.77032 15.6505 4.62967 15.7911C4.48902 15.9318 4.41 16.1225 4.41 16.3214V19.8149C4.41 20.0139 4.48902 20.2046 4.62967 20.3453C4.77032 20.4859 4.96109 20.5649 5.16 20.5649C5.35891 20.5649 5.54968 20.4859 5.69033 20.3453C5.83098 20.2046 5.91 20.0139 5.91 19.8149V18.6299C7.19693 19.8137 8.80084 20.597 10.5257 20.884C12.2506 21.171 14.0217 20.9494 15.6227 20.2461C17.2236 19.5429 18.585 18.3885 19.5405 16.924C20.496 15.4596 21.0042 13.7485 21.003 11.9999H19.503C19.5031 13.5108 19.047 14.9865 18.1942 16.2337C17.3415 17.4809 16.132 18.4414 14.7241 18.9896C13.3162 19.5377 11.7755 19.6479 10.304 19.3056C8.83239 18.9634 7.4985 18.1846 6.477 17.0714H6.4755Z" fill="black"/>
</svg>
