<svg width="127" height="47" viewBox="0 0 127 47" fill="none" xmlns="http://www.w3.org/2000/svg">
<mask id="mask0_1202_1021" style="mask-type:luminance" maskUnits="userSpaceOnUse" x="0" y="0" width="112" height="47">
<path d="M112 0H0V47H112V0Z" fill="white"/>
</mask>
<g mask="url(#mask0_1202_1021)">
<path d="M88.4814 32H87.8102C87.4747 32 87.1391 31.9601 86.8408 31.9202C86.5053 31.8803 86.1697 31.8004 85.8342 31.7206C85.1258 31.5609 84.4174 31.3214 83.7835 30.9622C83.1497 30.6429 82.5904 30.2038 82.1057 29.6849C81.5465 29.0462 81.1736 28.3277 81.0618 27.4496C80.9872 27.0504 80.9872 26.6513 81.0245 26.2122C81.0618 25.9328 81.0991 25.6933 81.1363 25.4139C81.2109 25.0945 81.3228 24.8151 81.5092 24.5357C81.882 23.937 82.2922 23.458 82.8514 23.0588C83.2616 22.7794 83.709 22.5 84.1937 22.3403C84.2682 22.3004 84.3428 22.2605 84.4547 22.2206C84.4919 22.2206 84.4919 22.1807 84.4919 22.1408C84.4919 22.1008 84.4919 22.0609 84.4547 22.0609C84.4174 22.021 84.3801 22.021 84.3428 21.9811C84.0818 21.8613 83.8208 21.7416 83.5598 21.5819C83.3734 21.4622 83.187 21.3824 83.0378 21.2626C82.5159 20.9034 82.143 20.4244 81.8447 19.8655C81.6583 19.5462 81.5838 19.187 81.5092 18.7878C81.4719 18.5084 81.4719 18.229 81.4719 17.9496C81.5092 17.3109 81.6583 16.6723 81.9566 16.1134C82.1057 15.7941 82.3294 15.5147 82.5531 15.2353C82.8514 14.916 83.187 14.5966 83.5598 14.3571C84.0445 14.0378 84.5665 13.7584 85.0885 13.5588C85.6477 13.3592 86.207 13.1996 86.8036 13.1197C87.0273 13.0798 87.2883 13.0399 87.512 13.0399C87.8848 13 88.2949 13 88.6678 13C89.1152 13 89.5626 13.0399 90.01 13.1197C90.532 13.1996 91.0913 13.3193 91.576 13.479C92.1725 13.6786 92.7691 13.9181 93.291 14.2773C93.7012 14.5567 94.1113 14.8761 94.4469 15.2752C94.857 15.7542 95.1925 16.313 95.3417 16.9517C95.4162 17.271 95.4908 17.5504 95.4908 17.8697V18.3487C95.4535 19.0273 95.2671 19.666 94.8943 20.2248C94.6333 20.624 94.2977 20.9832 93.8876 21.2626C93.5147 21.542 93.1419 21.7815 92.7318 21.9412L92.5081 22.0609C92.4708 22.0609 92.4708 22.1008 92.4708 22.1408C92.4708 22.1807 92.4708 22.2206 92.5081 22.2206C92.5454 22.2206 92.5826 22.2605 92.6199 22.2605C92.6945 22.3004 92.7691 22.3004 92.8063 22.3403C93.3283 22.5399 93.813 22.8193 94.2977 23.1786C94.857 23.5777 95.2671 24.0966 95.6027 24.6954C95.7891 25.0546 95.9009 25.4139 95.9382 25.813C96.0128 26.2122 96.0128 26.6113 95.9755 27.0504C95.9009 28.0483 95.5654 28.8866 94.9316 29.605C94.4841 30.084 93.9994 30.4832 93.4402 30.8025C92.9555 31.0819 92.3962 31.3214 91.8742 31.4811C91.3895 31.6408 90.9048 31.7605 90.3829 31.8403C89.7117 31.9601 89.0779 32 88.4814 32ZM88.4814 23.458C88.1458 23.458 87.8102 23.4979 87.512 23.5777C86.729 23.7374 86.1697 24.2164 85.7596 24.9349C85.3868 25.6134 85.3495 26.292 85.6477 26.9706C85.9833 27.7689 86.5426 28.2878 87.2883 28.5273C87.6611 28.6471 88.0339 28.687 88.4068 28.687C88.5932 28.687 88.7796 28.6471 88.9661 28.6471C89.1898 28.6471 89.4135 28.5672 89.5999 28.5273C90.4201 28.2878 90.9421 27.6891 91.2777 26.8908C91.5014 26.3319 91.5014 25.7731 91.2404 25.2143C90.9421 24.4958 90.4201 23.9769 89.7117 23.6975C89.3389 23.4979 88.8915 23.458 88.4814 23.458ZM85.6105 18.6681V18.7878C85.6477 19.4265 85.8715 19.9454 86.3189 20.3046C86.7663 20.7038 87.2883 20.9433 87.8475 21.0231C88.1458 21.063 88.4814 21.063 88.7796 21.0231C89.0406 20.9832 89.3016 20.9433 89.5626 20.8235C89.8982 20.7038 90.1964 20.5441 90.4574 20.3046C90.793 20.0252 91.0167 19.666 91.1285 19.187C91.2031 18.9076 91.2031 18.5882 91.1658 18.2689C91.0913 17.7899 90.9048 17.3908 90.532 17.0315C90.4574 16.9517 90.3829 16.9118 90.3083 16.8718C90.0846 16.7122 89.8236 16.5525 89.5626 16.4727C89.3016 16.3929 89.0406 16.313 88.7796 16.2731C88.2577 16.1933 87.7357 16.2731 87.251 16.4328C86.8781 16.5525 86.5799 16.7521 86.2816 16.9916C85.9833 17.271 85.7596 17.5903 85.6477 17.9895C85.6477 18.229 85.6105 18.4286 85.6105 18.6681Z" fill="url(#paint0_radial_1202_1021)"/>
<path d="M104.481 32H103.81C103.475 32 103.139 31.9601 102.841 31.9202C102.505 31.8803 102.17 31.8004 101.834 31.7206C101.126 31.5609 100.417 31.3214 99.7835 30.9622C99.1497 30.6429 98.5904 30.2038 98.1057 29.6849C97.5465 29.0462 97.1736 28.3277 97.0618 27.4496C96.9872 27.0504 96.9872 26.6513 97.0245 26.2122C97.0618 25.9328 97.0991 25.6933 97.1363 25.4139C97.2109 25.0945 97.3228 24.8151 97.5092 24.5357C97.882 23.937 98.2922 23.458 98.8514 23.0588C99.2616 22.7794 99.709 22.5 100.194 22.3403C100.268 22.3004 100.343 22.2605 100.455 22.2206C100.492 22.2206 100.492 22.1807 100.492 22.1408C100.492 22.1008 100.492 22.0609 100.455 22.0609C100.417 22.021 100.38 22.021 100.343 21.9811C100.082 21.8613 99.8208 21.7416 99.5598 21.5819C99.3734 21.4622 99.187 21.3824 99.0378 21.2626C98.5159 20.9034 98.143 20.4244 97.8447 19.8655C97.6583 19.5462 97.5838 19.187 97.5092 18.7878C97.4719 18.5084 97.4719 18.229 97.4719 17.9496C97.5092 17.3109 97.6583 16.6723 97.9566 16.1134C98.1057 15.7941 98.3294 15.5147 98.5531 15.2353C98.8514 14.916 99.187 14.5966 99.5598 14.3571C100.045 14.0378 100.567 13.7584 101.088 13.5588C101.648 13.3592 102.207 13.1996 102.804 13.1197C103.027 13.0798 103.288 13.0399 103.512 13.0399C103.885 13 104.295 13 104.668 13C105.115 13 105.563 13.0399 106.01 13.1197C106.532 13.1996 107.091 13.3193 107.576 13.479C108.173 13.6786 108.769 13.9181 109.291 14.2773C109.701 14.5567 110.111 14.8761 110.447 15.2752C110.857 15.7542 111.193 16.313 111.342 16.9517C111.416 17.271 111.491 17.5504 111.491 17.8697V18.3487C111.454 19.0273 111.267 19.666 110.894 20.2248C110.633 20.624 110.298 20.9832 109.888 21.2626C109.515 21.542 109.142 21.7815 108.732 21.9412L108.508 22.0609C108.471 22.0609 108.471 22.1008 108.471 22.1408C108.471 22.1807 108.471 22.2206 108.508 22.2206C108.545 22.2206 108.583 22.2605 108.62 22.2605C108.694 22.3004 108.769 22.3004 108.806 22.3403C109.328 22.5399 109.813 22.8193 110.298 23.1786C110.857 23.5777 111.267 24.0966 111.603 24.6954C111.789 25.0546 111.901 25.4139 111.938 25.813C112.013 26.2122 112.013 26.6113 111.976 27.0504C111.901 28.0483 111.565 28.8866 110.932 29.605C110.484 30.084 109.999 30.4832 109.44 30.8025C108.955 31.0819 108.396 31.3214 107.874 31.4811C107.39 31.6408 106.905 31.7605 106.383 31.8403C105.712 31.9601 105.078 32 104.481 32ZM104.481 23.458C104.146 23.458 103.81 23.4979 103.512 23.5777C102.729 23.7374 102.17 24.2164 101.76 24.9349C101.387 25.6134 101.349 26.292 101.648 26.9706C101.983 27.7689 102.543 28.2878 103.288 28.5273C103.661 28.6471 104.034 28.687 104.407 28.687C104.593 28.687 104.78 28.6471 104.966 28.6471C105.19 28.6471 105.413 28.5672 105.6 28.5273C106.42 28.2878 106.942 27.6891 107.278 26.8908C107.501 26.3319 107.501 25.7731 107.24 25.2143C106.942 24.4958 106.42 23.9769 105.712 23.6975C105.339 23.4979 104.891 23.458 104.481 23.458ZM101.61 18.6681V18.7878C101.648 19.4265 101.871 19.9454 102.319 20.3046C102.766 20.7038 103.288 20.9433 103.848 21.0231C104.146 21.063 104.481 21.063 104.78 21.0231C105.041 20.9832 105.302 20.9433 105.563 20.8235C105.898 20.7038 106.196 20.5441 106.457 20.3046C106.793 20.0252 107.017 19.666 107.129 19.187C107.203 18.9076 107.203 18.5882 107.166 18.2689C107.091 17.7899 106.905 17.3908 106.532 17.0315C106.457 16.9517 106.383 16.9118 106.308 16.8718C106.085 16.7122 105.824 16.5525 105.563 16.4727C105.302 16.3929 105.041 16.313 104.78 16.2731C104.258 16.1933 103.736 16.2731 103.251 16.4328C102.878 16.5525 102.58 16.7521 102.282 16.9916C101.983 17.271 101.76 17.5903 101.648 17.9895C101.648 18.229 101.61 18.4286 101.61 18.6681Z" fill="url(#paint1_radial_1202_1021)"/>
<path d="M65 22.6063V13.085C65 13.0425 65.042 13 65.084 13H79.916C79.958 13 80 13.0425 80 13.085V16.868C80 16.9105 79.958 16.953 79.916 16.953H70.4202C70.3361 16.953 70.2941 16.9955 70.2941 17.123V20.821C70.2941 20.8635 70.3361 20.906 70.3782 20.906H78.9076C78.9496 20.906 78.9916 20.9485 78.9916 20.9911V23.9239C78.9916 23.9664 78.9496 24.0089 78.9076 24.0089H70.4202C70.3782 24.0089 70.3361 24.0515 70.3361 24.094V31.8725C70.3361 31.9575 70.2941 32 70.2101 32H65.1261C65.084 32 65.042 31.9575 65.042 31.915V31.5749C65 28.6846 65 25.6242 65 22.6063Z" fill="url(#paint2_radial_1202_1021)"/>
<path d="M55.4583 13.0012H63.588C64.0397 13.0012 63.9986 12.9592 63.9986 13.3786V16.5661C63.9986 16.9435 64.0397 16.9016 63.6702 16.9016H58.4967C58.045 16.9016 58.0861 16.8596 58.045 17.321V31.7064C58.045 31.9021 57.9492 32 57.7576 32H52.9536C52.9126 32 52.8715 31.9581 52.8715 31.9161V17.0274C52.8715 16.9855 52.8305 16.9435 52.7894 16.9435H47.0411C47 16.9435 47 16.9016 47 16.9016V13.4206C47 13.1969 47.1095 13.085 47.3285 13.085C49.9973 13.0012 52.7483 13.0012 55.4583 13.0012Z" fill="url(#paint3_radial_1202_1021)"/>
<mask id="mask1_1202_1021" style="mask-type:luminance" maskUnits="userSpaceOnUse" x="0" y="0" width="43" height="47">
<path d="M43 0H0V47H43V0Z" fill="white"/>
</mask>
<g mask="url(#mask1_1202_1021)">
<path d="M43.0002 0.360972V0.41728C43.0002 0.924049 42.8862 1.43082 42.7721 1.93759C42.6581 2.44436 42.544 3.00743 42.3159 3.5142C42.0878 4.02097 41.8026 4.47143 41.3464 4.86559C41.0612 5.14713 40.7191 5.31605 40.3769 5.48497C40.0917 5.59759 39.8066 5.76651 39.5214 5.87912C39.0652 6.10435 38.723 6.38589 38.3238 6.66743C37.8676 7.06159 37.4114 7.56835 37.0122 8.07512L36.9551 8.13143V7.28682C36.9551 6.78005 37.0122 6.27328 37.1262 5.76651C37.2973 5.09082 37.5825 4.52774 38.0387 4.02097C38.4379 3.57051 38.9512 3.17636 39.4644 2.83851C39.8066 2.61328 40.1488 2.44436 40.548 2.21913C41.0612 1.93759 41.4604 1.59974 41.9167 1.2619C42.2588 0.980357 42.544 0.642511 42.8291 0.248357C42.8672 0.210819 42.9052 0.17328 42.9432 0.135742C43.0002 0.248357 43.0002 0.304665 43.0002 0.360972Z" fill="url(#paint4_linear_1202_1021)"/>
<path d="M36.8818 11.8759C36.8818 11.9885 36.9388 12.1011 36.9388 12.2138C36.9958 12.5516 37.0528 12.9458 37.1099 13.2836C37.1669 13.7904 37.1669 14.2971 37.1669 14.7476C37.1669 15.6485 36.9958 16.4931 36.7107 17.3378C36.5966 17.7319 36.4255 18.1261 36.1974 18.5202C35.9123 19.0833 35.5701 19.5901 35.1709 20.0405C34.7717 20.491 34.2584 20.8851 33.7452 21.2793C33.517 21.4482 33.2319 21.6171 32.9467 21.7298C32.7757 21.8424 32.5475 21.8987 32.3765 22.0113C31.9202 22.2365 31.464 22.3491 31.0078 22.4618C30.5515 22.5744 30.0953 22.687 29.6391 22.7433C29.582 22.7433 29.468 22.7433 29.4109 22.7996C29.1258 22.7996 28.7836 22.8559 28.4985 22.8559H26.1603C23.765 31.0768 21.4896 38.791 19.2084 46.9556L19.1628 47.0006C19.1628 36.4711 19.1457 26.2907 19.1457 15.7048H7.22656V15.6485C11.0475 10.9187 14.9255 6.18882 18.8035 1.45898C18.0051 4.6122 17.1497 7.76543 16.2372 10.8624C16.2942 10.8624 18.6894 10.9187 18.8605 10.8624C18.9176 10.7498 18.9746 10.5808 18.9746 10.4682C19.2597 9.67989 19.6589 8.94789 20.2292 8.2722L21.0847 7.42759H21.1417C21.1417 7.46513 21.1227 7.50266 21.0847 7.5402C20.7995 8.15959 20.5714 8.83528 20.3433 9.51097C20.2292 9.96143 20.1152 10.4119 20.0581 10.8624C20.0011 11.1439 20.0011 11.4255 20.0011 11.707C20.0011 12.1011 20.0581 12.4953 20.1722 12.8894C20.2292 13.1147 20.2292 13.2836 20.2863 13.5088C20.3433 13.8467 20.5144 14.1282 20.6855 14.4098C20.9136 14.7476 21.1417 15.0854 21.4269 15.4233C21.655 15.6485 21.8831 15.8174 22.1682 15.9864C22.2253 16.0427 22.3393 16.0427 22.3963 16.099C22.3963 16.0614 22.3773 16.0239 22.3393 15.9864C22.2253 15.7048 22.0542 15.4796 21.9401 15.1981C21.655 14.5224 21.3698 13.8467 21.2558 13.171C21.1987 12.8331 21.1417 12.4953 21.0847 12.1011V11.0876C21.1417 10.4119 21.2558 9.67989 21.4839 9.0042C21.769 8.2722 22.1112 7.5402 22.6815 6.97713C23.1377 6.47036 23.708 6.0199 24.2783 5.73836C24.6775 5.51313 25.0767 5.3442 25.5329 5.23159C26.1603 5.00636 26.7306 4.89374 27.3579 4.78113C27.643 4.72482 27.8711 4.66851 28.0993 4.6122C28.3844 4.49959 28.6696 4.33067 28.8406 4.10544C29.0117 3.88021 29.0688 3.65497 29.1258 3.37344C29.1258 3.0919 29.0688 2.81036 29.0117 2.52882V2.41621C29.4109 2.75405 29.7531 3.0919 29.9812 3.54236C30.0953 3.8239 30.2093 4.10544 30.2093 4.38697C30.2093 4.72482 30.2093 5.00636 30.0953 5.3442C29.9242 5.68205 29.6961 5.96359 29.4109 6.18882C29.0688 6.47036 28.6696 6.58297 28.2133 6.69559C27.8141 6.7519 27.4149 6.86451 27.0157 7.03343C26.6165 7.20236 26.2743 7.42759 25.9322 7.70913C25.59 8.04697 25.3048 8.44113 25.1908 8.94789C25.1337 9.28574 25.1337 9.62359 25.1908 9.96143C25.1908 9.96143 25.1908 10.0178 25.2478 10.0741C25.2478 10.0178 25.3048 9.96143 25.3048 9.96143C25.4759 9.62359 25.647 9.28574 25.9322 9.06051C26.2743 8.72266 26.6735 8.49743 27.1298 8.38482C27.529 8.2722 27.9852 8.21589 28.4414 8.2722H28.3844C27.9282 8.38482 27.4719 8.61005 27.0727 8.89159C26.6735 9.22943 26.3314 9.56728 26.1032 10.0178C25.9892 10.243 25.9322 10.4682 25.8751 10.6935C25.8181 11.0876 25.8181 11.4818 25.9892 11.8759C26.1032 12.1575 26.2173 12.439 26.4454 12.6079C26.6165 12.7768 26.8446 12.9458 27.0727 13.0021C27.3579 13.1147 27.643 13.171 27.9852 13.171H28.0993C28.4985 13.171 28.8977 13.1147 29.2398 13.0021C29.525 12.9458 29.7531 12.8331 29.9812 12.6079C30.2093 12.439 30.3804 12.1575 30.4945 11.9322C30.8367 11.2002 31.1218 10.4682 31.3499 9.67989C31.521 9.17313 31.6351 8.61005 31.7491 8.10328C31.9202 7.37128 32.0913 6.63928 32.3194 5.90728C32.5475 5.23159 32.8327 4.61221 33.2319 4.04913C33.6311 3.42974 34.2014 2.92298 34.8287 2.52882C35.342 2.19098 35.9123 1.96575 36.4826 1.85313C36.7107 1.79682 36.9388 1.79682 37.1669 1.79682H37.9653C38.1934 1.79682 38.4215 1.85313 38.7067 1.85313C38.7637 1.85313 38.8207 1.85313 38.8778 1.90944C38.7637 1.96575 38.5926 1.96574 38.4786 2.02205C37.8513 2.24728 37.338 2.52882 36.8247 2.97928C36.1974 3.54236 35.7412 4.27436 35.456 5.11897C35.342 5.45682 35.2849 5.79467 35.1709 6.13251C35.0568 6.69559 34.9428 7.31497 34.8287 7.87805C34.7717 8.32851 34.7146 8.77897 34.6576 9.22943C34.5436 9.84882 34.4865 10.4682 34.3725 11.0313C34.2584 11.6507 34.1444 12.2138 33.9162 12.7768C33.6881 13.3962 33.3459 13.9593 32.8897 14.4661C32.5475 14.8602 32.1483 15.1981 31.6921 15.4233C31.0648 15.8174 30.3804 16.0427 29.6391 16.1553C29.2969 16.2116 29.0117 16.2679 28.6696 16.2679C28.2704 16.3242 27.8141 16.2679 27.4149 16.2116C26.9587 16.1553 26.5595 16.0427 26.1032 15.8738C25.59 15.6485 25.1908 15.367 24.7916 15.0291C24.5064 14.7476 24.2213 14.4098 23.9932 14.0156C23.9932 13.9593 23.9361 13.9593 23.8791 13.903V13.9593C23.9932 14.635 24.1643 15.2544 24.5635 15.8174C24.7916 16.1553 25.0197 16.4931 25.3048 16.7747C25.647 17.1125 26.0462 17.4504 26.5024 17.6756C26.9017 17.9008 27.3579 18.0698 27.7571 18.1824C28.2133 18.295 28.6125 18.4076 29.0688 18.4076C29.2398 18.4076 29.468 18.4076 29.6391 18.4639H29.9812C30.9507 18.4639 31.8632 18.295 32.7186 17.9008C33.3459 17.6193 33.8592 17.2814 34.3725 16.831C34.9428 16.3242 35.399 15.7048 35.7982 15.0291C36.1974 14.2971 36.4826 13.5088 36.5966 12.7205C36.6536 12.5516 36.6536 12.3264 36.7107 12.1575C36.7867 12.0073 36.8437 11.9135 36.8818 11.8759Z" fill="url(#paint5_linear_1202_1021)"/>
<path d="M18.9335 1.28987C18.8708 1.3856 14.8901 6.31252 13.0082 8.62113C11.2973 10.7608 9.52935 12.9005 7.81847 15.0402C7.76144 15.1528 7.64738 15.2654 7.59036 15.3781C7.53333 15.4344 7.59036 15.4907 7.64738 15.4907H19.1673C19.2814 15.4907 19.2814 15.547 19.3384 15.6596V46.7977H19.2814C19.2814 46.7414 19.2243 46.6851 19.2243 46.6288C18.4259 43.8134 17.5705 40.998 16.7721 38.1264C16.0877 35.8177 15.4604 33.5654 14.7761 31.2568C13.9777 28.554 13.2363 25.8513 12.4379 23.1485C12.3808 22.9796 12.3238 22.8107 12.2668 22.6417C12.2668 22.5854 12.2098 22.5291 12.0957 22.5291H5.08107C4.96701 22.5291 4.90998 22.4728 4.85296 22.4165C4.79593 22.3039 4.7389 22.2476 4.68187 22.135C3.19911 20.0516 1.77338 17.9119 0.290617 15.8285C0.233588 15.7159 0.119529 15.6033 0.0625 15.4907C0.0625 15.3781 0.176559 15.3218 0.233588 15.3218C0.518734 15.0965 0.860909 14.8713 1.14606 14.5898C6.84898 10.3104 12.5519 5.97467 18.2549 1.69529C18.3974 1.6052 18.8594 1.28424 18.9278 1.26172V1.28987H18.9335Z" fill="#0041A7"/>
<path d="M18.9622 1.27246L2.41804 18.8348L0 15.3944L18.2208 1.72855L18.9508 1.27246H18.9622Z" fill="url(#paint6_linear_1202_1021)"/>
<path d="M18.8023 1.45898L4.92702 22.4336L2.48047 18.8355L18.8023 1.45898Z" fill="url(#paint7_linear_1202_1021)"/>
<path d="M19.385 15.5361L15.4785 19.4438L19.3394 46.8262L19.385 15.5361Z" fill="url(#paint8_linear_1202_1021)"/>
<path d="M12.2266 22.5572L15.5 19.4434L19.3381 46.8258L12.2266 22.5572Z" fill="url(#paint9_linear_1202_1021)"/>
</g>
</g>
<path d="M39.501 37.4011H43.4773V40.174H43.8183V42.9118C43.8183 43.323 43.7799 43.6088 43.703 43.7692C43.6662 43.8729 43.596 43.9798 43.4924 44.0902C43.2584 44.3275 42.8355 44.4462 42.2238 44.4462H39.501V37.4011ZM40.9502 38.76V40.2843H42.0282V38.76H40.9502ZM40.9502 41.5579V43.0823H42.0733C42.2104 43.0823 42.294 43.0505 42.3241 42.987C42.3541 42.9369 42.3692 42.8667 42.3692 42.7764V41.5579H40.9502ZM44.8262 39.6325H48.8978V41.7736C48.8978 42.1546 48.739 42.4271 48.4214 42.5909C48.3011 42.6477 48.1824 42.6761 48.0654 42.6761H46.2853V42.8165C46.2853 43.0138 46.3689 43.1475 46.5361 43.2177C46.5996 43.2411 46.6698 43.2528 46.7467 43.2528H48.7473C48.7473 43.2762 48.7975 43.674 48.8978 44.4462H46.2051C45.5767 44.4462 45.1638 44.2322 44.9666 43.8043C44.8763 43.6272 44.8312 43.3363 44.8312 42.9319C44.8279 42.7012 44.8262 42.3786 44.8262 41.9641V41.8337C44.8262 41.6599 44.8279 41.5496 44.8312 41.5028C44.8279 41.3891 44.8262 41.2638 44.8262 41.1267V39.6325ZM46.2753 40.7406V41.3173C46.2753 41.3707 46.277 41.4543 46.2803 41.568H47.3233C47.4269 41.568 47.4921 41.5228 47.5188 41.4326C47.5289 41.3858 47.5339 41.3323 47.5339 41.2721V40.7406H46.2753ZM55.0453 37.3359H56.4743C56.481 37.3359 56.4844 37.3393 56.4844 37.346V39.6325H56.7551C57.2733 39.6325 58.0154 39.6341 58.9815 39.6375V43.1224C58.9815 43.7275 58.7675 44.1186 58.3397 44.2957C58.109 44.396 57.7931 44.4462 57.392 44.4462H55.0352V37.346C55.0352 37.3393 55.0386 37.3359 55.0453 37.3359ZM56.4844 40.9111V43.0823H57.2365C57.3936 43.0823 57.4856 43.0372 57.5123 42.9469C57.529 42.8867 57.5374 42.8199 57.5374 42.7463V40.9111H56.4844ZM59.9893 39.6325H64.0609V41.7736C64.0609 42.1546 63.9022 42.4271 63.5846 42.5909C63.4642 42.6477 63.3456 42.6761 63.2286 42.6761H61.4485V42.8165C61.4485 43.0138 61.5321 43.1475 61.6992 43.2177C61.7627 43.2411 61.8329 43.2528 61.9098 43.2528H63.9105C63.9105 43.2762 63.9607 43.674 64.0609 44.4462H61.3683C60.7398 44.4462 60.327 44.2322 60.1297 43.8043C60.0395 43.6272 59.9944 43.3363 59.9944 42.9319C59.991 42.7012 59.9893 42.3786 59.9893 41.9641V41.8337C59.9893 41.6599 59.991 41.5496 59.9944 41.5028C59.991 41.3891 59.9893 41.2638 59.9893 41.1267V39.6325ZM61.4385 40.7406V41.3173C61.4385 41.3707 61.4401 41.4543 61.4435 41.568H62.4865C62.5901 41.568 62.6553 41.5228 62.682 41.4326C62.692 41.3858 62.6971 41.3323 62.6971 41.2721V40.7406H61.4385ZM66.3023 39.6425H69.1304V40.8309H66.8338C66.66 40.8309 66.5564 40.8459 66.5229 40.876C66.4561 40.9195 66.4227 41.0097 66.4227 41.1468V41.578H69.1304V43.0522C69.1304 43.5369 69.0702 43.8712 68.9499 44.0551C68.9265 44.1019 68.868 44.1654 68.7744 44.2456C68.6039 44.3827 68.2846 44.4512 67.8166 44.4512H65.0638V43.2628C65.8761 43.2595 66.5213 43.2578 66.9993 43.2578H67.4807C67.6311 43.2578 67.7197 43.211 67.7464 43.1174C67.7598 43.0706 67.7665 43.0171 67.7665 42.9569V42.6862H65.1089V42.641H65.0738C65.0671 42.641 65.0638 42.6377 65.0638 42.631V41.0716C65.0638 40.5501 65.1273 40.2024 65.2543 40.0286C65.4048 39.7712 65.7541 39.6425 66.3023 39.6425ZM71.0609 38.4441H72.505V39.6425H73.8338V41.0064H72.505V41.6081C72.505 42.1429 72.6688 42.5474 72.9964 42.8215C73.1702 42.9452 73.3641 43.0071 73.578 43.0071V44.4512H73.573C72.403 44.4512 71.6492 44.0551 71.3116 43.2628C71.2447 43.1023 71.1929 42.9385 71.1561 42.7714C71.0893 42.4839 71.0558 42.031 71.0558 41.4125V41.0064C70.4307 41.003 70.0413 41.0014 69.8875 41.0014V39.6425H71.0558V38.4541C71.0558 38.4474 71.0575 38.4441 71.0609 38.4441ZM80.9641 39.6425H83.7921V40.8309H81.4956C81.3217 40.8309 81.2181 40.8459 81.1847 40.876C81.1178 40.9195 81.0844 41.0097 81.0844 41.1468V41.578H83.7921V43.0522C83.7921 43.5369 83.7319 43.8712 83.6116 44.0551C83.5882 44.1019 83.5297 44.1654 83.4361 44.2456C83.2656 44.3827 82.9464 44.4512 82.4784 44.4512H79.7255V43.2628C80.5378 43.2595 81.183 43.2578 81.661 43.2578H82.1424C82.2928 43.2578 82.3814 43.211 82.4082 43.1174C82.4215 43.0706 82.4282 43.0171 82.4282 42.9569V42.6862H79.7707V42.641H79.7356C79.7289 42.641 79.7255 42.6377 79.7255 42.631V41.0716C79.7255 40.5501 79.789 40.2024 79.9161 40.0286C80.0665 39.7712 80.4158 39.6425 80.9641 39.6425ZM84.8 39.6475H87.0664C87.17 39.6475 87.262 39.6492 87.3422 39.6525C87.3756 39.6492 87.4559 39.6475 87.5829 39.6475H88.7512V43.1324C88.7512 43.7308 88.6275 44.1085 88.3802 44.2657C88.2063 44.396 87.9138 44.4612 87.5027 44.4612H86.1739V45.9404C86.1739 46.131 86.1756 46.4034 86.1789 46.7578H84.815V44.8172C84.815 44.6701 84.8117 44.5297 84.805 44.396C84.8083 43.2494 84.81 42.28 84.81 41.4877L84.8 39.6475ZM86.1689 40.7557V40.9462C86.1689 41.5312 86.1705 42.3051 86.1739 43.2678H87.1216C87.2519 43.2678 87.3338 43.2244 87.3673 43.1374C87.384 43.0806 87.3923 42.987 87.3923 42.8566V40.7557H86.1689ZM90.8121 39.6626H92.4568C92.8245 39.6492 93.117 39.7328 93.3343 39.9133C93.478 40.0269 93.58 40.1406 93.6401 40.2542C93.6836 40.3178 93.7254 40.408 93.7655 40.525C93.8023 40.6688 93.8206 40.7858 93.8206 40.876C93.8106 42.5307 93.8006 43.3581 93.7906 43.3581C93.7705 43.4818 93.7387 43.5954 93.6953 43.699C93.6585 43.7926 93.59 43.903 93.4897 44.03C93.229 44.3108 92.9047 44.4428 92.5169 44.4261H91.4539C91.2901 44.4261 91.0728 44.4244 90.8021 44.4211C90.782 44.4211 90.7653 44.4211 90.7519 44.4211C90.6717 44.4111 90.553 44.3676 90.3959 44.2907C90.1285 44.1403 89.9346 43.9046 89.8142 43.5837C89.7741 43.4299 89.7541 43.3079 89.7541 43.2177C89.7641 41.5663 89.7725 40.7406 89.7791 40.7406C89.8092 40.5668 89.8594 40.4147 89.9296 40.2843C89.9697 40.2041 90.0516 40.0988 90.1753 39.9684C90.1853 39.9651 90.2187 39.9383 90.2756 39.8882C90.4527 39.7645 90.6316 39.6893 90.8121 39.6626ZM91.0277 42.9619C91.0277 43.089 91.0845 43.1776 91.1982 43.2277C91.2383 43.2478 91.2935 43.2578 91.3637 43.2578H92.2161C92.3632 43.2578 92.4601 43.1959 92.5069 43.0723C92.5236 43.0154 92.532 42.9436 92.532 42.8566C92.532 42.7029 92.537 42.1279 92.547 41.1317C92.547 41.0549 92.5186 40.983 92.4618 40.9161C92.405 40.8626 92.3297 40.8359 92.2361 40.8359H91.5241C91.484 40.8359 91.4339 40.8342 91.3737 40.8309C91.2032 40.8309 91.0979 40.9061 91.0578 41.0565C91.0478 41.0565 91.0377 41.6917 91.0277 42.9619ZM94.8385 39.6425H96.1924V39.9785H96.1974L96.7039 39.6475C97.0482 39.6442 97.3072 39.6425 97.4811 39.6425H97.6516C98.163 39.6425 98.499 39.7495 98.6594 39.9634C98.8165 40.154 98.8951 40.4682 98.8951 40.9061C98.8917 41.2604 98.8901 41.5329 98.8901 41.7234H97.5262C97.5295 41.5563 97.5312 41.4242 97.5312 41.3273V41.1217C97.5312 40.9713 97.4811 40.881 97.3808 40.8509C97.3507 40.8409 97.2922 40.8342 97.2053 40.8309C96.8777 40.8342 96.6086 40.8359 96.398 40.8359H96.1924C96.1891 42.3034 96.1874 43.5085 96.1874 44.4512H94.8285C94.8319 42.85 94.8352 41.2471 94.8385 39.6425ZM100.826 38.4441H102.27V39.6425H103.599V41.0064H102.27V41.6081C102.27 42.1429 102.434 42.5474 102.761 42.8215C102.935 42.9452 103.129 43.0071 103.343 43.0071V44.4512H103.338C102.168 44.4512 101.414 44.0551 101.077 43.2628C101.01 43.1023 100.958 42.9385 100.921 42.7714C100.854 42.4839 100.821 42.031 100.821 41.4125V41.0064C100.196 41.003 99.806 41.0014 99.6522 41.0014V39.6425H100.821V38.4541C100.821 38.4474 100.823 38.4441 100.826 38.4441ZM109.491 37.3409H110.94V44.4512H109.491V37.3409ZM111.948 37.3409H113.392V38.6196H111.948V37.3409ZM111.948 39.6375H113.392V44.4512H111.948V39.6375ZM114.395 39.6425H115.753C115.753 39.6492 115.974 40.6153 116.415 42.5407H116.42L117.087 39.6425H118.451C117.766 42.5909 117.393 44.1938 117.333 44.4512H115.493C115.483 44.3977 115.117 42.7948 114.395 39.6425ZM119.459 39.6325H123.531V41.7736C123.531 42.1546 123.372 42.4271 123.054 42.5909C122.934 42.6477 122.815 42.6761 122.698 42.6761H120.918V42.8165C120.918 43.0138 121.002 43.1475 121.169 43.2177C121.232 43.2411 121.303 43.2528 121.379 43.2528H123.38C123.38 43.2762 123.43 43.674 123.531 44.4462H120.838C120.209 44.4462 119.797 44.2322 119.599 43.8043C119.509 43.6272 119.464 43.3363 119.464 42.9319C119.461 42.7012 119.459 42.3786 119.459 41.9641V41.8337C119.459 41.6599 119.461 41.5496 119.464 41.5028C119.461 41.3891 119.459 41.2638 119.459 41.1267V39.6325ZM120.908 40.7406V41.3173C120.908 41.3707 120.91 41.4543 120.913 41.568H121.956C122.06 41.568 122.125 41.5228 122.152 41.4326C122.162 41.3858 122.167 41.3323 122.167 41.2721V40.7406H120.908Z" fill="#004FB8"/>
<defs>
<radialGradient id="paint0_radial_1202_1021" cx="0" cy="0" r="1" gradientUnits="userSpaceOnUse" gradientTransform="translate(88.5 22.5) rotate(90) scale(9.5 7.5)">
<stop stop-color="#0077F7"/>
<stop offset="1" stop-color="#0041A2"/>
</radialGradient>
<radialGradient id="paint1_radial_1202_1021" cx="0" cy="0" r="1" gradientUnits="userSpaceOnUse" gradientTransform="translate(104.5 22.5) rotate(90) scale(9.5 7.5)">
<stop stop-color="#0077F7"/>
<stop offset="1" stop-color="#0041A2"/>
</radialGradient>
<radialGradient id="paint2_radial_1202_1021" cx="0" cy="0" r="1" gradientUnits="userSpaceOnUse" gradientTransform="translate(72.5 22.5) rotate(90) scale(9.5 7.5)">
<stop stop-color="#0077F7"/>
<stop offset="1" stop-color="#0041A2"/>
</radialGradient>
<radialGradient id="paint3_radial_1202_1021" cx="0" cy="0" r="1" gradientUnits="userSpaceOnUse" gradientTransform="translate(55.5 22.5) rotate(90) scale(9.5 8.5)">
<stop stop-color="#0077F7"/>
<stop offset="1" stop-color="#0041A2"/>
</radialGradient>
<linearGradient id="paint4_linear_1202_1021" x1="16.7383" y1="4.13359" x2="39.4473" y2="4.13359" gradientUnits="userSpaceOnUse">
<stop stop-color="#DD3021"/>
<stop offset="1" stop-color="#FAE64D"/>
</linearGradient>
<linearGradient id="paint5_linear_1202_1021" x1="7.22656" y1="24.2298" x2="38.8778" y2="24.2298" gradientUnits="userSpaceOnUse">
<stop stop-color="#DD3021"/>
<stop offset="1" stop-color="#FAE64D"/>
</linearGradient>
<linearGradient id="paint6_linear_1202_1021" x1="11.8107" y1="11.4247" x2="5.9316" y2="4.04845" gradientUnits="userSpaceOnUse">
<stop stop-color="#00AAE9"/>
<stop offset="0.15" stop-color="#0091D9"/>
<stop offset="0.47" stop-color="#0054B3"/>
<stop offset="0.56" stop-color="#0041A7"/>
</linearGradient>
<linearGradient id="paint7_linear_1202_1021" x1="14.1202" y1="14.6519" x2="8.04861" y2="7.18279" gradientUnits="userSpaceOnUse">
<stop stop-color="#00AAE9"/>
<stop offset="0.15" stop-color="#0091D9"/>
<stop offset="0.47" stop-color="#0054B3"/>
<stop offset="0.56" stop-color="#0041A7"/>
</linearGradient>
<linearGradient id="paint8_linear_1202_1021" x1="10.6709" y1="21.7806" x2="31.4734" y2="44.8602" gradientUnits="userSpaceOnUse">
<stop stop-color="#00AAE9"/>
<stop offset="0.15" stop-color="#0091D9"/>
<stop offset="0.47" stop-color="#0054B3"/>
<stop offset="0.56" stop-color="#0041A7"/>
</linearGradient>
<linearGradient id="paint9_linear_1202_1021" x1="9.08416" y1="15.3498" x2="21.6601" y2="42.8768" gradientUnits="userSpaceOnUse">
<stop stop-color="#00AAE9"/>
<stop offset="0.15" stop-color="#0091D9"/>
<stop offset="0.47" stop-color="#0054B3"/>
<stop offset="0.56" stop-color="#0041A7"/>
</linearGradient>
</defs>
</svg>
