<svg width="32" height="32" viewBox="0 0 32 32" fill="none" xmlns="http://www.w3.org/2000/svg">
<circle cx="16" cy="16" r="16" fill="#D9D9D9"/>
<circle cx="16" cy="16" r="16" fill="url(#paint0_linear_371_1963)"/>
<circle cx="16" cy="16" r="16" fill="url(#paint1_linear_371_1963)"/>
<circle cx="16" cy="16" r="16" fill="url(#paint2_linear_371_1963)"/>
<circle cx="16" cy="16" r="16" fill="url(#paint3_linear_371_1963)"/>
<path d="M15.2548 20.6869C15.2548 19.596 15.5502 18.6482 16.0661 17.7755C16.0661 17.6301 16.0661 17.4119 16.2139 17.1937C16.8025 16.3937 17.1707 15.5187 17.1707 15.2278C17.1707 15.2278 18.0548 14.5005 18.1275 13.4801C18.2002 12.3891 17.9071 12.3891 17.9071 12.3891C18.2752 11.2255 18.423 6.85733 15.623 7.43915C15.1821 6.49142 12.2343 5.76415 10.8343 8.23915C10.1707 9.47779 9.87751 11.0778 10.3911 12.4619C10.3911 12.5346 10.1707 12.3891 10.1707 12.971C10.098 13.5528 10.3911 14.4278 10.6866 14.8641C10.8343 14.9369 11.0548 15.0823 11.2025 15.1551C11.2025 15.1551 11.3502 16.246 12.2343 17.2664C12.4548 18.0664 11.6457 18.5051 11.6457 18.5051C8.99114 19.0119 6.55933 20.4687 6.55933 22.0687V23.3051C6.55933 25.0528 10.6116 25.4164 14.223 25.4164C15.3275 25.4164 16.4343 25.3437 17.4661 25.1255C16.0661 24.0346 15.2548 22.5073 15.2548 20.6869ZM20.7821 16.1005C18.2025 16.1005 16.1389 18.1392 16.1389 20.6869C16.1389 23.2346 18.2025 25.2732 20.7821 25.2732C23.3616 25.2732 25.4252 23.2346 25.4252 20.6869C25.423 18.1392 23.3616 16.1005 20.7821 16.1005ZM23.3616 19.3755L20.8548 23.0164C20.7071 23.1619 20.5593 23.3073 20.4116 23.3073C20.2639 23.3073 20.0434 23.2346 19.9684 23.0892L18.4957 21.6323C18.348 21.4869 18.348 21.196 18.4957 21.0505L18.8639 20.6869C19.0116 20.5414 19.3071 20.5414 19.4525 20.6869L20.2639 21.4869L22.1798 18.6482C22.3275 18.4301 22.623 18.4301 22.7684 18.5028L23.2116 18.7937C23.2843 18.8664 23.3593 18.9391 23.4321 19.0846C23.4343 19.1573 23.4343 19.3028 23.3616 19.3755Z" fill="white"/>
<defs>
<linearGradient id="paint0_linear_371_1963" x1="15.1165" y1="0" x2="15.1165" y2="32" gradientUnits="userSpaceOnUse">
<stop stop-color="#70CBFB"/>
<stop offset="0.49" stop-color="#4AA5FF"/>
<stop offset="0.915" stop-color="#4AA5FF"/>
<stop offset="1" stop-color="#6EC7FD"/>
</linearGradient>
<linearGradient id="paint1_linear_371_1963" x1="0" y1="16" x2="32" y2="16" gradientUnits="userSpaceOnUse">
<stop stop-color="#F4D24C"/>
<stop offset="1" stop-color="#F2A03A"/>
</linearGradient>
<linearGradient id="paint2_linear_371_1963" x1="2.60833" y1="16.2132" x2="29.574" y2="16.2132" gradientUnits="userSpaceOnUse">
<stop stop-color="#89D3FF"/>
<stop offset="1" stop-color="#0085E8"/>
</linearGradient>
<linearGradient id="paint3_linear_371_1963" x1="2.60833" y1="16.2132" x2="29.574" y2="16.2132" gradientUnits="userSpaceOnUse">
<stop stop-color="#41B9FF"/>
<stop offset="1" stop-color="#0085E8"/>
</linearGradient>
</defs>
</svg>
