<svg width="32" height="32" viewBox="0 0 32 32" fill="none" xmlns="http://www.w3.org/2000/svg">
<circle cx="16" cy="16" r="16" fill="#D9D9D9"/>
<circle cx="16" cy="16" r="16" fill="url(#paint0_linear_371_2019)"/>
<circle cx="16" cy="16" r="16" fill="url(#paint1_linear_371_2019)"/>
<circle cx="16" cy="16" r="16" fill="url(#paint2_linear_371_2019)"/>
<circle cx="16" cy="16" r="16" fill="url(#paint3_linear_371_2019)"/>
<path d="M21.8965 13.1469C21.4639 12.6654 20.9935 12.2192 20.49 11.8125C20.4183 11.7541 20.3636 11.7133 20.3002 11.6644C21.1893 11.3405 21.8115 10.565 21.8115 9.64656C21.8115 8.41074 20.7043 7.4645 19.3896 7.4645C19.1049 7.46388 18.8228 7.51864 18.5591 7.62571C18.4635 7.66362 18.3716 7.70998 18.2844 7.76426C18.2374 7.78477 18.14 7.76133 18.1129 7.72635C17.9807 7.52021 17.8215 7.33303 17.6403 7.16827C17.2221 6.78313 16.7279 6.54532 16.1616 6.54532C15.5961 6.54532 15.1007 6.78321 14.6827 7.16827C14.5054 7.32981 14.3499 7.51377 14.2201 7.71549C14.1816 7.76288 14.0823 7.78683 14.0479 7.76952C13.9578 7.71333 13.8628 7.66518 13.7642 7.62562C13.5002 7.51887 13.218 7.46416 12.9333 7.4645C11.6186 7.4645 10.5119 8.41065 10.5119 9.64656C10.5119 10.4315 10.9686 11.1114 11.6558 11.4953C11.582 11.5511 11.5088 11.6077 11.4363 11.6652C10.9312 12.0644 10.4616 12.5065 10.0326 12.9865C8.73327 14.4433 7.94385 16.1094 7.94385 17.9592C7.94385 23.0876 11.5492 25.5261 15.8922 25.5261C17.7124 25.5261 19.4918 25.1412 20.9313 24.2329C22.8858 22.9995 23.9966 20.9273 23.9966 17.9592C23.9967 16.2196 23.2024 14.6051 21.8965 13.1469ZM18.575 19.016C18.8621 19.016 19.0952 19.2685 19.0952 19.5803C19.0952 19.8921 18.8621 20.1446 18.575 20.1446H16.4911V21.7704C16.4911 22.0086 16.2584 22.2019 15.9701 22.2019C15.683 22.2019 15.45 22.0086 15.45 21.7704V20.1446H13.3666C13.0792 20.1446 12.8454 19.8921 12.8454 19.5803C12.8454 19.2685 13.0791 19.016 13.3666 19.016H15.45V18.4516H13.3666C13.0792 18.4516 12.8454 18.1992 12.8454 17.8862C12.8454 17.5755 13.0791 17.3223 13.3666 17.3223H15.4949L13.519 15.1818C13.421 15.072 13.3669 14.9299 13.3669 14.7828C13.3669 14.6356 13.421 14.4935 13.519 14.3837C13.5653 14.3318 13.6221 14.2902 13.6857 14.2618C13.7492 14.2334 13.818 14.2187 13.8876 14.2187C13.9572 14.2187 14.026 14.2334 14.0895 14.2618C14.153 14.2902 14.2098 14.3318 14.2562 14.3837L15.9712 16.2417L17.6851 14.3837C17.7315 14.3318 17.7882 14.2902 17.8518 14.2618C17.9153 14.2333 17.9841 14.2186 18.0537 14.2186C18.1233 14.2186 18.1921 14.2333 18.2556 14.2618C18.3191 14.2902 18.3759 14.3318 18.4222 14.3837C18.5205 14.4934 18.5748 14.6355 18.5748 14.7828C18.5748 14.93 18.5205 15.0721 18.4222 15.1818L16.4474 17.3223H18.575C18.8621 17.3223 19.0952 17.5754 19.0952 17.8862C19.0952 18.1992 18.8621 18.4516 18.575 18.4516H16.4911V19.016H18.575Z" fill="white"/>
<ellipse cx="15.6375" cy="17.8195" rx="4" ry="4.72727" fill="white"/>
<path d="M15.4806 14.3487C15.7658 14.0578 16.2342 14.0578 16.5194 14.3487L17.9799 15.8389L19.4701 17.2994C19.761 17.5845 19.761 18.053 19.4701 18.3382L17.9799 19.7987L16.5194 21.2888C16.2342 21.5798 15.7658 21.5798 15.4806 21.2888L14.0201 19.7987L12.5299 18.3382C12.239 18.053 12.239 17.5845 12.5299 17.2994L14.0201 15.8389L15.4806 14.3487Z" fill="#D9D9D9"/>
<path d="M15.4806 14.3487C15.7658 14.0578 16.2342 14.0578 16.5194 14.3487L17.9799 15.8389L19.4701 17.2994C19.761 17.5845 19.761 18.053 19.4701 18.3382L17.9799 19.7987L16.5194 21.2888C16.2342 21.5798 15.7658 21.5798 15.4806 21.2888L14.0201 19.7987L12.5299 18.3382C12.239 18.053 12.239 17.5845 12.5299 17.2994L14.0201 15.8389L15.4806 14.3487Z" fill="url(#paint4_linear_371_2019)"/>
<defs>
<linearGradient id="paint0_linear_371_2019" x1="15.1165" y1="0" x2="15.1165" y2="32" gradientUnits="userSpaceOnUse">
<stop stop-color="#70CBFB"/>
<stop offset="0.49" stop-color="#4AA5FF"/>
<stop offset="0.915" stop-color="#4AA5FF"/>
<stop offset="1" stop-color="#6EC7FD"/>
</linearGradient>
<linearGradient id="paint1_linear_371_2019" x1="0" y1="16" x2="32" y2="16" gradientUnits="userSpaceOnUse">
<stop stop-color="#F4D24C"/>
<stop offset="1" stop-color="#F2A03A"/>
</linearGradient>
<linearGradient id="paint2_linear_371_2019" x1="2.60833" y1="16.2132" x2="29.574" y2="16.2132" gradientUnits="userSpaceOnUse">
<stop stop-color="#89D3FF"/>
<stop offset="1" stop-color="#0085E8"/>
</linearGradient>
<linearGradient id="paint3_linear_371_2019" x1="2.60833" y1="16.2132" x2="29.574" y2="16.2132" gradientUnits="userSpaceOnUse">
<stop stop-color="#41B9FF"/>
<stop offset="1" stop-color="#0085E8"/>
</linearGradient>
<linearGradient id="paint4_linear_371_2019" x1="12.6521" y1="17.8721" x2="19.3935" y2="17.8721" gradientUnits="userSpaceOnUse">
<stop stop-color="#41B9FF"/>
<stop offset="1" stop-color="#0085E8"/>
</linearGradient>
</defs>
</svg>
