<svg width="20" height="20" viewBox="0 0 20 20" fill="none" xmlns="http://www.w3.org/2000/svg">
<path d="M10.5813 9.24347V5.42125C10.4036 5.42125 10.1813 5.37681 10.048 5.37681H10.0036C9.78134 5.42125 9.55911 5.42125 9.248 5.4657V9.24347H1.42578V6.22125C1.42578 5.73236 1.82578 5.37681 2.27023 5.37681H5.82578C4.89245 5.15459 4.18134 4.75459 4.13689 3.99903C4.09245 3.11014 5.11467 1.64347 6.58134 1.99903C8.09245 2.35459 9.15911 3.51014 9.95912 4.53236C10.7591 3.51014 11.9591 2.17681 13.5147 1.95459C14.8924 1.77681 15.9591 3.11014 15.8258 3.99903C15.6924 4.75459 14.9813 5.19903 14.048 5.37681H17.5591C18.048 5.37681 18.4036 5.77681 18.4036 6.22125V9.24347H10.5813ZM6.75911 2.79903C6.048 2.53236 5.60356 2.84347 5.29245 3.33236C5.11467 3.59903 4.93689 3.99903 5.20356 4.2657C5.91467 4.97681 7.82578 4.93236 9.15911 4.79903C8.53689 4.04347 7.78134 3.19903 6.75911 2.79903ZM14.7591 4.2657C15.248 3.59903 14.2702 2.2657 13.2036 2.75459C12.1813 3.24347 11.4702 3.99903 10.8036 4.79903C11.3369 4.84347 11.9147 4.84347 12.448 4.84347C13.1591 4.79903 14.4036 4.75459 14.7591 4.2657ZM9.29245 18.3546H2.93689C2.49245 18.3546 2.13689 17.999 2.13689 17.5546V9.8657H9.29245V18.3546ZM17.6924 17.5546C17.6924 17.999 17.3369 18.3546 16.8924 18.3546H10.5369V9.91014H17.6924V17.5546Z" fill="black"/>
<path d="M10.5813 9.24347V5.42125C10.4036 5.42125 10.1813 5.37681 10.048 5.37681H10.0036C9.78134 5.42125 9.55911 5.42125 9.248 5.4657V9.24347H1.42578V6.22125C1.42578 5.73236 1.82578 5.37681 2.27023 5.37681H5.82578C4.89245 5.15459 4.18134 4.75459 4.13689 3.99903C4.09245 3.11014 5.11467 1.64347 6.58134 1.99903C8.09245 2.35459 9.15911 3.51014 9.95912 4.53236C10.7591 3.51014 11.9591 2.17681 13.5147 1.95459C14.8924 1.77681 15.9591 3.11014 15.8258 3.99903C15.6924 4.75459 14.9813 5.19903 14.048 5.37681H17.5591C18.048 5.37681 18.4036 5.77681 18.4036 6.22125V9.24347H10.5813ZM6.75911 2.79903C6.048 2.53236 5.60356 2.84347 5.29245 3.33236C5.11467 3.59903 4.93689 3.99903 5.20356 4.2657C5.91467 4.97681 7.82578 4.93236 9.15911 4.79903C8.53689 4.04347 7.78134 3.19903 6.75911 2.79903ZM14.7591 4.2657C15.248 3.59903 14.2702 2.2657 13.2036 2.75459C12.1813 3.24347 11.4702 3.99903 10.8036 4.79903C11.3369 4.84347 11.9147 4.84347 12.448 4.84347C13.1591 4.79903 14.4036 4.75459 14.7591 4.2657ZM9.29245 18.3546H2.93689C2.49245 18.3546 2.13689 17.999 2.13689 17.5546V9.8657H9.29245V18.3546ZM17.6924 17.5546C17.6924 17.999 17.3369 18.3546 16.8924 18.3546H10.5369V9.91014H17.6924V17.5546Z" fill="url(#paint0_linear_371_1953)"/>
<path d="M10.5813 9.24347V5.42125C10.4036 5.42125 10.1813 5.37681 10.048 5.37681H10.0036C9.78134 5.42125 9.55911 5.42125 9.248 5.4657V9.24347H1.42578V6.22125C1.42578 5.73236 1.82578 5.37681 2.27023 5.37681H5.82578C4.89245 5.15459 4.18134 4.75459 4.13689 3.99903C4.09245 3.11014 5.11467 1.64347 6.58134 1.99903C8.09245 2.35459 9.15911 3.51014 9.95912 4.53236C10.7591 3.51014 11.9591 2.17681 13.5147 1.95459C14.8924 1.77681 15.9591 3.11014 15.8258 3.99903C15.6924 4.75459 14.9813 5.19903 14.048 5.37681H17.5591C18.048 5.37681 18.4036 5.77681 18.4036 6.22125V9.24347H10.5813ZM6.75911 2.79903C6.048 2.53236 5.60356 2.84347 5.29245 3.33236C5.11467 3.59903 4.93689 3.99903 5.20356 4.2657C5.91467 4.97681 7.82578 4.93236 9.15911 4.79903C8.53689 4.04347 7.78134 3.19903 6.75911 2.79903ZM14.7591 4.2657C15.248 3.59903 14.2702 2.2657 13.2036 2.75459C12.1813 3.24347 11.4702 3.99903 10.8036 4.79903C11.3369 4.84347 11.9147 4.84347 12.448 4.84347C13.1591 4.79903 14.4036 4.75459 14.7591 4.2657ZM9.29245 18.3546H2.93689C2.49245 18.3546 2.13689 17.999 2.13689 17.5546V9.8657H9.29245V18.3546ZM17.6924 17.5546C17.6924 17.999 17.3369 18.3546 16.8924 18.3546H10.5369V9.91014H17.6924V17.5546Z" fill="url(#paint1_linear_371_1953)"/>
<path d="M10.5813 9.24347V5.42125C10.4036 5.42125 10.1813 5.37681 10.048 5.37681H10.0036C9.78134 5.42125 9.55911 5.42125 9.248 5.4657V9.24347H1.42578V6.22125C1.42578 5.73236 1.82578 5.37681 2.27023 5.37681H5.82578C4.89245 5.15459 4.18134 4.75459 4.13689 3.99903C4.09245 3.11014 5.11467 1.64347 6.58134 1.99903C8.09245 2.35459 9.15911 3.51014 9.95912 4.53236C10.7591 3.51014 11.9591 2.17681 13.5147 1.95459C14.8924 1.77681 15.9591 3.11014 15.8258 3.99903C15.6924 4.75459 14.9813 5.19903 14.048 5.37681H17.5591C18.048 5.37681 18.4036 5.77681 18.4036 6.22125V9.24347H10.5813ZM6.75911 2.79903C6.048 2.53236 5.60356 2.84347 5.29245 3.33236C5.11467 3.59903 4.93689 3.99903 5.20356 4.2657C5.91467 4.97681 7.82578 4.93236 9.15911 4.79903C8.53689 4.04347 7.78134 3.19903 6.75911 2.79903ZM14.7591 4.2657C15.248 3.59903 14.2702 2.2657 13.2036 2.75459C12.1813 3.24347 11.4702 3.99903 10.8036 4.79903C11.3369 4.84347 11.9147 4.84347 12.448 4.84347C13.1591 4.79903 14.4036 4.75459 14.7591 4.2657ZM9.29245 18.3546H2.93689C2.49245 18.3546 2.13689 17.999 2.13689 17.5546V9.8657H9.29245V18.3546ZM17.6924 17.5546C17.6924 17.999 17.3369 18.3546 16.8924 18.3546H10.5369V9.91014H17.6924V17.5546Z" fill="url(#paint2_linear_371_1953)"/>
<defs>
<linearGradient id="paint0_linear_371_1953" x1="1.42578" y1="10.1465" x2="18.4036" y2="10.1465" gradientUnits="userSpaceOnUse">
<stop stop-color="#F4D24C"/>
<stop offset="1" stop-color="#F2A03A"/>
</linearGradient>
<linearGradient id="paint1_linear_371_1953" x1="2.80964" y1="10.2559" x2="17.1165" y2="10.2559" gradientUnits="userSpaceOnUse">
<stop stop-color="#89D3FF"/>
<stop offset="1" stop-color="#0085E8"/>
</linearGradient>
<linearGradient id="paint2_linear_371_1953" x1="2.80964" y1="10.2559" x2="17.1165" y2="10.2559" gradientUnits="userSpaceOnUse">
<stop stop-color="#41B9FF"/>
<stop offset="1" stop-color="#0085E8"/>
</linearGradient>
</defs>
</svg>
