<svg width="32" height="32" viewBox="0 0 32 32" fill="none" xmlns="http://www.w3.org/2000/svg">
<circle cx="16" cy="16" r="16" fill="#D9D9D9"/>
<circle cx="16" cy="16" r="16" fill="url(#paint0_linear_371_2014)"/>
<circle cx="16" cy="16" r="16" fill="url(#paint1_linear_371_2014)"/>
<circle cx="16" cy="16" r="16" fill="url(#paint2_linear_371_2014)"/>
<circle cx="16" cy="16" r="16" fill="url(#paint3_linear_371_2014)"/>
<g clip-path="url(#clip0_371_2014)">
<path d="M22.9942 10.8719C22.9942 10.1339 22.3863 9.52814 21.6418 9.52814H9.35021C8.60795 9.52814 8 10.1316 8 10.8719V12.372H22.9942V10.8719ZM20.0136 15.4611C21.111 15.4599 22.1711 15.8599 22.9942 16.5857V14.3864H8V20.0373C8 20.7754 8.60795 21.3811 9.35021 21.3811H15.7193C15.5718 20.9282 15.4966 20.4549 15.4962 19.9787C15.4984 17.4844 17.5195 15.4611 20.0138 15.4611H20.0136ZM16.3404 18.4522C16.5435 17.983 16.8347 17.5571 17.198 17.1975C17.5637 16.8366 17.9937 16.5473 18.4657 16.3443C18.951 16.1354 19.4743 16.029 20.0026 16.032C20.5585 16.032 21.0773 16.1361 21.5592 16.3443C22.51 16.7519 23.2704 17.5053 23.6867 18.4522C23.8989 18.9329 24.007 19.453 24.0037 19.9784C24.0078 20.5088 23.8998 21.034 23.6867 21.5196C23.4815 21.99 23.1891 22.4173 22.8249 22.7788C22.4612 23.1385 22.0314 23.4244 21.5592 23.621C21.0773 23.8252 20.5584 23.9251 20.0026 23.9251C19.475 23.9288 18.9521 23.8253 18.4657 23.621C17.9928 23.4245 17.5624 23.1386 17.198 22.7788C16.835 22.4172 16.544 21.9899 16.3404 21.5196C16.1278 21.0422 16.0234 20.5299 16.0234 19.9784C16.0189 19.4529 16.127 18.9325 16.3404 18.4522ZM17.7683 21.8302C17.886 21.5084 18.0996 21.2305 18.3803 21.0341C18.6609 20.8376 18.9952 20.732 19.3378 20.7316V22.4078C19.3378 22.4975 19.3666 22.5848 19.42 22.6569C19.4733 22.729 19.5484 22.7821 19.6342 22.8083C19.7199 22.8346 19.8118 22.8326 19.8964 22.8027C19.981 22.7728 20.0537 22.7166 20.1039 22.6423L22.4514 20.2977C22.4964 20.2603 22.5331 20.2139 22.5591 20.1615C22.5852 20.1091 22.6 20.0519 22.6026 19.9934C22.6052 19.935 22.5956 19.8766 22.5744 19.8221C22.5532 19.7676 22.5208 19.7181 22.4793 19.6768L20.0397 17.237L20.0374 17.239C19.9608 17.1696 19.8608 17.1316 19.7575 17.1326C19.6464 17.1327 19.5399 17.1769 19.4613 17.2554C19.3828 17.3339 19.3386 17.4405 19.3385 17.5515V18.8194C18.9879 18.8184 18.6438 18.9138 18.3437 19.0952C18.0437 19.2765 17.7993 19.5369 17.6373 19.8478C17.4753 20.1587 17.4019 20.5082 17.4251 20.858C17.4483 21.2078 17.5673 21.5445 17.7689 21.8313L17.7683 21.8302Z" fill="white"/>
</g>
<defs>
<linearGradient id="paint0_linear_371_2014" x1="15.1165" y1="0" x2="15.1165" y2="32" gradientUnits="userSpaceOnUse">
<stop stop-color="#70CBFB"/>
<stop offset="0.49" stop-color="#4AA5FF"/>
<stop offset="0.915" stop-color="#4AA5FF"/>
<stop offset="1" stop-color="#6EC7FD"/>
</linearGradient>
<linearGradient id="paint1_linear_371_2014" x1="0" y1="16" x2="32" y2="16" gradientUnits="userSpaceOnUse">
<stop stop-color="#F4D24C"/>
<stop offset="1" stop-color="#F2A03A"/>
</linearGradient>
<linearGradient id="paint2_linear_371_2014" x1="2.60833" y1="16.2132" x2="29.574" y2="16.2132" gradientUnits="userSpaceOnUse">
<stop stop-color="#89D3FF"/>
<stop offset="1" stop-color="#0085E8"/>
</linearGradient>
<linearGradient id="paint3_linear_371_2014" x1="2.60833" y1="16.2132" x2="29.574" y2="16.2132" gradientUnits="userSpaceOnUse">
<stop stop-color="#41B9FF"/>
<stop offset="1" stop-color="#0085E8"/>
</linearGradient>
<clipPath id="clip0_371_2014">
<rect width="16" height="16" fill="white" transform="translate(8 8.72736)"/>
</clipPath>
</defs>
</svg>
