<svg width="32" height="32" viewBox="0 0 32 32" fill="none" xmlns="http://www.w3.org/2000/svg">
<circle cx="16" cy="16" r="16" fill="#D9D9D9"/>
<circle cx="16" cy="16" r="16" fill="url(#paint0_linear_371_2028)"/>
<circle cx="16" cy="16" r="16" fill="url(#paint1_linear_371_2028)"/>
<circle cx="16" cy="16" r="16" fill="url(#paint2_linear_371_2028)"/>
<circle cx="16" cy="16" r="16" fill="url(#paint3_linear_371_2028)"/>
<path d="M23.7644 13.0002C23.7644 12.6568 23.486 12.3785 23.1427 12.3785H9.46544C9.12208 12.3785 8.84375 12.6568 8.84375 13.0002V22.2634C8.84375 22.6067 9.12208 22.8851 9.46544 22.8851H23.1427C23.486 22.8851 23.7644 22.6067 23.7644 22.2634V19.901H19.8477V19.9006C19.8374 19.9007 19.827 19.901 19.8166 19.901C18.5634 19.901 17.5475 18.885 17.5475 17.6318C17.5475 16.3785 18.5634 15.3626 19.8166 15.3626C19.827 15.3626 19.8374 15.3628 19.8477 15.363V15.3626H23.7644V13.0002ZM18.48 17.6318C18.48 18.37 19.0784 18.9684 19.8166 18.9684C20.5549 18.9684 21.1533 18.37 21.1533 17.6318C21.1533 16.8936 20.5549 16.2951 19.8166 16.2951C19.0784 16.2951 18.48 16.8936 18.48 17.6318ZM22.2722 11.8L21.5005 9.09843C21.4228 8.82659 21.1386 8.6689 20.8657 8.74622L10.0885 11.8H22.2722Z" fill="white"/>
<defs>
<linearGradient id="paint0_linear_371_2028" x1="15.1165" y1="0" x2="15.1165" y2="32" gradientUnits="userSpaceOnUse">
<stop stop-color="#70CBFB"/>
<stop offset="0.49" stop-color="#4AA5FF"/>
<stop offset="0.915" stop-color="#4AA5FF"/>
<stop offset="1" stop-color="#6EC7FD"/>
</linearGradient>
<linearGradient id="paint1_linear_371_2028" x1="0" y1="16" x2="32" y2="16" gradientUnits="userSpaceOnUse">
<stop stop-color="#F4D24C"/>
<stop offset="1" stop-color="#F2A03A"/>
</linearGradient>
<linearGradient id="paint2_linear_371_2028" x1="2.60833" y1="16.2132" x2="29.574" y2="16.2132" gradientUnits="userSpaceOnUse">
<stop stop-color="#89D3FF"/>
<stop offset="1" stop-color="#0085E8"/>
</linearGradient>
<linearGradient id="paint3_linear_371_2028" x1="2.60833" y1="16.2132" x2="29.574" y2="16.2132" gradientUnits="userSpaceOnUse">
<stop stop-color="#41B9FF"/>
<stop offset="1" stop-color="#0085E8"/>
</linearGradient>
</defs>
</svg>
