<svg width="12" height="12" viewBox="0 0 12 12" fill="none" xmlns="http://www.w3.org/2000/svg">
<path d="M6.9794 6.01248L11.812 10.8451C11.9348 10.9744 12.0022 11.1466 11.9999 11.3249C11.9976 11.5032 11.9258 11.6736 11.7997 11.7997C11.6736 11.9258 11.5032 11.9976 11.3249 11.9999C11.1466 12.0022 10.9744 11.9348 10.8451 11.812L6.01248 6.9794L1.17988 11.812C1.05057 11.9348 0.878398 12.0022 0.700076 11.9999C0.521754 11.9976 0.351383 11.9258 0.22528 11.7997C0.0991768 11.6736 0.0273157 11.5032 0.0250147 11.3249C0.0227137 11.1466 0.0901548 10.9744 0.212962 10.8451L5.04556 6.01248L0.212962 1.17988C0.146758 1.11701 0.0938115 1.04152 0.0572458 0.957857C0.0206801 0.874197 0.00123497 0.784062 5.69372e-05 0.692768C-0.00112109 0.601473 0.0159918 0.510867 0.0503867 0.426291C0.0847815 0.341716 0.135762 0.264883 0.200322 0.200322C0.264882 0.135762 0.341716 0.0847815 0.426291 0.0503867C0.510867 0.0159918 0.601473 -0.00112109 0.692768 5.69372e-05C0.784062 0.00123497 0.874196 0.0206801 0.957856 0.0572458C1.04152 0.0938115 1.11701 0.146758 1.17988 0.212962L6.01248 5.04556L10.8451 0.212962C10.9744 0.0901547 11.1466 0.0227136 11.3249 0.0250146C11.5032 0.0273155 11.6736 0.0991766 11.7997 0.22528C11.9258 0.351383 11.9976 0.521754 11.9999 0.700076C12.0022 0.878398 11.9348 1.05057 11.812 1.17988L6.9794 6.01248Z" fill="white"/>
</svg>
