<svg width="16" height="28" viewBox="0 0 16 28" fill="none" xmlns="http://www.w3.org/2000/svg">
<path d="M2.73399 0.475486C2.44433 0.181865 2.0523 0.0116862 1.64 0.00057977C1.22769 -0.0105267 0.827077 0.1383 0.522025 0.415901C0.216973 0.693502 0.0311413 1.07835 0.00343513 1.48987C-0.024272 1.9014 0.108296 2.30768 0.373384 2.62367L0.466019 2.72589L11.2777 13.6227C11.3013 13.6464 11.3011 13.6847 11.2774 13.7083L0.475601 24.4241C0.191907 24.7056 0.0240316 25.0832 0.00510693 25.4824C-0.0138168 25.8815 0.117588 26.2733 0.373384 26.5803L0.466019 26.6833C0.747575 26.9669 1.12521 27.1346 1.52438 27.1534C1.92355 27.1722 2.31526 27.0407 2.62219 26.7848L2.72521 26.6921L14.7039 14.8092C14.9875 14.5277 15.1552 14.15 15.174 13.7509C15.1928 13.3517 15.0612 12.96 14.8054 12.6531L14.7127 12.55L2.73399 0.475486Z" fill="#424F72"/>
</svg>
