<svg width="105" height="105" viewBox="0 0 105 105" fill="none" xmlns="http://www.w3.org/2000/svg">
<path fill-rule="evenodd" clip-rule="evenodd" d="M52.5 105C81.4962 105 105 81.4962 105 52.5C105 23.5038 81.4962 0 52.5 0C23.5038 0 0 23.5038 0 52.5C0 81.4962 23.5038 105 52.5 105ZM86.8197 36.3417C86.8197 34.7364 86.1825 33.1967 85.0481 32.0609V32.0528C83.9123 30.9184 82.3726 30.2812 80.7673 30.2812C79.162 30.2812 77.6224 30.9184 76.4865 32.0528L44.4212 64.1182L28.5096 48.2148C27.3613 47.1447 25.8424 46.5622 24.2731 46.5899C22.7037 46.6176 21.2064 47.2533 20.0965 48.3632C18.9866 49.4731 18.3509 50.9704 18.3232 52.5398C18.2955 54.1091 18.8781 55.628 19.9481 56.7763L40.1404 76.9686C41.2762 78.103 42.8159 78.7402 44.4212 78.7402C46.0265 78.7402 47.5661 78.103 48.7019 76.9686L85.0481 40.6225C86.1825 39.4866 86.8197 37.947 86.8197 36.3417Z" fill="#11AA66"/>
</svg>
