<svg width="105" height="105" viewBox="0 0 105 105" fill="none" xmlns="http://www.w3.org/2000/svg">
<path d="M52.5 0C23.6221 0 0 23.6221 0 52.5C0 81.3779 23.6221 105 52.5 105C81.3779 105 105 81.3779 105 52.5C105 23.6221 81.3779 0 52.5 0ZM77.5853 70.5853C79.3411 72.3411 79.3411 75.5485 77.5853 77.2926C76.7074 78.1706 75.5485 78.7559 74.0853 78.7559C72.9147 78.7559 71.4632 78.1706 70.5853 77.2926L53.6706 60.3779L36.7559 77.2926C35 79.0485 31.7926 79.0485 30.0485 77.2926C28.3043 75.5368 28.2926 72.3294 30.0485 70.5853L46.9632 53.6706L30.0485 36.7559C29.1706 35.8779 28.5853 34.7191 28.5853 33.2559C28.5853 32.0853 29.1706 30.6338 30.0485 29.7559C31.8043 28 35.0117 28 36.7559 29.7559L53.6706 46.6706L70.5853 29.7559C71.4632 28.8779 72.6221 28.2926 74.0853 28.2926C75.2559 28.2926 76.7074 28.8779 77.5853 29.7559C78.4632 30.6338 79.0485 31.7926 79.0485 33.2559C79.0485 34.4264 78.4632 35.8779 77.5853 36.7559L60.6706 53.6706L77.5853 70.5853Z" fill="#F53434"/>
</svg>
