<svg width="23" height="42" viewBox="0 0 23 42" fill="none" xmlns="http://www.w3.org/2000/svg">
<path d="M18.8562 1.08879C19.2952 0.64379 19.8894 0.385875 20.5142 0.369043C21.1391 0.35221 21.7463 0.577766 22.2086 0.998485C22.6709 1.4192 22.9525 2.00247 22.9945 2.62615C23.0365 3.24984 22.8356 3.86559 22.4338 4.34448L22.2935 4.4994L5.9077 21.0141C5.87204 21.0501 5.87227 21.1081 5.90822 21.1438L22.2789 37.3843C22.7089 37.8109 22.9633 38.3831 22.992 38.9881C23.0207 39.593 22.8215 40.1868 22.4338 40.6521L22.2935 40.8082C21.8667 41.238 21.2944 41.4922 20.6895 41.5207C20.0845 41.5491 19.4908 41.3498 19.0257 40.9619L18.8695 40.8215L0.715115 22.8124C0.285335 22.3857 0.0311313 21.8133 0.00267542 21.2084C-0.0257804 20.6034 0.17358 20.0097 0.561408 19.5446L0.701803 19.3884L18.8562 1.08879Z" fill="#424F72"/>
</svg>
