<?xml version="1.0" encoding="utf-8"?>
<!-- Generator: Adobe Illustrator 26.5.0, SVG Export Plug-In . SVG Version: 6.00 Build 0)  -->
<svg version="1.1" id="Layer_1" xmlns="http://www.w3.org/2000/svg" xmlns:xlink="http://www.w3.org/1999/xlink" x="0px" y="0px"
	 viewBox="0 0 1602.61 1269.69" style="enable-background:new 0 0 1602.61 1269.69;" xml:space="preserve">
<style type="text/css">
	.st0{fill-rule:evenodd;clip-rule:evenodd;fill:#C0131B;}
	.st1{fill-rule:evenodd;clip-rule:evenodd;fill:#FCD842;}
	.st2{fill-rule:evenodd;clip-rule:evenodd;fill:#FDE869;}
	.st3{fill-rule:evenodd;clip-rule:evenodd;fill:#F7B500;}
	.st4{fill-rule:evenodd;clip-rule:evenodd;fill:#E28900;}
	.st5{fill-rule:evenodd;clip-rule:evenodd;fill:#E4081C;}
	.st6{fill-rule:evenodd;clip-rule:evenodd;fill:#FFF000;}
	.st7{fill-rule:evenodd;clip-rule:evenodd;fill:#FBC900;}
</style>
<g>
	<g>
		<path class="st0" d="M1504.32,845.76c-8.83,33.12-63.2,182.21-82.23,241.49c-17.79,55.37-10.72-126.48-28.5-71.11
			c-2.82,8.78-41.02,17.82-48.32,23.44c-8.02,6.18-20.86,20.53-30.98,20.49c-85.3-0.43-18.77-20.05-104.08-20.49
			c-43.16-0.23-53.95,16.5-97.12,16.28c-21.58-0.1-48.56,4.31-70.14,4.21c-18.87-0.09-160.53-25.28-178.42-30.04
			c8.54-47.2,74.3,76.12,87.81,30.04c13.93-47.45-72.96,18.98-59.04-28.47c28.12-95.88,56.24-191.76,84.37-287.64
			c158.4,0,316.8-0.03,475.2-0.04c16.82,0,37.79,3.03,50.37,14.21c17.94,15.95,12.35,41.97,6.74,65.32
			C1508.19,830.89,1506.29,838.34,1504.32,845.76z"/>
	</g>
	<g>
		<path class="st0" d="M135.07,845.76c8.84,33.14,63.19,182.22,82.24,241.49c17.78,55.37,10.71-126.48,28.49-71.11
			c2.82,8.79,41.02,17.82,48.32,23.46c8.01,6.18,20.85,20.53,30.97,20.47c85.3-0.43,18.78-20.04,104.08-20.47
			c43.17-0.22,53.96,16.49,97.13,16.26c21.58-0.09,48.56,4.31,70.14,4.21c18.87-0.09,160.53-25.28,178.42-30.04
			c-8.54-47.2-74.31,76.12-87.81,30.04c-13.92-47.43,72.96,18.98,59.04-28.47c-28.12-95.86-56.24-191.74-84.36-287.62
			c-158.41-0.02-316.81-0.05-475.21-0.05c-16.82,0-37.8,3.03-50.37,14.2c-17.94,15.94-12.34,41.97-6.74,65.31
			C131.2,830.91,133.1,838.34,135.07,845.76z"/>
	</g>
	<g>
		<path class="st1" d="M1349.1,650.7c0,295.77-239.77,535.55-535.54,535.55c-295.76,0-535.53-239.78-535.53-535.55
			c0-295.77,239.77-535.53,535.53-535.53C1109.33,115.17,1349.1,354.93,1349.1,650.7z"/>
	</g>
	<g>
		<path class="st2" d="M1201.81,282.49c-95.09-86.5-221.33-139.18-359.83-139.18c-295.89,0-535.79,239.9-535.79,535.8
			c0,138.49,52.68,264.72,139.16,359.83C342.3,941.84,278.02,803.68,278.02,650.61c0-295.58,239.89-535.45,535.45-535.45
			C966.55,115.15,1104.73,179.43,1201.81,282.49z"/>
	</g>
	<g>
		<path class="st3" d="M1218.21,650.7c0,223.48-181.17,404.66-404.66,404.66c-223.48,0-404.65-181.18-404.65-404.66
			c0-223.48,181.17-404.65,404.65-404.65C1037.04,246.05,1218.21,427.22,1218.21,650.7z"/>
	</g>
	<g>
		<path class="st4" d="M1113.01,378.56c-71.91-63.95-166.33-103.37-270.39-103.37c-223.64,0-404.56,180.91-404.56,404.56
			c0,104.06,39.43,198.49,103.38,270.39C459.93,876.25,408.9,769.56,408.9,650.61c0-223.33,181.25-404.57,404.57-404.57
			C932.43,246.04,1039.12,297.05,1113.01,378.56z"/>
	</g>
	<g>
		<path class="st4" d="M855.64,470.37c15.94,3.89,30.35,9.46,43.26,16.71c12.92,7.27,23.97,15.4,33.17,24.42
			c9.2,9.01,16.46,18.49,21.77,28.38c5.32,9.91,8.12,19.47,8.46,28.68c0,3.18-1.12,5.91-3.45,8.21c-2.29,2.31-4.84,3.46-7.69,3.46
			h-69.53c-4.92,0-8.94-0.7-11.93-2.12c-3.03-1.4-6.09-3.55-9.29-6.37c-1.07-1.06-2.75-2.83-5.04-5.31c-2.29-2.46-5.56-5.04-9.8-7.7
			c-4.24-2.66-9.56-4.94-15.94-6.91c-6.36-1.93-14.12-2.91-23.32-2.91c-6.75,0-13.22,0.45-19.4,1.33
			c-6.18,0.89-11.66,2.3-16.45,4.24c-4.75,1.96-8.68,4.7-11.66,8.23c-3.03,3.54-4.54,7.97-4.54,13.27s1.69,9.73,5.05,13.28
			c3.36,3.54,9.03,6.82,16.97,9.82c7.98,3,18.49,5.91,31.57,8.74c13.09,2.82,29.38,6.19,48.84,10.09
			c19.44,3.91,36.46,8.85,50.96,14.86c14.47,6.01,26.6,13.53,36.33,22.56c9.75,9.01,17.02,19.63,21.76,31.83
			c4.8,12.21,7.17,26.62,7.17,43.25c0,14.86-2.86,28.48-8.5,40.87c-5.65,12.39-13.6,23.35-23.88,32.9
			c-10.24,9.57-22.63,17.52-37.15,23.88c-14.51,6.37-30.4,10.96-47.76,13.8v37.67c0,3.89-1.39,7.25-4.23,10.08
			c-2.87,2.83-6.18,4.25-10.07,4.25h-69.53c-3.89,0-7.25-1.42-10.1-4.25c-2.81-2.83-4.23-6.19-4.23-10.08v-39.27
			c-16.99-3.89-32.31-9.46-45.92-16.71c-13.6-7.23-25.29-15.46-35.02-24.69c-9.71-9.16-17.23-19.16-22.55-29.96
			c-5.32-10.8-8.16-21.67-8.5-32.63c0-3.19,1.16-5.94,3.46-8.22c2.28-2.31,4.87-3.45,7.68-3.45h69.53c4.96,0,8.85,0.61,11.66,1.84
			c2.86,1.24,5.66,3.1,8.51,5.58c1.42,1.43,3.54,3.72,6.35,6.89c2.85,3.19,6.65,6.46,11.44,9.82c4.76,3.38,10.76,6.28,18.01,8.78
			c7.25,2.46,16.19,3.7,26.82,3.7c18.75,0,34.41-2.01,46.99-6.1c12.52-4.06,18.83-11.4,18.83-22.02c0-5.31-2.33-9.73-6.91-13.27
			c-4.62-3.53-11.48-6.82-20.68-9.82c-9.2-3-20.99-5.92-35.29-8.76c-14.34-2.82-31.23-6.36-50.7-10.61
			c-36.46-7.79-63.06-20.79-79.86-39c-16.79-18.24-25.22-42.54-25.22-72.98c0-12.38,2.3-24.33,6.92-35.81
			c4.58-11.52,11.23-22.02,19.91-31.6c8.63-9.54,19.26-17.85,31.83-24.94c12.56-7.06,26.76-12.55,42.71-16.44v-39.27
			c0-3.88,1.42-7.25,4.23-10.09c2.85-2.84,6.21-4.25,10.1-4.25h69.53c3.89,0,7.21,1.41,10.07,4.25c2.84,2.83,4.23,6.2,4.23,10.09
			V470.37z"/>
	</g>
	<g>
		<path class="st1" d="M842.59,457.33c15.94,3.89,30.37,9.46,43.28,16.73c12.9,7.25,23.96,15.38,33.16,24.41
			c9.2,9.01,16.45,18.49,21.77,28.38c5.3,9.91,8.11,19.47,8.46,28.68c0,3.18-1.12,5.92-3.46,8.21c-2.28,2.31-4.83,3.45-7.68,3.45
			h-69.54c-4.92,0-8.93-0.69-11.91-2.11c-3.02-1.4-6.09-3.55-9.29-6.37c-1.08-1.06-2.77-2.83-5.05-5.31
			c-2.29-2.48-5.58-5.04-9.81-7.68c-4.22-2.67-9.54-4.95-15.93-6.92c-6.35-1.91-14.12-2.91-23.32-2.91
			c-6.74,0-13.22,0.45-19.39,1.34c-6.18,0.88-11.66,2.28-16.45,4.22c-4.76,1.96-8.68,4.72-11.67,8.23
			c-3.02,3.54-4.53,7.97-4.53,13.28c0,5.3,1.69,9.71,5.05,13.25c3.36,3.55,9.03,6.83,16.97,9.83c8,3,18.49,5.91,31.57,8.74
			c13.09,2.83,29.37,6.19,48.85,10.09c19.44,3.91,36.45,8.87,50.96,14.86c14.47,6.01,26.61,13.53,36.31,22.56
			c9.78,9.01,17.03,19.62,21.78,31.83c4.81,12.21,7.17,26.63,7.17,43.25c0,14.86-2.84,28.47-8.51,40.87
			c-5.66,12.37-13.6,23.35-23.88,32.9c-10.24,9.55-22.63,17.52-37.15,23.88c-14.52,6.37-30.4,10.96-47.77,13.8v37.67
			c0,3.89-1.37,7.27-4.23,10.09c-2.84,2.83-6.17,4.27-10.05,4.27h-69.54c-3.88,0-7.25-1.44-10.11-4.27
			c-2.8-2.82-4.23-6.19-4.23-10.09v-39.27c-16.96-3.89-32.3-9.46-45.9-16.71c-13.61-7.23-25.31-15.46-35.02-24.67
			c-9.72-9.18-17.23-19.18-22.55-29.98c-5.31-10.8-8.15-21.67-8.5-32.63c0-3.19,1.15-5.94,3.45-8.24c2.29-2.3,4.88-3.44,7.68-3.44
			h69.54c4.97,0,8.84,0.62,11.66,1.87c2.84,1.22,5.65,3.07,8.5,5.56c1.42,1.42,3.54,3.72,6.34,6.89c2.86,3.18,6.65,6.48,11.45,9.82
			c4.75,3.38,10.75,6.28,18.01,8.78c7.25,2.46,16.2,3.72,26.82,3.72c18.75,0,34.41-2.05,46.99-6.12
			c12.52-4.06,18.83-11.4,18.83-22.02c0-5.31-2.34-9.71-6.92-13.27c-4.62-3.54-11.49-6.82-20.68-9.82
			c-9.21-3.02-20.99-5.92-35.28-8.74c-14.35-2.83-31.23-6.37-50.7-10.62c-36.46-7.77-63.05-20.79-79.86-39
			c-16.8-18.23-25.23-42.54-25.23-72.99c0-12.37,2.3-24.31,6.92-35.8c4.57-11.5,11.23-22.02,19.91-31.6
			c8.63-9.54,19.26-17.85,31.82-24.93c12.57-7.06,26.77-12.55,42.71-16.45v-39.26c0-3.88,1.43-7.25,4.23-10.09
			c2.86-2.82,6.22-4.25,10.11-4.25h69.54c3.88,0,7.21,1.43,10.05,4.25c2.86,2.83,4.23,6.2,4.23,10.09V457.33z"/>
	</g>
	<g>
		<path class="st5" d="M1452.98,743.92c19.18-0.21,53.5,5.42,58.25,28.83c1.98,9.79-8.93,35.38-36.65,35.38
			c-1.89,0-1313.76-0.15-1313.76-0.15l-83.43,281.09c0,0-7.94,63.33,44.4,63.33c278.1,0,1176.25,0.02,1176.25,0.05h58.48
			c36.38,0,68.28-24.14,78.14-59.15c25.19-89.54,69.27-248.73,75.71-268.74C1525.13,778.7,1524.55,743.76,1452.98,743.92z"/>
	</g>
	<g>
		<path class="st5" d="M126.81,771.59c0,0-13.08,35.33,92.86,36.39c-47.09,173.04-95.73,344.42-95.73,344.42H92.69
			c-36.98,0-63.72-35.36-53.64-70.95L126.81,771.59z"/>
	</g>
	<g>
		<path class="st6" d="M1187.49,1268.17H415.13c-47.34,0-85.71-38.39-85.71-85.72v-27.76c0-47.34,38.38-85.72,85.71-85.72h772.36
			c47.33,0,85.7,38.37,85.7,85.72v27.76C1273.19,1229.78,1234.82,1268.17,1187.49,1268.17z"/>
	</g>
	<g>
		<path class="st5" d="M252.21,543.4H23.1c-15.43,0-26.43-15-21.78-29.71c2.99-9.52,11.81-16,21.78-16h229.11
			c15.44,0,26.43,15,21.79,29.72C271,536.94,262.19,543.4,252.21,543.4z"/>
	</g>
	<g>
		<path class="st5" d="M358.96,521.45c0,12.79-10.36,23.16-23.16,23.16c-12.79,0-23.15-10.37-23.15-23.16
			c0-12.8,10.36-23.16,23.15-23.16C348.6,498.3,358.96,508.66,358.96,521.45z"/>
	</g>
	<g>
		<path class="st5" d="M1455.56,718.81h-187.51c-12.63,0-21.64-14.99-17.84-29.72c2.46-9.52,9.68-16,17.84-16h187.51
			c12.64,0,21.64,15,17.84,29.72C1470.95,712.34,1463.73,718.81,1455.56,718.81z"/>
	</g>
	<g>
		<path class="st7" d="M1589.51,587.42h-148.62c-10.03,0-17.15-15-14.14-29.72c1.94-9.51,7.68-15.98,14.14-15.98h148.62
			c10.02,0,17.15,15,14.14,29.72C1601.71,580.95,1596,587.42,1589.51,587.42z"/>
	</g>
	<g>
		<path class="st5" d="M1558.17,696.85c0,12.8-10.38,23.17-23.16,23.17c-12.79,0-23.16-10.37-23.16-23.17
			c0-12.79,10.37-23.16,23.16-23.16C1547.79,673.69,1558.17,684.06,1558.17,696.85z"/>
	</g>
	<g>
		<path class="st3" d="M1390.09,265.04l1.02-0.21c-35.63-7.59-63.02-36.2-69.04-72.13l-2.76-16.38l-2.56,15.25
			c-6.05,35.96-33.46,64.56-69.13,72.14l-1.03,0.22c35.64,7.58,63.01,36.17,69.05,72.1l2.76,16.4l2.56-15.26
			C1327.01,301.23,1354.41,272.62,1390.09,265.04z"/>
	</g>
	<g>
		<path class="st3" d="M620.38,59.89l0.7-0.15c-24.23-5.17-42.86-24.62-46.96-49.06l-1.87-11.15L570.5,9.9
			c-4.11,24.45-22.75,43.91-47.01,49.06l-0.7,0.15c24.24,5.16,42.86,24.62,46.96,49.04l1.87,11.16l1.74-10.38
			C577.48,84.48,596.12,65.02,620.38,59.89z"/>
	</g>
</g>
</svg>
