<svg width="37" height="38" viewBox="0 0 37 38" fill="none" xmlns="http://www.w3.org/2000/svg">
<path d="M11.8367 16.8296L12.2541 18.387C12.5154 19.3606 12.7991 20.2655 13.1284 21.1054L13.0997 21.1135C12.6003 20.4223 11.986 19.6474 11.4511 19.0925L9.87004 17.3565L7.79527 17.9126L9.55382 24.4744L11.1599 24.0432L10.7274 22.4271C10.4696 21.4488 10.1849 20.4777 9.87379 19.515L9.91316 19.5043C10.4356 20.2099 11.1018 20.9804 11.648 21.5753L13.3515 23.4564L15.2013 22.9608L13.4428 16.3991L11.8367 16.8296ZM37 13.8569L32.3643 10.861L32.0875 5.34908L26.575 5.07224L23.5791 0.436523L18.6672 2.95311L13.7546 0.436523L10.7587 5.07224L5.24557 5.34908L4.96935 10.861L0.333008 13.8569L2.85022 18.7688L0.333008 23.6814L4.96935 26.6773L5.24557 32.1891L10.7587 32.466L13.7546 37.1017L18.6665 34.5851L23.5785 37.1017L26.575 32.466L32.0875 32.1891L32.3643 26.6773L37 23.6814L34.4835 18.7694L37 13.8569ZM32.9305 22.5909L29.3234 24.9218L29.1084 29.2107L24.8196 29.4257L22.4886 33.0322L18.6665 31.0743L14.8445 33.0322L12.5135 29.4257L8.22523 29.2107L8.00963 24.9218L4.40254 22.5909L6.36044 18.7688L4.40254 14.9474L8.00963 12.6164L8.22523 8.32749L12.5135 8.11252L14.8445 4.50543L18.6665 6.46396L22.4886 4.50543L24.8196 8.11252L29.1078 8.32749L29.3234 12.6164L32.9305 14.9474L30.9726 18.7688L32.9305 22.5909ZM17.7948 20.7211L17.4717 19.5137L19.8276 18.8825L19.4471 17.4614L17.0911 18.0926L16.8099 17.0415L19.3121 16.3703L18.9252 14.9299L14.6614 16.0722L16.4199 22.634L20.8194 21.4554L20.4338 20.0143L17.7954 20.7211H17.7948ZM26.3844 12.9313L26.6394 15.4404C26.7312 16.2503 26.8206 17.0509 26.9212 17.817L26.9025 17.822C26.6238 17.1188 26.3321 16.4209 26.0276 15.7285L24.9433 13.3175L23.0648 13.8206L23.2897 16.3372C23.361 17.1846 23.4354 18.0095 23.5272 18.7788L23.5078 18.7838C23.2273 18.1276 22.8785 17.2927 22.558 16.5653L21.5268 14.2324L19.6377 14.7386L22.9054 20.896L24.8521 20.3742L24.6596 17.6714C24.6227 17.0659 24.544 16.4191 24.444 15.621L24.464 15.616C24.7122 16.2548 24.979 16.8863 25.2639 17.5096L26.39 19.9624L28.3079 19.4487L28.1654 12.4539L26.3844 12.9313Z" fill="white"/>
<path d="M11.8367 16.8296L12.2541 18.387C12.5154 19.3606 12.7991 20.2655 13.1284 21.1054L13.0997 21.1135C12.6003 20.4223 11.986 19.6474 11.4511 19.0925L9.87004 17.3565L7.79527 17.9126L9.55382 24.4744L11.1599 24.0432L10.7274 22.4271C10.4696 21.4488 10.1849 20.4777 9.87379 19.515L9.91316 19.5043C10.4356 20.2099 11.1018 20.9804 11.648 21.5753L13.3515 23.4564L15.2013 22.9608L13.4428 16.3991L11.8367 16.8296ZM37 13.8569L32.3643 10.861L32.0875 5.34908L26.575 5.07224L23.5791 0.436523L18.6672 2.95311L13.7546 0.436523L10.7587 5.07224L5.24557 5.34908L4.96935 10.861L0.333008 13.8569L2.85022 18.7688L0.333008 23.6814L4.96935 26.6773L5.24557 32.1891L10.7587 32.466L13.7546 37.1017L18.6665 34.5851L23.5785 37.1017L26.575 32.466L32.0875 32.1891L32.3643 26.6773L37 23.6814L34.4835 18.7694L37 13.8569ZM32.9305 22.5909L29.3234 24.9218L29.1084 29.2107L24.8196 29.4257L22.4886 33.0322L18.6665 31.0743L14.8445 33.0322L12.5135 29.4257L8.22523 29.2107L8.00963 24.9218L4.40254 22.5909L6.36044 18.7688L4.40254 14.9474L8.00963 12.6164L8.22523 8.32749L12.5135 8.11252L14.8445 4.50543L18.6665 6.46396L22.4886 4.50543L24.8196 8.11252L29.1078 8.32749L29.3234 12.6164L32.9305 14.9474L30.9726 18.7688L32.9305 22.5909ZM17.7948 20.7211L17.4717 19.5137L19.8276 18.8825L19.4471 17.4614L17.0911 18.0926L16.8099 17.0415L19.3121 16.3703L18.9252 14.9299L14.6614 16.0722L16.4199 22.634L20.8194 21.4554L20.4338 20.0143L17.7954 20.7211H17.7948ZM26.3844 12.9313L26.6394 15.4404C26.7312 16.2503 26.8206 17.0509 26.9212 17.817L26.9025 17.822C26.6238 17.1188 26.3321 16.4209 26.0276 15.7285L24.9433 13.3175L23.0648 13.8206L23.2897 16.3372C23.361 17.1846 23.4354 18.0095 23.5272 18.7788L23.5078 18.7838C23.2273 18.1276 22.8785 17.2927 22.558 16.5653L21.5268 14.2324L19.6377 14.7386L22.9054 20.896L24.8521 20.3742L24.6596 17.6714C24.6227 17.0659 24.544 16.4191 24.444 15.621L24.464 15.616C24.7122 16.2548 24.979 16.8863 25.2639 17.5096L26.39 19.9624L28.3079 19.4487L28.1654 12.4539L26.3844 12.9313Z" fill="url(#paint0_linear_6879_23266)"/>
<defs>
<linearGradient id="paint0_linear_6879_23266" x1="0.333008" y1="18.7691" x2="37" y2="18.7691" gradientUnits="userSpaceOnUse">
<stop stop-color="#E72828"/>
<stop offset="1" stop-color="#FF5858"/>
</linearGradient>
</defs>
</svg>
