<svg width="28" height="28" viewBox="0 0 28 28" fill="none" xmlns="http://www.w3.org/2000/svg">
<path d="M0 27.999L28 -0.000976562V15.999C28 22.6264 22.6274 27.999 16 27.999H0Z" fill="#468CFF"/>
<path d="M23.0009 16.4169C22.7363 16.1387 22.3025 16.1335 22.0321 16.4051L17.3632 21.0916L14.9519 18.6127C14.7015 18.3551 14.2817 18.3694 14.014 18.6444C13.7462 18.9195 13.7323 19.3512 13.983 19.6088L16.9305 22.6388C17.1808 22.8962 17.6007 22.8819 17.8684 22.6068C17.9297 22.5438 17.9757 22.4724 18.0101 22.3969C18.0366 22.3771 18.063 22.3582 18.0871 22.3339L22.9895 17.413C23.2603 17.1411 23.2652 16.6954 23.001 16.4169L23.0009 16.4169Z" fill="white"/>
</svg>
