<svg width="24" height="25" viewBox="0 0 24 25" fill="none" xmlns="http://www.w3.org/2000/svg">
<path d="M15.2578 12.6027L22.0003 16.8652V8.16016L15.2578 12.6027Z" fill="#2792FD"/>
<path d="M2 8.16016V16.8652L8.7425 12.6027L2 8.16016Z" fill="#2792FD"/>
<path d="M20.7496 5.625H3.24961C2.62586 5.625 2.13086 6.09 2.03711 6.68875L11.9996 13.2525L21.9621 6.68875C21.8684 6.09 21.3734 5.625 20.7496 5.625Z" fill="#75B1FF"/>
<path d="M14.1125 13.3567L12.3438 14.5217C12.2388 14.5905 12.12 14.6242 12 14.6242C11.88 14.6242 11.7613 14.5905 11.6563 14.5217L9.88754 13.3555L2.04004 18.3192C2.13629 18.913 2.62879 19.3742 3.25004 19.3742H20.75C21.3713 19.3742 21.8638 18.913 21.96 18.3192L14.1125 13.3567Z" fill="#2792FD"/>
</svg>
