<svg width="15" height="22" viewBox="0 0 13 19" fill="none" xmlns="http://www.w3.org/2000/svg">
<path d="M11.5946 0H1.40541C0.630237 0 0 0.608594 0 1.35714V17.6429C0 18.3914 0.630237 19 1.40541 19H11.5946C12.3698 19 13 18.3914 13 17.6429V1.35714C13 0.608594 12.3698 0 11.5946 0ZM11.4189 17.4732H1.58108V1.52679H11.4189V17.4732ZM5.62162 15.3103C5.62162 15.5352 5.71416 15.751 5.87889 15.91C6.04362 16.0691 6.26704 16.1585 6.5 16.1585C6.73296 16.1585 6.95638 16.0691 7.12111 15.91C7.28584 15.751 7.37838 15.5352 7.37838 15.3103C7.37838 15.0853 7.28584 14.8696 7.12111 14.7105C6.95638 14.5514 6.73296 14.4621 6.5 14.4621C6.26704 14.4621 6.04362 14.5514 5.87889 14.7105C5.71416 14.8696 5.62162 15.0853 5.62162 15.3103Z" fill="#468CFF"/>
</svg>
