<svg width="25" height="24" viewBox="0 0 18 17" fill="none" xmlns="http://www.w3.org/2000/svg">
<path d="M2.7 6.25688C2.7 4.59745 3.36375 3.00599 4.54523 1.8326C5.72671 0.659205 7.32914 0 9 0C10.6709 0 12.2733 0.659205 13.4548 1.8326C14.6363 3.00599 15.3 4.59745 15.3 6.25688V7.18201C16.8264 7.39921 18 8.70332 18 10.2792V10.5026C18 12.0892 16.6221 13.48 15.0012 13.4058C14.3352 15.3008 12.6414 16.5781 10.8135 16.9016C10.3905 17.0554 9.8901 16.983 9.45 16.983C9.09196 16.983 8.74858 16.8417 8.49541 16.5903C8.24223 16.3388 8.1 15.9978 8.1 15.6422C8.1 15.2866 8.24223 14.9456 8.49541 14.6941C8.74858 14.4427 9.09196 14.3014 9.45 14.3014C10.1637 14.3014 10.9539 14.1987 11.4363 14.8458C12.6027 14.2943 13.5 13.1296 13.5 11.6199V6.25688C13.5 5.07158 13.0259 3.93482 12.182 3.09668C11.3381 2.25854 10.1935 1.78768 9 1.78768C7.80653 1.78768 6.66193 2.25854 5.81802 3.09668C4.97411 3.93482 4.5 5.07158 4.5 6.25688V11.8434C4.5 12.2582 4.33406 12.6561 4.03869 12.9495C3.74332 13.2428 3.34272 13.4076 2.925 13.4076C2.14924 13.4076 1.40526 13.1015 0.856713 12.5568C0.308169 12.012 1.03868e-07 11.2731 1.03868e-07 10.5026V10.2792C-0.000194356 9.52674 0.272663 8.79946 0.768559 8.23062C1.26445 7.66178 1.95016 7.2895 2.7 7.18201V6.25688Z" fill="#468CFF"/>
</svg>
