<svg width="23" height="18" viewBox="0 0 23 18" fill="none" xmlns="http://www.w3.org/2000/svg">
<path d="M2.25708 0H20.312C20.9043 0.00125804 21.4725 0.23477 21.8945 0.650376C22.3166 1.06598 22.5588 1.63053 22.5691 2.22275L11.2888 8.50911L0.0102982 2.23048C0.0157205 1.63777 0.25469 1.07113 0.675336 0.653534C1.09598 0.235941 1.66435 0.00110506 2.25708 0ZM0.0102982 4.63603L0 15.7515C0.00294684 16.3484 0.241964 16.9199 0.664856 17.3412C1.08775 17.7625 1.66016 17.9993 2.25708 18H20.312C21.5538 18 22.5691 16.9882 22.5691 15.7515V4.63088L11.5549 10.6229C11.4721 10.6685 11.3791 10.6925 11.2845 10.6925C11.19 10.6925 11.097 10.6685 11.0142 10.6229L0.0102982 4.63603Z" fill="#468CFF"/>
</svg>
