<svg width="27" height="27" viewBox="0 0 27 27" fill="none" xmlns="http://www.w3.org/2000/svg">
<path d="M7.87549 17.8299L6.49648 19.2089C6.24336 19.462 6.24336 19.876 6.49648 20.1291C6.74961 20.3822 7.16357 20.3822 7.4167 20.1291L8.7957 18.7501C9.04883 18.497 9.04883 18.083 8.7957 17.8299C8.54258 17.5768 8.12861 17.5768 7.87549 17.8299ZM7.47998 8.00283C7.73574 8.25859 8.15234 8.25859 8.40811 8.00283C8.66387 7.74707 8.66387 7.33047 8.40811 7.07471L7.01592 5.68252C6.76016 5.42676 6.34355 5.42676 6.08779 5.68252C5.83203 5.93828 5.83203 6.35488 6.08779 6.61064L7.47998 8.00283ZM5.63691 12.4536H3.66729C3.30342 12.4536 3.01074 12.7463 3.01074 13.1102C3.01074 13.474 3.30605 13.7667 3.66729 13.7667H5.63691C6.00078 13.7667 6.29346 13.474 6.29346 13.1102C6.29346 12.7489 5.99814 12.4536 5.63691 12.4536ZM13.5154 5.88818C13.8793 5.88818 14.172 5.59551 14.172 5.23164V3.26201C14.172 2.89814 13.8793 2.60547 13.5154 2.60547C13.1516 2.60547 12.8589 2.89814 12.8589 3.26201V5.23164C12.8589 5.59551 13.1542 5.88818 13.5154 5.88818ZM19.833 7.71279L21.212 6.33379C21.4651 6.08066 21.4651 5.6667 21.212 5.41357C20.9589 5.16045 20.5449 5.16045 20.2918 5.41357L18.9128 6.79258C18.6597 7.0457 18.6597 7.45967 18.9128 7.71279C19.1659 7.96855 19.5799 7.96855 19.833 7.71279ZM23.3636 12.4536H21.3939C21.0301 12.4536 20.7374 12.7463 20.7374 13.1102C20.7374 13.474 21.0301 13.7667 21.3939 13.7667H23.3636C23.7274 13.7667 24.0201 13.474 24.0201 13.1102C24.0201 12.7489 23.7274 12.4536 23.3636 12.4536ZM19.5509 18.2175C19.2951 17.9617 18.8785 17.9617 18.6228 18.2175C18.367 18.4732 18.367 18.8898 18.6228 19.1456L20.0149 20.5378C20.2707 20.7936 20.6873 20.7936 20.9431 20.5378C21.1988 20.282 21.1988 19.8654 20.9431 19.6097L19.5509 18.2175ZM13.5154 7.19863C10.2485 7.19863 7.60127 9.8459 7.60127 13.1128C7.60127 16.3797 10.2485 19.027 13.5154 19.027C16.7823 19.027 19.4296 16.3797 19.4296 13.1128C19.4296 9.8459 16.7823 7.19863 13.5154 7.19863ZM13.5154 20.3321C13.1516 20.3321 12.8589 20.6248 12.8589 20.9887V22.9583C12.8589 23.3222 13.1516 23.6148 13.5154 23.6148C13.8793 23.6148 14.172 23.3222 14.172 22.9583V20.9887C14.172 20.6274 13.8793 20.3321 13.5154 20.3321Z" fill="#45FDFB"/>
</svg>
