<svg width="23" height="23" viewBox="0 0 23 23" fill="none" xmlns="http://www.w3.org/2000/svg">
<path fill-rule="evenodd" clip-rule="evenodd" d="M17.1455 22.9485C17.3685 22.9827 17.5943 23 17.821 23C18.406 23 18.9854 22.8848 19.5259 22.6609C20.0665 22.437 20.5576 22.1088 20.9713 21.6951C21.385 21.2814 21.7132 20.7902 21.9371 20.2497C22.161 19.7092 22.2762 19.1298 22.2762 18.5448C22.2762 17.9597 22.161 17.3803 21.9371 16.8398C21.7132 16.2993 21.385 15.8081 20.9713 15.3944C20.5576 14.9807 20.0665 14.6525 19.5259 14.4286C18.9854 14.2047 18.406 14.0895 17.821 14.0895C17.2359 14.0895 16.6566 14.2047 16.116 14.4286C15.5755 14.6525 15.0844 14.9807 14.6706 15.3944C14.3338 15.7313 14.0536 16.1195 13.8403 16.5438C10.7293 14.4782 8.11557 11.7504 6.18536 8.56084C6.71106 8.33931 7.19437 8.01679 7.60558 7.60558C8.4411 6.77006 8.91049 5.63685 8.91049 4.45524C8.91049 3.27364 8.4411 2.14043 7.60558 1.30491C6.77006 0.469391 5.63685 0 4.45525 0C3.27364 0 2.14043 0.469391 1.30491 1.30491C0.46989 2.13993 0.000561113 3.27228 1.49167e-07 4.45312C-1.86458e-07 4.45383 1.49167e-07 4.45454 1.49167e-07 4.45524C1.49167e-07 5.15445 0.16436 5.8367 0.471683 6.45036C1.49129 10.0631 3.35455 13.3934 5.91969 16.1606C8.67489 19.1329 12.139 21.347 15.9788 22.6013C16.0242 22.6219 16.0699 22.6418 16.116 22.6609C16.4441 22.7967 16.7864 22.8926 17.1357 22.947C17.1389 22.9479 17.1422 22.9487 17.1455 22.9496V22.9485Z" fill="#468CFF"/>
</svg>
