<svg width="64" height="64" viewBox="0 0 64 64" fill="none" xmlns="http://www.w3.org/2000/svg">
<path d="M31.6897 31.6807C22.9459 31.6807 15.8494 24.5933 15.8494 15.8403C15.8494 7.08742 22.9459 0 31.6897 0C40.4336 0 47.5301 7.09647 47.5301 15.8403C47.5301 24.5842 40.4336 31.6807 31.6897 31.6807ZM61.6687 46.3172C62.1756 47.4124 62.5286 48.9964 62.8364 51.0964C62.9902 52.1645 63.126 53.296 63.2346 54.4365C63.2708 54.8347 63.307 55.1968 63.3342 55.5317C63.3523 55.7308 63.3614 55.8757 63.3704 55.9662L63.3795 56.1744C63.3795 60.148 60.1571 63.3704 56.1834 63.3704H7.19604C3.22238 63.3704 0 60.139 0 56.1744L0.00905218 55.9662C0.0181038 55.8847 0.0271549 55.7399 0.0452581 55.5317C0.072413 55.1968 0.10862 54.8347 0.144827 54.4365C0.253446 53.305 0.38922 52.1645 0.543097 51.0964C0.850852 48.9964 1.20387 47.4124 1.71076 46.3172C3.92841 41.5107 20.2213 34.5591 31.6897 34.5591C43.1581 34.5591 59.4511 41.5107 61.6687 46.3172Z" fill="#C2C2C2"/>
<path d="M31.6897 31.6807C22.9459 31.6807 15.8494 24.5933 15.8494 15.8403C15.8494 7.08742 22.9459 0 31.6897 0C40.4336 0 47.5301 7.09647 47.5301 15.8403C47.5301 24.5842 40.4336 31.6807 31.6897 31.6807ZM61.6687 46.3172C62.1756 47.4124 62.5286 48.9964 62.8364 51.0964C62.9902 52.1645 63.126 53.296 63.2346 54.4365C63.2708 54.8347 63.307 55.1968 63.3342 55.5317C63.3523 55.7308 63.3614 55.8757 63.3704 55.9662L63.3795 56.1744C63.3795 60.148 60.1571 63.3704 56.1834 63.3704H7.19604C3.22238 63.3704 0 60.139 0 56.1744L0.00905218 55.9662C0.0181038 55.8847 0.0271549 55.7399 0.0452581 55.5317C0.072413 55.1968 0.10862 54.8347 0.144827 54.4365C0.253446 53.305 0.38922 52.1645 0.543097 51.0964C0.850852 48.9964 1.20387 47.4124 1.71076 46.3172C3.92841 41.5107 20.2213 34.5591 31.6897 34.5591C43.1581 34.5591 59.4511 41.5107 61.6687 46.3172Z" fill="url(#paint0_linear_3093_148)"/>
<path d="M31.6897 31.6807C22.9459 31.6807 15.8494 24.5933 15.8494 15.8403C15.8494 7.08742 22.9459 0 31.6897 0C40.4336 0 47.5301 7.09647 47.5301 15.8403C47.5301 24.5842 40.4336 31.6807 31.6897 31.6807ZM61.6687 46.3172C62.1756 47.4124 62.5286 48.9964 62.8364 51.0964C62.9902 52.1645 63.126 53.296 63.2346 54.4365C63.2708 54.8347 63.307 55.1968 63.3342 55.5317C63.3523 55.7308 63.3614 55.8757 63.3704 55.9662L63.3795 56.1744C63.3795 60.148 60.1571 63.3704 56.1834 63.3704H7.19604C3.22238 63.3704 0 60.139 0 56.1744L0.00905218 55.9662C0.0181038 55.8847 0.0271549 55.7399 0.0452581 55.5317C0.072413 55.1968 0.10862 54.8347 0.144827 54.4365C0.253446 53.305 0.38922 52.1645 0.543097 51.0964C0.850852 48.9964 1.20387 47.4124 1.71076 46.3172C3.92841 41.5107 20.2213 34.5591 31.6897 34.5591C43.1581 34.5591 59.4511 41.5107 61.6687 46.3172Z" fill="url(#paint1_linear_3093_148)"/>
<defs>
<linearGradient id="paint0_linear_3093_148" x1="31.6897" y1="0" x2="31.6897" y2="63.3704" gradientUnits="userSpaceOnUse">
<stop stop-color="#7281B2"/>
<stop offset="1" stop-color="#2D3860"/>
</linearGradient>
<linearGradient id="paint1_linear_3093_148" x1="63.3795" y1="31.6852" x2="3.70688e-07" y2="31.6852" gradientUnits="userSpaceOnUse">
<stop stop-color="#3080F4"/>
<stop offset="1" stop-color="#70B1FF"/>
</linearGradient>
</defs>
</svg>
