<svg width="60" height="60" viewBox="0 0 60 60" fill="none" xmlns="http://www.w3.org/2000/svg">
<path d="M32.824 1.02446L55.7029 17.4458C56.8096 18.2401 57.7112 19.2865 58.3333 20.4984C58.9553 21.7103 59.2798 23.0529 59.28 24.4151V50.8961C59.28 55.6346 55.4385 59.4761 50.7 59.4761H39V46.9961C39 41.827 34.8091 37.6361 29.64 37.6361C24.4709 37.6361 20.28 41.827 20.28 46.9961V59.4761H8.58C3.8415 59.4761 0 55.6346 0 50.8961V24.4159C5.89574e-05 23.0535 0.324528 21.7108 0.946558 20.4987C1.56859 19.2867 2.4703 18.2402 3.57708 17.4458L26.456 1.02446C27.3841 0.358304 28.4976 0 29.64 0C30.7824 0 31.8959 0.358304 32.824 1.02446Z" fill="url(#paint0_linear_3093_157)"/>
<path d="M32.824 1.02446L55.7029 17.4458C56.8096 18.2401 57.7112 19.2865 58.3333 20.4984C58.9553 21.7103 59.2798 23.0529 59.28 24.4151V50.8961C59.28 55.6346 55.4385 59.4761 50.7 59.4761H39V46.9961C39 41.827 34.8091 37.6361 29.64 37.6361C24.4709 37.6361 20.28 41.827 20.28 46.9961V59.4761H8.58C3.8415 59.4761 0 55.6346 0 50.8961V24.4159C5.89574e-05 23.0535 0.324528 21.7108 0.946558 20.4987C1.56859 19.2867 2.4703 18.2402 3.57708 17.4458L26.456 1.02446C27.3841 0.358304 28.4976 0 29.64 0C30.7824 0 31.8959 0.358304 32.824 1.02446Z" fill="url(#paint1_linear_3093_157)"/>
<defs>
<linearGradient id="paint0_linear_3093_157" x1="59.28" y1="29.7381" x2="3.46711e-07" y2="29.7381" gradientUnits="userSpaceOnUse">
<stop stop-color="#3080F4"/>
<stop offset="1" stop-color="#70B1FF"/>
</linearGradient>
<linearGradient id="paint1_linear_3093_157" x1="29.64" y1="0" x2="29.64" y2="59.4761" gradientUnits="userSpaceOnUse">
<stop stop-color="#7281B2"/>
<stop offset="1" stop-color="#2D3860"/>
</linearGradient>
</defs>
</svg>
