<svg width="64" height="64" viewBox="0 0 64 64" fill="none" xmlns="http://www.w3.org/2000/svg">
<path fill-rule="evenodd" clip-rule="evenodd" d="M23.5744 8.514L27.8809 15.84H27.72H26.73H18.81C16.0751 15.84 13.86 13.6249 13.86 10.89C13.86 8.15513 16.0751 5.94 18.81 5.94H19.0823C20.9261 5.94 22.6463 6.91763 23.5744 8.514ZM31.68 10.5806L28.6976 5.50688C26.6929 2.09138 23.0299 0 19.0823 0H18.81C12.7958 0 7.92 4.87575 7.92 10.89C7.92 12.6724 8.34826 14.3549 9.10748 15.84H3.96C1.76963 15.84 0 17.6096 0 19.8V27.72C0 29.9104 1.76963 31.68 3.96 31.68L27.72 31.68H30.1714V16.5943H34.32V31.68H35.64L59.4 31.68C61.5904 31.68 63.36 29.9104 63.36 27.72V19.8C63.36 17.6096 61.5904 15.84 59.4 15.84H54.2525C55.0117 14.3549 55.44 12.6724 55.44 10.89C55.44 4.87575 50.5643 0 44.55 0H44.2778C40.3301 0 36.6671 2.09138 34.6624 5.4945L31.68 10.5806ZM30.1714 35.64H27.72H3.96V57.42C3.96 60.6994 6.62063 63.36 9.9 63.36H27.72H30.1714V35.64ZM34.32 63.36V35.64H35.64H59.4V57.42C59.4 60.6994 56.7394 63.36 53.46 63.36H35.64H34.32ZM39.7856 8.514C40.7261 6.91763 42.4339 5.94 44.2778 5.94H44.55C47.2849 5.94 49.5 8.15513 49.5 10.89C49.5 13.6249 47.2849 15.84 44.55 15.84H35.4791L39.7856 8.514Z" fill="#C2C2C2"/>
<path fill-rule="evenodd" clip-rule="evenodd" d="M23.5744 8.514L27.8809 15.84H27.72H26.73H18.81C16.0751 15.84 13.86 13.6249 13.86 10.89C13.86 8.15513 16.0751 5.94 18.81 5.94H19.0823C20.9261 5.94 22.6463 6.91763 23.5744 8.514ZM31.68 10.5806L28.6976 5.50688C26.6929 2.09138 23.0299 0 19.0823 0H18.81C12.7958 0 7.92 4.87575 7.92 10.89C7.92 12.6724 8.34826 14.3549 9.10748 15.84H3.96C1.76963 15.84 0 17.6096 0 19.8V27.72C0 29.9104 1.76963 31.68 3.96 31.68L27.72 31.68H30.1714V16.5943H34.32V31.68H35.64L59.4 31.68C61.5904 31.68 63.36 29.9104 63.36 27.72V19.8C63.36 17.6096 61.5904 15.84 59.4 15.84H54.2525C55.0117 14.3549 55.44 12.6724 55.44 10.89C55.44 4.87575 50.5643 0 44.55 0H44.2778C40.3301 0 36.6671 2.09138 34.6624 5.4945L31.68 10.5806ZM30.1714 35.64H27.72H3.96V57.42C3.96 60.6994 6.62063 63.36 9.9 63.36H27.72H30.1714V35.64ZM34.32 63.36V35.64H35.64H59.4V57.42C59.4 60.6994 56.7394 63.36 53.46 63.36H35.64H34.32ZM39.7856 8.514C40.7261 6.91763 42.4339 5.94 44.2778 5.94H44.55C47.2849 5.94 49.5 8.15513 49.5 10.89C49.5 13.6249 47.2849 15.84 44.55 15.84H35.4791L39.7856 8.514Z" fill="url(#paint0_linear_3093_166)"/>
<path fill-rule="evenodd" clip-rule="evenodd" d="M23.5744 8.514L27.8809 15.84H27.72H26.73H18.81C16.0751 15.84 13.86 13.6249 13.86 10.89C13.86 8.15513 16.0751 5.94 18.81 5.94H19.0823C20.9261 5.94 22.6463 6.91763 23.5744 8.514ZM31.68 10.5806L28.6976 5.50688C26.6929 2.09138 23.0299 0 19.0823 0H18.81C12.7958 0 7.92 4.87575 7.92 10.89C7.92 12.6724 8.34826 14.3549 9.10748 15.84H3.96C1.76963 15.84 0 17.6096 0 19.8V27.72C0 29.9104 1.76963 31.68 3.96 31.68L27.72 31.68H30.1714V16.5943H34.32V31.68H35.64L59.4 31.68C61.5904 31.68 63.36 29.9104 63.36 27.72V19.8C63.36 17.6096 61.5904 15.84 59.4 15.84H54.2525C55.0117 14.3549 55.44 12.6724 55.44 10.89C55.44 4.87575 50.5643 0 44.55 0H44.2778C40.3301 0 36.6671 2.09138 34.6624 5.4945L31.68 10.5806ZM30.1714 35.64H27.72H3.96V57.42C3.96 60.6994 6.62063 63.36 9.9 63.36H27.72H30.1714V35.64ZM34.32 63.36V35.64H35.64H59.4V57.42C59.4 60.6994 56.7394 63.36 53.46 63.36H35.64H34.32ZM39.7856 8.514C40.7261 6.91763 42.4339 5.94 44.2778 5.94H44.55C47.2849 5.94 49.5 8.15513 49.5 10.89C49.5 13.6249 47.2849 15.84 44.55 15.84H35.4791L39.7856 8.514Z" fill="url(#paint1_linear_3093_166)"/>
<defs>
<linearGradient id="paint0_linear_3093_166" x1="31.68" y1="0" x2="31.68" y2="63.36" gradientUnits="userSpaceOnUse">
<stop stop-color="#7281B2"/>
<stop offset="1" stop-color="#2D3860"/>
</linearGradient>
<linearGradient id="paint1_linear_3093_166" x1="63.36" y1="31.68" x2="3.70574e-07" y2="31.68" gradientUnits="userSpaceOnUse">
<stop stop-color="#3080F4"/>
<stop offset="1" stop-color="#70B1FF"/>
</linearGradient>
</defs>
</svg>
