<svg width="68" height="64" viewBox="0 0 68 64" fill="none" xmlns="http://www.w3.org/2000/svg">
<path d="M33.8816 0C34.8397 0 35.747 0.421647 36.3607 1.14824L50.6383 18.112L62.7475 10.1195C63.2835 9.76676 63.9119 9.58033 64.5536 9.58368C65.1953 9.58702 65.8217 9.78 66.3541 10.1384C67.4402 10.8706 67.9691 12.1826 67.6905 13.4551L59.6228 50.1892C59.4627 50.9052 59.0629 51.5451 58.4895 52.0028C57.9161 52.4605 57.2035 52.7085 56.4698 52.7059H11.2934C10.5597 52.7085 9.84712 52.4605 9.2737 52.0028C8.70029 51.5451 8.30045 50.9052 8.14042 50.1892L0.0726553 13.4551C-0.0628915 12.8319 -0.0079283 12.1825 0.230405 11.591C0.468739 10.9995 0.879428 10.4934 1.40913 10.1384C1.94147 9.78 2.56787 9.58702 3.20957 9.58368C3.85128 9.58033 4.47966 9.76676 5.01571 10.1195L17.1249 18.112L31.4025 1.14824C32.0181 0.421647 32.9235 0 33.8816 0ZM7.52866 60.8621C7.52866 59.1304 9.00442 57.7261 10.8228 57.7261H56.9404C58.1169 57.7261 59.2049 58.3228 59.7941 59.2941C60.0828 59.7665 60.2357 60.3094 60.2357 60.8631C60.2357 61.4167 60.0828 61.9596 59.7941 62.432C59.2049 63.4014 58.1188 64 56.9404 64H10.8228C9.00442 64 7.52866 62.5958 7.52866 60.8621ZM28.9404 38.9026C28.9404 40.6344 30.4162 42.0386 32.2345 42.0386H35.5287C37.347 42.0386 38.8228 40.6344 38.8228 38.9026C38.8228 37.1708 37.347 35.7647 35.5287 35.7647H32.2345C30.4162 35.7647 28.9404 37.1689 28.9404 38.9026Z" fill="#C2C2C2"/>
<path d="M33.8816 0C34.8397 0 35.747 0.421647 36.3607 1.14824L50.6383 18.112L62.7475 10.1195C63.2835 9.76676 63.9119 9.58033 64.5536 9.58368C65.1953 9.58702 65.8217 9.78 66.3541 10.1384C67.4402 10.8706 67.9691 12.1826 67.6905 13.4551L59.6228 50.1892C59.4627 50.9052 59.0629 51.5451 58.4895 52.0028C57.9161 52.4605 57.2035 52.7085 56.4698 52.7059H11.2934C10.5597 52.7085 9.84712 52.4605 9.2737 52.0028C8.70029 51.5451 8.30045 50.9052 8.14042 50.1892L0.0726553 13.4551C-0.0628915 12.8319 -0.0079283 12.1825 0.230405 11.591C0.468739 10.9995 0.879428 10.4934 1.40913 10.1384C1.94147 9.78 2.56787 9.58702 3.20957 9.58368C3.85128 9.58033 4.47966 9.76676 5.01571 10.1195L17.1249 18.112L31.4025 1.14824C32.0181 0.421647 32.9235 0 33.8816 0ZM7.52866 60.8621C7.52866 59.1304 9.00442 57.7261 10.8228 57.7261H56.9404C58.1169 57.7261 59.2049 58.3228 59.7941 59.2941C60.0828 59.7665 60.2357 60.3094 60.2357 60.8631C60.2357 61.4167 60.0828 61.9596 59.7941 62.432C59.2049 63.4014 58.1188 64 56.9404 64H10.8228C9.00442 64 7.52866 62.5958 7.52866 60.8621ZM28.9404 38.9026C28.9404 40.6344 30.4162 42.0386 32.2345 42.0386H35.5287C37.347 42.0386 38.8228 40.6344 38.8228 38.9026C38.8228 37.1708 37.347 35.7647 35.5287 35.7647H32.2345C30.4162 35.7647 28.9404 37.1689 28.9404 38.9026Z" fill="url(#paint0_linear_3093_185)"/>
<defs>
<linearGradient id="paint0_linear_3093_185" x1="33.882" y1="0" x2="33.882" y2="64" gradientUnits="userSpaceOnUse">
<stop stop-color="#7281B2"/>
<stop offset="1" stop-color="#2D3860"/>
</linearGradient>
</defs>
</svg>
