<svg width="64" height="62" viewBox="0 0 64 62" fill="none" xmlns="http://www.w3.org/2000/svg">
<path d="M63.3611 54.8206C63.3611 55.7045 63.21 56.5303 62.9076 57.2979C62.6052 58.0654 62.1749 58.74 61.6166 59.3215C61.0584 59.903 60.4071 60.3566 59.6628 60.6822C58.9184 61.0079 58.1043 61.1707 57.2204 61.1707H6.55941C5.67552 61.1707 4.83815 61.0079 4.0473 60.6822C3.25645 60.3566 2.55864 59.903 1.95387 59.3215C1.3491 58.74 0.872262 58.0654 0.523358 57.2979C0.174453 56.5303 0 55.7045 0 54.8206V19.9999C0 18.2321 0.616399 16.7318 1.8492 15.499C3.08199 14.2662 4.58228 13.6498 6.35007 13.6498H57.0111C58.7789 13.6498 60.2792 14.2662 61.512 15.499C62.7447 16.7318 63.3611 18.2321 63.3611 19.9999V29.4901H47.5209C45.7531 29.4901 44.2528 30.0949 43.02 31.3044C41.7872 32.514 41.1708 34.0026 41.1708 35.7704C41.2173 36.98 41.4732 38.0499 41.9384 38.9803C42.3105 39.7712 42.9269 40.4923 43.7876 41.1436C44.6482 41.7948 45.8926 42.1205 47.5209 42.1205H63.3611V54.8206ZM53.8709 10.4399H22.1904C24.7025 9.13734 27.075 7.88128 29.308 6.67174C31.2619 5.64829 33.1925 4.62483 35.0998 3.60138C37.0072 2.57792 38.4958 1.78707 39.5658 1.22883C41.194 0.344934 42.6478 -0.0621221 43.9271 0.00765889C45.2065 0.0774399 46.2881 0.298413 47.172 0.670578C48.1954 1.18231 49.0793 1.85685 49.8236 2.69423L53.8709 10.4399ZM44.3807 35.7704C44.3807 34.8865 44.6831 34.1422 45.2879 33.5374C45.8926 32.9327 46.637 32.6303 47.5209 32.6303C48.4048 32.6303 49.1491 32.9327 49.7539 33.5374C50.3586 34.1422 50.661 34.8865 50.661 35.7704C50.661 36.6543 50.3586 37.4103 49.7539 38.0383C49.1491 38.6663 48.4048 38.9803 47.5209 38.9803C46.637 38.9803 45.8926 38.6663 45.2879 38.0383C44.6831 37.4103 44.3807 36.6543 44.3807 35.7704Z" fill="#C2C2C2"/>
<path d="M63.3611 54.8206C63.3611 55.7045 63.21 56.5303 62.9076 57.2979C62.6052 58.0654 62.1749 58.74 61.6166 59.3215C61.0584 59.903 60.4071 60.3566 59.6628 60.6822C58.9184 61.0079 58.1043 61.1707 57.2204 61.1707H6.55941C5.67552 61.1707 4.83815 61.0079 4.0473 60.6822C3.25645 60.3566 2.55864 59.903 1.95387 59.3215C1.3491 58.74 0.872262 58.0654 0.523358 57.2979C0.174453 56.5303 0 55.7045 0 54.8206V19.9999C0 18.2321 0.616399 16.7318 1.8492 15.499C3.08199 14.2662 4.58228 13.6498 6.35007 13.6498H57.0111C58.7789 13.6498 60.2792 14.2662 61.512 15.499C62.7447 16.7318 63.3611 18.2321 63.3611 19.9999V29.4901H47.5209C45.7531 29.4901 44.2528 30.0949 43.02 31.3044C41.7872 32.514 41.1708 34.0026 41.1708 35.7704C41.2173 36.98 41.4732 38.0499 41.9384 38.9803C42.3105 39.7712 42.9269 40.4923 43.7876 41.1436C44.6482 41.7948 45.8926 42.1205 47.5209 42.1205H63.3611V54.8206ZM53.8709 10.4399H22.1904C24.7025 9.13734 27.075 7.88128 29.308 6.67174C31.2619 5.64829 33.1925 4.62483 35.0998 3.60138C37.0072 2.57792 38.4958 1.78707 39.5658 1.22883C41.194 0.344934 42.6478 -0.0621221 43.9271 0.00765889C45.2065 0.0774399 46.2881 0.298413 47.172 0.670578C48.1954 1.18231 49.0793 1.85685 49.8236 2.69423L53.8709 10.4399ZM44.3807 35.7704C44.3807 34.8865 44.6831 34.1422 45.2879 33.5374C45.8926 32.9327 46.637 32.6303 47.5209 32.6303C48.4048 32.6303 49.1491 32.9327 49.7539 33.5374C50.3586 34.1422 50.661 34.8865 50.661 35.7704C50.661 36.6543 50.3586 37.4103 49.7539 38.0383C49.1491 38.6663 48.4048 38.9803 47.5209 38.9803C46.637 38.9803 45.8926 38.6663 45.2879 38.0383C44.6831 37.4103 44.3807 36.6543 44.3807 35.7704Z" fill="url(#paint0_linear_3093_160)"/>
<path d="M63.3611 54.8206C63.3611 55.7045 63.21 56.5303 62.9076 57.2979C62.6052 58.0654 62.1749 58.74 61.6166 59.3215C61.0584 59.903 60.4071 60.3566 59.6628 60.6822C58.9184 61.0079 58.1043 61.1707 57.2204 61.1707H6.55941C5.67552 61.1707 4.83815 61.0079 4.0473 60.6822C3.25645 60.3566 2.55864 59.903 1.95387 59.3215C1.3491 58.74 0.872262 58.0654 0.523358 57.2979C0.174453 56.5303 0 55.7045 0 54.8206V19.9999C0 18.2321 0.616399 16.7318 1.8492 15.499C3.08199 14.2662 4.58228 13.6498 6.35007 13.6498H57.0111C58.7789 13.6498 60.2792 14.2662 61.512 15.499C62.7447 16.7318 63.3611 18.2321 63.3611 19.9999V29.4901H47.5209C45.7531 29.4901 44.2528 30.0949 43.02 31.3044C41.7872 32.514 41.1708 34.0026 41.1708 35.7704C41.2173 36.98 41.4732 38.0499 41.9384 38.9803C42.3105 39.7712 42.9269 40.4923 43.7876 41.1436C44.6482 41.7948 45.8926 42.1205 47.5209 42.1205H63.3611V54.8206ZM53.8709 10.4399H22.1904C24.7025 9.13734 27.075 7.88128 29.308 6.67174C31.2619 5.64829 33.1925 4.62483 35.0998 3.60138C37.0072 2.57792 38.4958 1.78707 39.5658 1.22883C41.194 0.344934 42.6478 -0.0621221 43.9271 0.00765889C45.2065 0.0774399 46.2881 0.298413 47.172 0.670578C48.1954 1.18231 49.0793 1.85685 49.8236 2.69423L53.8709 10.4399ZM44.3807 35.7704C44.3807 34.8865 44.6831 34.1422 45.2879 33.5374C45.8926 32.9327 46.637 32.6303 47.5209 32.6303C48.4048 32.6303 49.1491 32.9327 49.7539 33.5374C50.3586 34.1422 50.661 34.8865 50.661 35.7704C50.661 36.6543 50.3586 37.4103 49.7539 38.0383C49.1491 38.6663 48.4048 38.9803 47.5209 38.9803C46.637 38.9803 45.8926 38.6663 45.2879 38.0383C44.6831 37.4103 44.3807 36.6543 44.3807 35.7704Z" fill="url(#paint1_linear_3093_160)"/>
<defs>
<linearGradient id="paint0_linear_3093_160" x1="31.6806" y1="0" x2="31.6806" y2="61.1707" gradientUnits="userSpaceOnUse">
<stop stop-color="#7281B2"/>
<stop offset="1" stop-color="#2D3860"/>
</linearGradient>
<linearGradient id="paint1_linear_3093_160" x1="63.3611" y1="30.5854" x2="3.70581e-07" y2="30.5854" gradientUnits="userSpaceOnUse">
<stop stop-color="#3080F4"/>
<stop offset="1" stop-color="#70B1FF"/>
</linearGradient>
</defs>
</svg>
