<svg width="114" height="43" viewBox="0 0 114 43" fill="none" xmlns="http://www.w3.org/2000/svg">
<g clip-path="url(#clip0_1_20848)">
<mask id="mask0_1_20848" style="mask-type:luminance" maskUnits="userSpaceOnUse" x="0" y="-1" width="101" height="44">
<path d="M100.47 -0.00195312H0.00585938V42.157H100.47V-0.00195312Z" fill="white"/>
</mask>
<g mask="url(#mask0_1_20848)">
<path d="M79.3866 28.7045H78.7845C78.4836 28.7045 78.1826 28.6687 77.915 28.6329C77.614 28.5971 77.313 28.5255 77.0121 28.4539C76.3766 28.3106 75.7412 28.0958 75.1726 27.7736C74.6041 27.4872 74.1024 27.0933 73.6676 26.6279C73.166 26.0549 72.8315 25.4104 72.7312 24.6228C72.6643 24.2647 72.6643 23.9067 72.6978 23.5128C72.7312 23.2622 72.7647 23.0474 72.798 22.7968C72.865 22.5103 72.9653 22.2596 73.1325 22.009C73.4669 21.472 73.8349 21.0423 74.3365 20.6842C74.7044 20.4336 75.1058 20.183 75.5405 20.0397C75.6074 20.004 75.6743 19.9682 75.7746 19.9324C75.808 19.9324 75.808 19.8966 75.808 19.8608C75.808 19.8249 75.808 19.7891 75.7746 19.7891C75.7412 19.7533 75.7077 19.7533 75.6743 19.7175C75.4402 19.6101 75.206 19.5027 74.9719 19.3595C74.8047 19.2521 74.6375 19.1805 74.5037 19.073C74.0355 18.7508 73.7011 18.3212 73.4335 17.8199C73.2663 17.5334 73.1995 17.2112 73.1325 16.8532C73.0991 16.6025 73.0991 16.3519 73.0991 16.1013C73.1325 15.5284 73.2663 14.9556 73.5339 14.4542C73.6676 14.1678 73.8683 13.9172 74.0689 13.6666C74.3365 13.3802 74.6375 13.0936 74.9719 12.8788C75.4067 12.5924 75.8749 12.3418 76.3432 12.1627C76.8448 11.9837 77.3465 11.8405 77.8816 11.7689C78.0823 11.7331 78.3164 11.6973 78.517 11.6973C78.8514 11.6615 79.2193 11.6615 79.5538 11.6615C79.9551 11.6615 80.3564 11.6973 80.7578 11.7689C81.226 11.8405 81.7277 11.9479 82.1624 12.0912C82.6975 12.2702 83.2327 12.485 83.7008 12.8072C84.0688 13.0579 84.4366 13.3444 84.7376 13.7024C85.1055 14.132 85.4064 14.6333 85.5403 15.2062C85.6071 15.4926 85.674 15.7432 85.674 16.0296V16.4593C85.6406 17.068 85.4734 17.6409 85.139 18.1421C84.9049 18.5002 84.6038 18.8224 84.236 19.073C83.9015 19.3237 83.5671 19.5385 83.1992 19.6818L82.9985 19.7891C82.9651 19.7891 82.9651 19.8249 82.9651 19.8608C82.9651 19.8966 82.9651 19.9324 82.9985 19.9324C83.032 19.9324 83.0654 19.9682 83.0988 19.9682C83.1657 20.004 83.2327 20.004 83.266 20.0397C83.7343 20.2188 84.169 20.4694 84.6038 20.7917C85.1055 21.1497 85.4734 21.6151 85.7744 22.1523C85.9416 22.4745 86.0419 22.7968 86.0753 23.1548C86.1423 23.5128 86.1423 23.8708 86.1088 24.2647C86.0419 25.1598 85.7409 25.9118 85.1724 26.5562C84.771 26.9858 84.3362 27.3439 83.8346 27.6303C83.3999 27.881 82.8982 28.0958 82.4299 28.239C81.9952 28.3823 81.5604 28.4897 81.0922 28.5612C80.4902 28.6687 79.9217 28.7045 79.3866 28.7045ZM79.3866 21.0423C79.0856 21.0423 78.7845 21.0781 78.517 21.1497C77.8147 21.2929 77.313 21.7226 76.9451 22.3671C76.6107 22.9757 76.5773 23.5844 76.8448 24.1931C77.1458 24.9092 77.6475 25.3747 78.3164 25.5895C78.6508 25.6969 78.9852 25.7327 79.3197 25.7327C79.4869 25.7327 79.6541 25.6969 79.8214 25.6969C80.022 25.6969 80.2227 25.6253 80.3899 25.5895C81.1256 25.3747 81.5938 24.8376 81.8949 24.1215C82.0955 23.6202 82.0955 23.119 81.8614 22.6177C81.5938 21.9732 81.1256 21.5078 80.4902 21.2572C80.1558 21.0781 79.7545 21.0423 79.3866 21.0423ZM76.8114 16.7458V16.8532C76.8448 17.4261 77.0455 17.8915 77.4468 18.2137C77.8482 18.5718 78.3164 18.7866 78.818 18.8582C79.0856 18.894 79.3866 18.894 79.6541 18.8582C79.8882 18.8224 80.1223 18.7866 80.3564 18.6792C80.6575 18.5718 80.9249 18.4286 81.1591 18.2137C81.4601 17.9631 81.6608 17.6409 81.761 17.2112C81.828 16.9606 81.828 16.6741 81.7945 16.3877C81.7277 15.958 81.5604 15.6 81.226 15.2778C81.1591 15.2062 81.0922 15.1704 81.0253 15.1345C80.8247 14.9913 80.5905 14.8481 80.3564 14.7765C80.1223 14.7049 79.8882 14.6333 79.6541 14.5975C79.1859 14.5259 78.7177 14.5975 78.2829 14.7407C77.9484 14.8481 77.681 15.0271 77.4134 15.242C77.1458 15.4926 76.9451 15.779 76.8448 16.1371C76.8448 16.3519 76.8114 16.531 76.8114 16.7458Z" fill="url(#paint0_radial_1_20848)"/>
<path d="M93.729 28.7045H93.1271C92.8266 28.7045 92.5252 28.6687 92.2579 28.6329C91.9565 28.5971 91.656 28.5255 91.3547 28.4539C90.7196 28.3106 90.0836 28.0958 89.5154 27.7736C88.9468 27.4872 88.4451 27.0933 88.0104 26.6279C87.5088 26.0549 87.1743 25.4104 87.074 24.6228C87.0071 24.2647 87.0071 23.9067 87.0405 23.5128C87.074 23.2622 87.1074 23.0474 87.1408 22.7968C87.2077 22.5103 87.3081 22.2596 87.4753 22.009C87.8097 21.472 88.1777 21.0423 88.6793 20.6842C89.0472 20.4336 89.4485 20.183 89.8836 20.0397C89.95 20.004 90.0172 19.9682 90.1177 19.9324C90.1509 19.9324 90.1509 19.8966 90.1509 19.8608C90.1509 19.8249 90.1509 19.7891 90.1177 19.7891C90.0836 19.7533 90.0504 19.7533 90.0172 19.7175C89.7831 19.6101 89.5488 19.5027 89.3147 19.3595C89.1475 19.2521 88.9803 19.1805 88.8465 19.073C88.3783 18.7508 88.0438 18.3212 87.7763 17.8199C87.6091 17.5334 87.5422 17.2112 87.4753 16.8532C87.4419 16.6025 87.4419 16.3519 87.4419 16.1013C87.4753 15.5284 87.609 14.9556 87.8766 14.4542C88.0104 14.1678 88.211 13.9172 88.4117 13.6666C88.6793 13.3802 88.9803 13.0936 89.3147 12.8788C89.7499 12.5924 90.2182 12.3418 90.6855 12.1627C91.1878 11.9837 91.6892 11.8405 92.2247 11.7689C92.4248 11.7331 92.6589 11.6973 92.8598 11.6973C93.1944 11.6615 93.5622 11.6615 93.8967 11.6615C94.2977 11.6615 94.6996 11.6973 95.1005 11.7689C95.5688 11.8405 96.0702 11.9479 96.5052 12.0912C97.0407 12.2702 97.5753 12.485 98.0436 12.8072C98.4114 13.0579 98.7791 13.3444 99.0805 13.7024C99.4483 14.132 99.7497 14.6333 99.8833 15.2062C99.9497 15.4926 100.017 15.7432 100.017 16.0296V16.4593C99.9838 17.068 99.816 17.6409 99.4815 18.1421C99.2474 18.5002 98.9469 18.8224 98.5791 19.073C98.2445 19.3237 97.9099 19.5385 97.5422 19.6818L97.3412 19.7891C97.308 19.7891 97.308 19.8249 97.308 19.8608C97.308 19.8966 97.308 19.9324 97.3412 19.9324C97.3744 19.9324 97.4085 19.9682 97.4417 19.9682C97.5081 20.004 97.5753 20.004 97.6085 20.0397C98.0768 20.2188 98.5118 20.4694 98.9469 20.7917C99.4483 21.1497 99.816 21.6151 100.117 22.1523C100.284 22.4745 100.385 22.7968 100.418 23.1548C100.485 23.5128 100.485 23.8708 100.452 24.2647C100.385 25.1598 100.083 25.9118 99.5156 26.5562C99.1137 26.9858 98.6787 27.3439 98.1772 27.6303C97.7422 27.881 97.2408 28.0958 96.7725 28.239C96.3384 28.3823 95.9033 28.4897 95.4351 28.5612C94.8332 28.6687 94.2645 28.7045 93.729 28.7045ZM93.729 21.0423C93.4285 21.0423 93.1271 21.0781 92.8598 21.1497C92.1575 21.2929 91.656 21.7226 91.2883 22.3671C90.9537 22.9757 90.9196 23.5844 91.1878 24.1931C91.4883 24.9092 91.9906 25.3747 92.6589 25.5895C92.9935 25.6969 93.3281 25.7327 93.6626 25.7327C93.8295 25.7327 93.9972 25.6969 94.1641 25.6969C94.365 25.6969 94.565 25.6253 94.7328 25.5895C95.4683 25.3747 95.9365 24.8376 96.2379 24.1215C96.438 23.6202 96.4379 23.119 96.2038 22.6177C95.9365 21.9732 95.4683 21.5078 94.8332 21.2572C94.4986 21.0781 94.0968 21.0423 93.729 21.0423ZM91.1537 16.7458V16.8532C91.1878 17.4261 91.3878 17.8915 91.7897 18.2137C92.1907 18.5718 92.6589 18.7866 93.1612 18.8582C93.4285 18.894 93.729 18.894 93.9972 18.8582C94.2313 18.8224 94.4655 18.7866 94.6996 18.6792C95.0001 18.5718 95.2674 18.4286 95.5015 18.2137C95.8029 17.9631 96.0038 17.6409 96.1043 17.2112C96.1706 16.9606 96.1706 16.6741 96.1375 16.3877C96.0702 15.958 95.9033 15.6 95.5688 15.2778C95.5015 15.2062 95.4351 15.1704 95.3678 15.1345C95.1678 14.9913 94.9337 14.8481 94.6996 14.7765C94.4655 14.7049 94.2313 14.6333 93.9972 14.5975C93.529 14.5259 93.0607 14.5975 92.6257 14.7407C92.2911 14.8481 92.0238 15.0271 91.7565 15.242C91.4883 15.4926 91.2883 15.779 91.1878 16.1371C91.1878 16.3519 91.1537 16.531 91.1537 16.7458Z" fill="url(#paint1_radial_1_20848)"/>
<path d="M58.3213 20.2783V11.7377C58.3213 11.6996 58.359 11.6615 58.3966 11.6615H71.7009C71.7386 11.6615 71.7763 11.6996 71.7763 11.7377V15.1311C71.7763 15.1692 71.7386 15.2073 71.7009 15.2073H63.1832C63.1078 15.2073 63.0701 15.2455 63.0701 15.3598V18.6769C63.0701 18.7151 63.1078 18.7532 63.1455 18.7532H70.7964C70.8341 18.7532 70.8717 18.7913 70.8717 18.8295V21.4602C70.8717 21.4984 70.8341 21.5365 70.7964 21.5365H63.1832C63.1455 21.5365 63.1078 21.5747 63.1078 21.6128V28.5901C63.1078 28.6664 63.0701 28.7045 62.9947 28.7045H58.4344C58.3966 28.7045 58.359 28.6664 58.359 28.6283V28.3232C58.3213 25.7306 58.3213 22.9854 58.3213 20.2783Z" fill="url(#paint2_radial_1_20848)"/>
<path d="M49.759 11.6625H57.0513C57.4565 11.6625 57.4196 11.6249 57.4196 12.0011V14.8603C57.4196 15.1988 57.4565 15.1612 57.125 15.1612H52.4844C52.0792 15.1612 52.1161 15.1235 52.0792 15.5374V28.4411C52.0792 28.6166 51.9933 28.7045 51.8214 28.7045H47.5123C47.4755 28.7045 47.4386 28.6669 47.4386 28.6292V15.274C47.4386 15.2365 47.4018 15.1988 47.365 15.1988H42.2087C42.1719 15.1988 42.1719 15.1612 42.1719 15.1612V12.0387C42.1719 11.8381 42.2701 11.7377 42.4665 11.7377C44.8605 11.6625 47.3281 11.6625 49.759 11.6625Z" fill="url(#paint3_radial_1_20848)"/>
<mask id="mask1_1_20848" style="mask-type:luminance" maskUnits="userSpaceOnUse" x="0" y="-1" width="39" height="44">
<path d="M38.5964 -0.000610352H0.0253906V42.1584H38.5964V-0.000610352Z" fill="white"/>
</mask>
<g mask="url(#mask1_1_20848)">
<path d="M38.5875 0.32166V0.372168C38.5875 0.82674 38.4852 1.28131 38.3829 1.73589C38.2806 2.19046 38.1783 2.69553 37.9737 3.1501C37.7691 3.60468 37.5132 4.00874 37.104 4.3623C36.8482 4.61484 36.5413 4.76636 36.2344 4.91788C35.9786 5.01891 35.7228 5.17043 35.467 5.27144C35.0578 5.47347 34.7508 5.72601 34.3928 5.97855C33.9835 6.33211 33.5743 6.78668 33.2163 7.24125L33.165 7.29176V6.53414C33.165 6.07957 33.2163 5.625 33.3185 5.17043C33.472 4.56433 33.7278 4.05925 34.137 3.60468C34.4951 3.20061 34.9555 2.84706 35.4159 2.54401C35.7228 2.34198 36.0298 2.19046 36.3879 1.98843C36.8482 1.73589 37.2063 1.43283 37.6156 1.12979C37.9225 0.877248 38.1783 0.574201 38.434 0.220645C38.4682 0.186973 38.5023 0.1533 38.5364 0.119629C38.5875 0.220645 38.5875 0.271153 38.5875 0.32166Z" fill="url(#paint4_linear_1_20848)"/>
<path d="M33.1105 10.6485C33.1105 10.7495 33.1616 10.8505 33.1616 10.9516C33.2128 11.2546 33.2639 11.6082 33.3151 11.9112C33.3662 12.3658 33.3662 12.8204 33.3662 13.2245C33.3662 14.0326 33.2128 14.7902 32.957 15.5479C32.8547 15.9014 32.7012 16.255 32.4966 16.6085C32.2409 17.1136 31.9339 17.5682 31.5758 17.9722C31.2177 18.3763 30.7573 18.7298 30.297 19.0834C30.0923 19.2349 29.8365 19.3864 29.5807 19.4875C29.4273 19.5885 29.2226 19.639 29.0693 19.74C28.66 19.942 28.2507 20.043 27.8415 20.1441C27.4322 20.2451 27.023 20.3461 26.6138 20.3966C26.5626 20.3966 26.4603 20.3966 26.4091 20.4471C26.1534 20.4471 25.8464 20.4976 25.5907 20.4976H23.4933C21.3447 27.8717 19.3037 34.7914 17.2575 42.115L17.2166 42.1554C17.2166 32.7104 17.2012 23.5786 17.2012 14.0831H6.50977V14.0326C9.93715 9.78993 13.4157 5.54723 16.8943 1.30457C16.1781 4.133 15.4108 6.96145 14.5923 9.73943C14.6434 9.73943 16.7919 9.78993 16.9454 9.73943C16.9966 9.63843 17.0478 9.48684 17.0478 9.38583C17.3035 8.67872 17.6616 8.02212 18.1731 7.41602L18.9405 6.65841H18.9916C18.9916 6.69208 18.9746 6.72574 18.9405 6.75942C18.6847 7.31501 18.4801 7.9211 18.2755 8.5272C18.1731 8.93127 18.0709 9.33533 18.0197 9.73943C17.9685 9.99194 17.9685 10.2445 17.9685 10.497C17.9685 10.8505 18.0197 11.2041 18.122 11.5576C18.1731 11.7597 18.1731 11.9112 18.2243 12.1133C18.2755 12.4163 18.429 12.6689 18.5824 12.9214C18.787 13.2245 18.9916 13.5275 19.2475 13.8306C19.4521 14.0326 19.6567 14.1841 19.9124 14.3357C19.9636 14.3862 20.0659 14.3862 20.117 14.4367C20.117 14.4029 20.1 14.3693 20.0659 14.3357C19.9636 14.0831 19.8102 13.8811 19.7078 13.6286C19.4521 13.0224 19.1962 12.4163 19.094 11.8102C19.0428 11.5071 18.9916 11.2041 18.9405 10.8505V9.94143C18.9916 9.33533 19.094 8.67872 19.2986 8.07263C19.5543 7.41602 19.8613 6.75942 20.3728 6.25434C20.7821 5.79977 21.2936 5.39571 21.8052 5.14317C22.1633 4.94114 22.5213 4.78961 22.9305 4.6886C23.4933 4.48656 24.0049 4.38554 24.5676 4.28453C24.8233 4.23402 25.0279 4.18351 25.2326 4.133C25.4883 4.03199 25.7442 3.88047 25.8976 3.67844C26.051 3.47641 26.1022 3.27437 26.1534 3.02184C26.1534 2.76929 26.1022 2.51675 26.051 2.26421V2.1632C26.4091 2.46624 26.7161 2.76929 26.9207 3.17336C27.023 3.4259 27.1253 3.67844 27.1253 3.93097C27.1253 4.23402 27.1253 4.48656 27.023 4.78961C26.8695 5.09266 26.6649 5.3452 26.4091 5.54723C26.1022 5.79977 25.7442 5.90078 25.3349 6.0018C24.9768 6.05231 24.6187 6.15332 24.2606 6.30485C23.9025 6.45638 23.5956 6.65841 23.2887 6.91095C22.9818 7.21399 22.7259 7.56755 22.6237 8.02212C22.5725 8.32517 22.5725 8.62822 22.6237 8.93126C22.6237 8.93126 22.6237 8.98182 22.6748 9.03233C22.6748 8.98182 22.7259 8.93126 22.7259 8.93126C22.8794 8.62822 23.0329 8.32517 23.2887 8.12314C23.5956 7.82008 23.9537 7.61805 24.363 7.51704C24.721 7.41602 25.1303 7.36551 25.5395 7.41602H25.4883C25.0791 7.51704 24.6698 7.71907 24.3117 7.97161C23.9537 8.27466 23.6468 8.57771 23.4421 8.98183C23.3398 9.18383 23.2887 9.38583 23.2375 9.58793C23.1864 9.94143 23.1864 10.295 23.3398 10.6485C23.4421 10.9011 23.5445 11.1536 23.7491 11.3051C23.9025 11.4566 24.1071 11.6082 24.3117 11.6587C24.5676 11.7597 24.8233 11.8102 25.1303 11.8102H25.2326C25.5907 11.8102 25.9488 11.7597 26.2556 11.6587C26.5115 11.6082 26.7161 11.5071 26.9207 11.3051C27.1253 11.1536 27.2788 10.9011 27.3811 10.699C27.6881 10.0424 27.9438 9.38583 28.1484 8.67872C28.3019 8.22416 28.4042 7.71907 28.5065 7.2645C28.66 6.6079 28.8134 5.95129 29.018 5.29469C29.2226 4.6886 29.4785 4.13301 29.8365 3.62793C30.1946 3.07234 30.7062 2.61777 31.2689 2.26421C31.7293 1.96117 32.2409 1.75914 32.7524 1.65812C32.957 1.60761 33.1616 1.60761 33.3662 1.60761H34.0824C34.287 1.60761 34.4916 1.65812 34.7474 1.65812C34.7986 1.65812 34.8497 1.65812 34.9009 1.70863C34.7986 1.75914 34.6451 1.75913 34.5428 1.80964C33.9801 2.01167 33.5197 2.26421 33.0593 2.66827C32.4966 3.17336 32.0874 3.82996 31.8316 4.58758C31.7293 4.89063 31.6781 5.19368 31.5758 5.49672C31.4735 6.0018 31.3712 6.55739 31.2689 7.06247C31.2177 7.46653 31.1665 7.87059 31.1154 8.27466C31.0131 8.83025 30.9619 9.38583 30.8597 9.89093C30.7573 10.4465 30.6551 10.9516 30.4504 11.4566C30.2458 12.0122 29.9388 12.5173 29.5296 12.9719C29.2226 13.3255 28.8646 13.6286 28.4553 13.8306C27.8927 14.1841 27.2788 14.3862 26.6138 14.4872C26.3069 14.5377 26.051 14.5882 25.7442 14.5882C25.3861 14.6387 24.9768 14.5882 24.6187 14.5377C24.2095 14.4872 23.8514 14.3862 23.4421 14.2347C22.9818 14.0326 22.6237 13.7801 22.2656 13.477C22.0098 13.2245 21.754 12.9214 21.5494 12.5679C21.5494 12.5173 21.4982 12.5173 21.4471 12.4668V12.5173C21.5494 13.1235 21.7029 13.6791 22.061 14.1841C22.2656 14.4872 22.4702 14.7902 22.7259 15.0428C23.0329 15.3458 23.391 15.6489 23.8002 15.8509C24.1584 16.0529 24.5676 16.2045 24.9257 16.3055C25.3349 16.4065 25.6929 16.5075 26.1022 16.5075C26.2556 16.5075 26.4603 16.5075 26.6138 16.558H26.9207C27.7903 16.558 28.6088 16.4065 29.3761 16.0529C29.9388 15.8004 30.3992 15.4973 30.8597 15.0933C31.3712 14.6387 31.7804 14.0831 32.1385 13.477C32.4966 12.8204 32.7524 12.1133 32.8547 11.4061C32.9058 11.2546 32.9058 11.0526 32.957 10.9011C33.0252 10.7664 33.0763 10.6823 33.1105 10.6485Z" fill="url(#paint5_linear_1_20848)"/>
<path d="M17.0025 1.15648C16.9462 1.24235 13.3755 5.66179 11.6875 7.73261C10.1528 9.6519 8.56696 11.5712 7.0323 13.4905C6.98114 13.5915 6.87883 13.6925 6.82768 13.7936C6.77653 13.8441 6.82768 13.8946 6.87883 13.8946H17.2122C17.3145 13.8946 17.3145 13.9451 17.3657 14.0461V41.977H17.3145C17.3145 41.9265 17.2633 41.876 17.2633 41.8255C16.5472 39.3001 15.7799 36.7747 15.0637 34.1988C14.4498 32.1279 13.8871 30.1076 13.2733 28.0368C12.5571 25.6124 11.8921 23.1881 11.1759 20.7637C11.1247 20.6122 11.0736 20.4607 11.0224 20.3091C11.0224 20.2586 10.9713 20.2081 10.869 20.2081H4.57685C4.47454 20.2081 4.42338 20.1576 4.37224 20.1071C4.32108 20.0061 4.26993 19.9556 4.21877 19.8546C2.88873 17.9857 1.60985 16.0664 0.279816 14.1976C0.228661 14.0966 0.12635 13.9956 0.0751953 13.8946C0.0751953 13.7936 0.177506 13.7431 0.228661 13.7431C0.484437 13.541 0.791368 13.339 1.04715 13.0865C6.16267 9.24789 11.2782 5.35874 16.3938 1.52014C16.5216 1.43933 16.936 1.15143 16.9974 1.13123V1.15648H17.0025Z" fill="#0041A7"/>
<path d="M17.0345 1.13745L2.19437 16.8909L0.0253906 13.8048L16.3694 1.54656L17.0243 1.13745H17.0345Z" fill="url(#paint6_linear_1_20848)"/>
<path d="M16.8936 1.30457L4.44748 20.1188L2.25293 16.8913L16.8936 1.30457Z" fill="url(#paint7_linear_1_20848)"/>
<path d="M17.4143 13.9363L13.9102 17.4415L17.3734 42.0035L17.4143 13.9363Z" fill="url(#paint8_linear_1_20848)"/>
<path d="M11.002 20.2314L13.9382 17.4384L17.381 42.0004L11.002 20.2314Z" fill="url(#paint9_linear_1_20848)"/>
</g>
</g>
<path d="M78.4586 35.7927V36.7449C78.4224 37.3251 78.0778 37.6335 77.4249 37.6698H74.5957V32.0386H77.3161C78.0596 32.0568 78.4405 32.4013 78.4586 33.0724V33.9429C78.4586 34.36 78.2682 34.6683 77.8873 34.8678C78.2682 35.0854 78.4586 35.3937 78.4586 35.7927ZM77.3705 34.3509V33.5892C77.3161 33.2447 77.0531 33.0542 76.5816 33.0179H75.6839V34.3509H77.3705ZM77.3705 36.7449V35.9287C77.3161 35.5841 77.0622 35.3847 76.6088 35.3302H75.6839V36.7449H77.3705ZM82.5392 34.4598V36.0648H80.2541V36.7449H82.5392V37.6698H80.1996C79.5287 37.6516 79.184 37.3796 79.1659 36.8537V34.5414C79.184 33.8522 79.5196 33.4985 80.1724 33.4804H81.5055C82.1764 33.4985 82.5211 33.8249 82.5392 34.4598ZM80.2541 35.167H81.4782V34.8406C81.442 34.5322 81.2153 34.3691 80.7981 34.3509H80.2541V35.167ZM88.3607 34.3781V35.3575H86.0484V37.6698H84.9603V33.2084C84.9784 32.4467 85.3864 32.0568 86.1844 32.0386H88.4968V33.0179H86.8102C86.3567 33.0542 86.1029 33.2628 86.0484 33.6437V34.3781H88.3607ZM92.4685 34.4869V36.772C92.4506 37.3524 92.1151 37.6516 91.4621 37.6698H90.0475C89.3945 37.6698 89.068 37.3796 89.068 36.7992V34.4325C89.068 33.7978 89.4036 33.4804 90.0744 33.4804H91.4621C92.1151 33.4985 92.4506 33.834 92.4685 34.4869ZM91.3805 36.7449V35.0038C91.3625 34.6592 91.1266 34.4779 90.6727 34.4598H90.156V36.7449H91.3805ZM95.1075 33.4804V34.4598H94.6715C94.4177 34.4779 94.2822 34.6139 94.2643 34.8678V37.6698H93.1754V34.5141C93.1754 33.8249 93.5476 33.4804 94.2912 33.4804H95.1075ZM98.0452 33.4804V34.4598H97.3105V37.6698H96.2225V35.2487C96.1866 34.759 95.9417 34.496 95.4878 34.4598V33.4804H96.2225V32.0386H97.3105V33.4804H98.0452ZM101.962 33.4804V36.8264C101.944 37.3705 101.627 37.6516 101.011 37.6698H99.4597C98.8247 37.6879 98.517 37.4068 98.5349 36.8264V33.4804H99.623V36.4184C99.623 36.6361 99.7315 36.7449 99.9495 36.7449H100.521C100.738 36.7267 100.856 36.6178 100.874 36.4184V33.4804H101.962ZM106.124 34.4869V37.6698H105.036V35.1126C104.982 34.7317 104.738 34.5141 104.302 34.4598H103.73V37.6698H102.642V34.4598C102.642 33.8068 102.987 33.4804 103.677 33.4804H105.118C105.771 33.4985 106.106 33.834 106.124 34.4869ZM110.205 34.4598V36.0648H107.92V36.7449H110.205V37.6698H107.866C107.195 37.6516 106.85 37.3796 106.832 36.8537V34.5414C106.85 33.8522 107.186 33.4985 107.839 33.4804H109.172C109.843 33.4985 110.187 33.8249 110.205 34.4598ZM107.92 35.167H109.145V34.8406C109.108 34.5322 108.881 34.3691 108.464 34.3509H107.92V35.167Z" fill="url(#paint10_linear_1_20848)"/>
<path d="M38.983 35.7927V36.7449C38.9468 37.3251 38.6022 37.6335 37.9493 37.6698H35.1201V32.0386H37.8405C38.5841 32.0568 38.9649 32.4013 38.983 33.0724V33.9429C38.983 34.36 38.7926 34.6683 38.4117 34.8678C38.7926 35.0854 38.983 35.3937 38.983 35.7927ZM37.8949 34.3509V33.5892C37.8405 33.2447 37.5775 33.0542 37.106 33.0179H36.2083V34.3509H37.8949ZM37.8949 36.7449V35.9287C37.8405 35.5841 37.5866 35.3847 37.1332 35.3302H36.2083V36.7449H37.8949ZM43.0636 34.4598V36.0648H40.7785V36.7449H43.0636V37.6698H40.724C40.0531 37.6516 39.7084 37.3796 39.6903 36.8537V34.5414C39.7084 33.8522 40.044 33.4985 40.6969 33.4804H42.0299C42.7008 33.4985 43.0455 33.8249 43.0636 34.4598ZM40.7785 35.167H42.0026V34.8406C41.9664 34.5322 41.7397 34.3691 41.3225 34.3509H40.7785V35.167ZM48.722 32.0386V33.0179H47.5522V37.6698H46.3824V33.7525C46.3462 33.299 46.056 33.0542 45.5119 33.0179H45.2126V32.0386H48.722ZM51.0614 33.4804V34.4598H50.6262C50.3723 34.4779 50.2363 34.6139 50.2181 34.8678V37.6698H49.13V34.5141C49.13 33.8249 49.5017 33.4804 50.2453 33.4804H51.0614ZM55.0603 33.4804V36.8264C55.0422 37.3705 54.7249 37.6516 54.1083 37.6698H52.5576C51.9229 37.6879 51.6146 37.4068 51.6327 36.8264V33.4804H52.7209V36.4184C52.7209 36.6361 52.8297 36.7449 53.0473 36.7449H53.6186C53.8362 36.7267 53.9541 36.6178 53.9722 36.4184V33.4804H55.0603ZM58.1072 33.4804V34.4598H57.3726V37.6698H56.2845V35.2487C56.2482 34.759 56.0034 34.496 55.55 34.4598V33.4804H56.2845V32.0386H57.3726V33.4804H58.1072ZM61.97 34.5141V37.6698H60.9091V35.031C60.8547 34.6864 60.5918 34.496 60.1202 34.4598H59.685V37.6698H58.5968V32.0386H59.685V33.4804H60.8819C61.571 33.5348 61.9338 33.8794 61.97 34.5141ZM64.7448 33.4804V34.4598H64.1191V37.6698H63.031V34.4598H62.5141V33.4804H63.031V32.9907C63.031 32.356 63.3393 32.0386 63.9559 32.0386H64.8264V32.7731H64.4184C64.237 32.7912 64.1373 32.9091 64.1191 33.1267V33.4804H64.7448ZM68.771 33.4804V36.8264C68.7528 37.3705 68.4354 37.6516 67.8188 37.6698H66.2682C65.6334 37.6879 65.3251 37.4068 65.3433 36.8264V33.4804H66.4314V36.4184C66.4314 36.6361 66.5402 36.7449 66.7578 36.7449H67.3291C67.5467 36.7267 67.6647 36.6178 67.6828 36.4184V33.4804H68.771ZM70.5936 32.0386V37.6698H69.4783V32.0386H70.5936ZM71.1921 36.3368H72.6338V37.4521C72.6157 38.2682 72.1351 38.767 71.1921 38.9483V38.2682C71.6092 38.1957 71.854 37.9962 71.9265 37.6698H71.1921V36.3368Z" fill="url(#paint11_linear_1_20848)"/>
</g>
<defs>
<radialGradient id="paint0_radial_1_20848" cx="0" cy="0" r="1" gradientUnits="userSpaceOnUse" gradientTransform="translate(79.4033 20.183) rotate(90) scale(8.5215 6.7275)">
<stop stop-color="#0077F7"/>
<stop offset="1" stop-color="#0041A2"/>
</radialGradient>
<radialGradient id="paint1_radial_1_20848" cx="0" cy="0" r="1" gradientUnits="userSpaceOnUse" gradientTransform="translate(93.7461 20.183) rotate(90) scale(8.5215 6.7275)">
<stop stop-color="#0077F7"/>
<stop offset="1" stop-color="#0041A2"/>
</radialGradient>
<radialGradient id="paint2_radial_1_20848" cx="0" cy="0" r="1" gradientUnits="userSpaceOnUse" gradientTransform="translate(65.0488 20.183) rotate(90) scale(8.5215 6.7275)">
<stop stop-color="#0077F7"/>
<stop offset="1" stop-color="#0041A2"/>
</radialGradient>
<radialGradient id="paint3_radial_1_20848" cx="0" cy="0" r="1" gradientUnits="userSpaceOnUse" gradientTransform="translate(49.7964 20.183) rotate(90) scale(8.5215 7.6245)">
<stop stop-color="#0077F7"/>
<stop offset="1" stop-color="#0041A2"/>
</radialGradient>
<linearGradient id="paint4_linear_1_20848" x1="15.0306" y1="3.7057" x2="35.4005" y2="3.7057" gradientUnits="userSpaceOnUse">
<stop stop-color="#DD3021"/>
<stop offset="1" stop-color="#FAE64D"/>
</linearGradient>
<linearGradient id="paint5_linear_1_20848" x1="6.50977" y1="21.73" x2="34.9009" y2="21.73" gradientUnits="userSpaceOnUse">
<stop stop-color="#DD3021"/>
<stop offset="1" stop-color="#FAE64D"/>
</linearGradient>
<linearGradient id="paint6_linear_1_20848" x1="10.6196" y1="10.244" x2="5.34603" y2="3.62751" gradientUnits="userSpaceOnUse">
<stop stop-color="#00AAE9"/>
<stop offset="0.15" stop-color="#0091D9"/>
<stop offset="0.47" stop-color="#0054B3"/>
<stop offset="0.56" stop-color="#0041A7"/>
</linearGradient>
<linearGradient id="paint7_linear_1_20848" x1="12.6938" y1="13.1386" x2="7.24755" y2="6.43882" gradientUnits="userSpaceOnUse">
<stop stop-color="#00AAE9"/>
<stop offset="0.15" stop-color="#0091D9"/>
<stop offset="0.47" stop-color="#0054B3"/>
<stop offset="0.56" stop-color="#0041A7"/>
</linearGradient>
<linearGradient id="paint8_linear_1_20848" x1="9.59774" y1="19.5376" x2="28.2576" y2="40.24" gradientUnits="userSpaceOnUse">
<stop stop-color="#00AAE9"/>
<stop offset="0.15" stop-color="#0091D9"/>
<stop offset="0.47" stop-color="#0054B3"/>
<stop offset="0.56" stop-color="#0041A7"/>
</linearGradient>
<linearGradient id="paint9_linear_1_20848" x1="8.18319" y1="13.7664" x2="19.4638" y2="38.4581" gradientUnits="userSpaceOnUse">
<stop stop-color="#00AAE9"/>
<stop offset="0.15" stop-color="#0091D9"/>
<stop offset="0.47" stop-color="#0054B3"/>
<stop offset="0.56" stop-color="#0041A7"/>
</linearGradient>
<linearGradient id="paint10_linear_1_20848" x1="74.2421" y1="35.0736" x2="111.019" y2="35.0736" gradientUnits="userSpaceOnUse">
<stop stop-color="#E14927"/>
<stop offset="0.506666" stop-color="#E6682F"/>
<stop offset="1" stop-color="#F5C746"/>
</linearGradient>
<linearGradient id="paint11_linear_1_20848" x1="34.7665" y1="35.0736" x2="73.3375" y2="35.0736" gradientUnits="userSpaceOnUse">
<stop stop-color="#0041A7"/>
<stop offset="1" stop-color="#0198DE"/>
</linearGradient>
<clipPath id="clip0_1_20848">
<rect width="113.919" height="42.159" fill="white"/>
</clipPath>
</defs>
</svg>
