<svg width="186" height="49" viewBox="0 0 186 49" fill="none" xmlns="http://www.w3.org/2000/svg">
<mask id="mask0_1704_1054" style="mask-type:luminance" maskUnits="userSpaceOnUse" x="0" y="0" width="156" height="47">
<path d="M156 0H0V47H156V0Z" fill="white"/>
</mask>
<g mask="url(#mask0_1704_1054)">
<path d="M120.471 32H119.442C118.928 32 118.413 31.9391 117.956 31.8782C117.441 31.8173 116.927 31.6953 116.412 31.5735C115.326 31.3298 114.24 30.9642 113.268 30.416C112.296 29.9286 111.439 29.2584 110.695 28.4664C109.838 27.4916 109.266 26.3949 109.095 25.0547C108.98 24.4453 108.98 23.8362 109.038 23.166C109.095 22.7395 109.152 22.374 109.209 21.9475C109.323 21.46 109.495 21.0336 109.781 20.6071C110.352 19.6933 110.981 18.9622 111.839 18.3529C112.468 17.9265 113.154 17.5 113.897 17.2562C114.011 17.1953 114.126 17.1344 114.297 17.0735C114.354 17.0735 114.354 17.0126 114.354 16.9517C114.354 16.8907 114.354 16.8298 114.297 16.8298C114.24 16.7689 114.183 16.7689 114.126 16.708C113.725 16.5251 113.325 16.3424 112.925 16.0987C112.639 15.916 112.353 15.7942 112.125 15.6113C111.324 15.0631 110.753 14.332 110.295 13.4789C110.009 12.9916 109.895 12.4433 109.781 11.834C109.724 11.4076 109.724 10.9811 109.724 10.5547C109.781 9.5798 110.009 8.60509 110.467 7.75203C110.695 7.26468 111.038 6.83823 111.381 6.41177C111.839 5.92442 112.353 5.43692 112.925 5.07136C113.668 4.58401 114.469 4.15756 115.269 3.8529C116.126 3.54825 116.984 3.30465 117.899 3.1827C118.242 3.1218 118.642 3.0609 118.985 3.0609C119.557 3 120.186 3 120.757 3C121.443 3 122.129 3.0609 122.815 3.1827C123.616 3.30465 124.473 3.48735 125.217 3.73111C126.131 4.03576 127.046 4.40131 127.846 4.94956C128.475 5.37602 129.104 5.86352 129.619 6.47267C130.247 7.20378 130.762 8.05668 130.991 9.03154C131.105 9.5189 131.219 9.94535 131.219 10.4327V11.1638C131.162 12.1996 130.876 13.1744 130.305 14.0273C129.904 14.6366 129.39 15.1849 128.761 15.6113C128.189 16.0378 127.618 16.4033 126.989 16.6471L126.646 16.8298C126.589 16.8298 126.589 16.8907 126.589 16.9517C126.589 17.0126 126.589 17.0735 126.646 17.0735C126.703 17.0735 126.76 17.1344 126.817 17.1344C126.932 17.1953 127.046 17.1953 127.103 17.2562C127.903 17.5609 128.647 17.9874 129.39 18.5358C130.247 19.1449 130.876 19.9369 131.391 20.8509C131.677 21.3991 131.848 21.9475 131.905 22.5567C132.02 23.166 132.02 23.7751 131.962 24.4453C131.848 25.9685 131.334 27.248 130.362 28.3445C129.676 29.0756 128.932 29.6849 128.075 30.1722C127.332 30.5987 126.474 30.9642 125.674 31.208C124.931 31.4517 124.187 31.6344 123.387 31.7562C122.358 31.9391 121.386 32 120.471 32ZM120.471 18.9622C119.957 18.9622 119.442 19.0231 118.985 19.1449C117.784 19.3887 116.927 20.1198 116.298 21.2164C115.726 22.252 115.669 23.2878 116.126 24.3235C116.641 25.542 117.499 26.334 118.642 26.6996C119.214 26.8824 119.785 26.9433 120.357 26.9433C120.643 26.9433 120.929 26.8824 121.215 26.8824C121.558 26.8824 121.901 26.7605 122.187 26.6996C123.444 26.334 124.245 25.4202 124.759 24.2017C125.102 23.3487 125.102 22.4958 124.702 21.6429C124.245 20.5462 123.444 19.7542 122.358 19.3278C121.786 19.0231 121.1 18.9622 120.471 18.9622ZM116.069 11.6513V11.834C116.126 12.8089 116.47 13.6009 117.156 14.1491C117.842 14.7584 118.642 15.124 119.5 15.2458C119.957 15.3067 120.471 15.3067 120.929 15.2458C121.329 15.1849 121.729 15.124 122.129 14.9411C122.644 14.7584 123.101 14.5147 123.501 14.1491C124.016 13.7227 124.359 13.1744 124.53 12.4433C124.645 12.0169 124.645 11.5294 124.588 11.042C124.473 10.3109 124.187 9.70175 123.616 9.15334C123.501 9.03154 123.387 8.97064 123.273 8.90959C122.93 8.66599 122.53 8.42224 122.129 8.30044C121.729 8.17864 121.329 8.05668 120.929 7.99578C120.128 7.87398 119.328 7.99578 118.585 8.23954C118.013 8.42224 117.556 8.72689 117.098 9.09244C116.641 9.51889 116.298 10.0062 116.126 10.6156C116.126 10.9811 116.069 11.2858 116.069 11.6513Z" fill="url(#paint0_radial_1704_1054)"/>
<path d="M144.471 32H143.442C142.928 32 142.413 31.9391 141.956 31.8782C141.441 31.8173 140.927 31.6953 140.412 31.5735C139.326 31.3298 138.239 30.9642 137.268 30.416C136.296 29.9286 135.439 29.2584 134.695 28.4664C133.838 27.4916 133.266 26.3949 133.095 25.0547C132.98 24.4453 132.98 23.8362 133.038 23.166C133.095 22.7395 133.152 22.374 133.209 21.9475C133.323 21.46 133.495 21.0336 133.781 20.6071C134.352 19.6933 134.981 18.9622 135.839 18.3529C136.468 17.9265 137.154 17.5 137.897 17.2562C138.011 17.1953 138.126 17.1344 138.298 17.0735C138.354 17.0735 138.354 17.0126 138.354 16.9517C138.354 16.8907 138.354 16.8298 138.298 16.8298C138.239 16.7689 138.183 16.7689 138.126 16.708C137.726 16.5251 137.325 16.3424 136.925 16.0987C136.639 15.916 136.353 15.7942 136.125 15.6113C135.324 15.0631 134.753 14.332 134.295 13.4789C134.009 12.9916 133.895 12.4433 133.781 11.834C133.724 11.4076 133.724 10.9811 133.724 10.5547C133.781 9.5798 134.009 8.60509 134.467 7.75203C134.695 7.26468 135.038 6.83823 135.381 6.41177C135.839 5.92442 136.353 5.43692 136.925 5.07136C137.669 4.58401 138.469 4.15756 139.268 3.8529C140.127 3.54825 140.984 3.30465 141.899 3.1827C142.241 3.1218 142.641 3.0609 142.985 3.0609C143.557 3 144.185 3 144.757 3C145.443 3 146.13 3.0609 146.815 3.1827C147.616 3.30465 148.473 3.48735 149.216 3.73111C150.132 4.03576 151.046 4.40131 151.846 4.94956C152.475 5.37602 153.103 5.86352 153.618 6.47267C154.247 7.20378 154.762 8.05668 154.991 9.03154C155.104 9.5189 155.219 9.94535 155.219 10.4327V11.1638C155.162 12.1996 154.876 13.1744 154.304 14.0273C153.904 14.6366 153.39 15.1849 152.761 15.6113C152.189 16.0378 151.617 16.4033 150.989 16.6471L150.645 16.8298C150.589 16.8298 150.589 16.8907 150.589 16.9517C150.589 17.0126 150.589 17.0735 150.645 17.0735C150.702 17.0735 150.76 17.1344 150.817 17.1344C150.931 17.1953 151.046 17.1953 151.102 17.2562C151.903 17.5609 152.646 17.9874 153.39 18.5358C154.247 19.1449 154.876 19.9369 155.391 20.8509C155.676 21.3991 155.848 21.9475 155.905 22.5567C156.02 23.166 156.02 23.7751 155.963 24.4453C155.848 25.9685 155.333 27.248 154.362 28.3445C153.675 29.0756 152.931 29.6849 152.074 30.1722C151.331 30.5987 150.474 30.9642 149.673 31.208C148.931 31.4517 148.187 31.6344 147.387 31.7562C146.358 31.9391 145.386 32 144.471 32ZM144.471 18.9622C143.957 18.9622 143.442 19.0231 142.985 19.1449C141.784 19.3887 140.927 20.1198 140.299 21.2164C139.727 22.252 139.668 23.2878 140.127 24.3235C140.64 25.542 141.499 26.334 142.641 26.6996C143.213 26.8824 143.785 26.9433 144.357 26.9433C144.642 26.9433 144.929 26.8824 145.214 26.8824C145.558 26.8824 145.9 26.7605 146.186 26.6996C147.444 26.334 148.244 25.4202 148.759 24.2017C149.101 23.3487 149.101 22.4958 148.701 21.6429C148.244 20.5462 147.444 19.7542 146.358 19.3278C145.786 19.0231 145.099 18.9622 144.471 18.9622ZM140.069 11.6513V11.834C140.127 12.8089 140.469 13.6009 141.156 14.1491C141.841 14.7584 142.641 15.124 143.5 15.2458C143.957 15.3067 144.471 15.3067 144.929 15.2458C145.329 15.1849 145.73 15.124 146.13 14.9411C146.643 14.7584 147.1 14.5147 147.501 14.1491C148.016 13.7227 148.359 13.1744 148.531 12.4433C148.644 12.0169 148.644 11.5294 148.588 11.042C148.473 10.3109 148.187 9.70175 147.616 9.15334C147.501 9.03154 147.387 8.97064 147.272 8.90959C146.93 8.66599 146.53 8.42224 146.13 8.30044C145.73 8.17864 145.329 8.05668 144.929 7.99578C144.129 7.87398 143.328 7.99578 142.585 8.23954C142.013 8.42224 141.556 8.72689 141.099 9.09244C140.64 9.51889 140.299 10.0062 140.127 10.6156C140.127 10.9811 140.069 11.2858 140.069 11.6513Z" fill="url(#paint1_radial_1704_1054)"/>
<path d="M84 17.6622V3.12974C84 3.06487 84.0644 3 84.1288 3H106.871C106.936 3 107 3.06487 107 3.12974V8.90379C107 8.96866 106.936 9.03352 106.871 9.03352H92.311C92.182 9.03352 92.1176 9.09839 92.1176 9.293V14.9373C92.1176 15.0022 92.182 15.0671 92.2466 15.0671H105.325C105.389 15.0671 105.454 15.1319 105.454 15.1969V19.6733C105.454 19.7382 105.389 19.8031 105.325 19.8031H92.311C92.2466 19.8031 92.182 19.8681 92.182 19.9329V31.8054C92.182 31.9351 92.1176 32 91.9888 32H84.1934C84.1288 32 84.0644 31.9351 84.0644 31.8703V31.3512C84 26.9397 84 22.2685 84 17.6622Z" fill="url(#paint2_radial_1704_1054)"/>
<path d="M69.9363 3.00178H82.3699C83.0608 3.00178 82.9979 2.93768 82.9979 3.57782V8.44296C82.9979 9.01899 83.0608 8.95504 82.4957 8.95504H74.5832C73.8924 8.95504 73.9552 8.89093 73.8924 9.59517V31.5519C73.8924 31.8506 73.7459 32 73.4528 32H66.1055C66.0428 32 65.98 31.936 65.98 31.8719V9.14705C65.98 9.08309 65.9173 9.01899 65.8544 9.01899H57.0629C57 9.01899 57 8.95504 57 8.95504V3.64192C57 3.30049 57.1675 3.12969 57.5024 3.12969C61.5841 3.00179 65.7915 3.00178 69.9363 3.00178Z" fill="url(#paint3_radial_1704_1054)"/>
<mask id="mask1_1704_1054" style="mask-type:luminance" maskUnits="userSpaceOnUse" x="0" y="0" width="43" height="47">
<path d="M43 0H0V47H43V0Z" fill="white"/>
</mask>
<g mask="url(#mask1_1704_1054)">
<path d="M43.0002 0.360972V0.41728C43.0002 0.924049 42.8862 1.43082 42.7721 1.93759C42.6581 2.44436 42.544 3.00743 42.3159 3.5142C42.0878 4.02097 41.8026 4.47143 41.3464 4.86559C41.0612 5.14713 40.7191 5.31605 40.3769 5.48497C40.0917 5.59759 39.8066 5.76651 39.5214 5.87912C39.0652 6.10435 38.723 6.38589 38.3238 6.66743C37.8676 7.06159 37.4114 7.56835 37.0122 8.07512L36.9551 8.13143V7.28682C36.9551 6.78005 37.0122 6.27328 37.1262 5.76651C37.2973 5.09082 37.5825 4.52774 38.0387 4.02097C38.4379 3.57051 38.9512 3.17636 39.4644 2.83851C39.8066 2.61328 40.1488 2.44436 40.548 2.21913C41.0612 1.93759 41.4604 1.59974 41.9167 1.2619C42.2588 0.980357 42.544 0.642511 42.8291 0.248357C42.8672 0.210819 42.9052 0.17328 42.9432 0.135742C43.0002 0.248357 43.0002 0.304665 43.0002 0.360972Z" fill="url(#paint4_linear_1704_1054)"/>
<path d="M36.8818 11.8759C36.8818 11.9885 36.9388 12.1011 36.9388 12.2138C36.9958 12.5516 37.0528 12.9458 37.1099 13.2836C37.1669 13.7904 37.1669 14.2971 37.1669 14.7476C37.1669 15.6485 36.9958 16.4931 36.7107 17.3378C36.5966 17.7319 36.4255 18.1261 36.1974 18.5202C35.9123 19.0833 35.5701 19.5901 35.1709 20.0405C34.7717 20.491 34.2584 20.8851 33.7452 21.2793C33.517 21.4482 33.2319 21.6171 32.9467 21.7298C32.7757 21.8424 32.5475 21.8987 32.3765 22.0113C31.9202 22.2365 31.464 22.3491 31.0078 22.4618C30.5515 22.5744 30.0953 22.687 29.6391 22.7433C29.582 22.7433 29.468 22.7433 29.4109 22.7996C29.1258 22.7996 28.7836 22.8559 28.4985 22.8559H26.1603C23.765 31.0768 21.4896 38.791 19.2084 46.9556L19.1628 47.0006C19.1628 36.4711 19.1457 26.2907 19.1457 15.7048H7.22656V15.6485C11.0475 10.9187 14.9255 6.18882 18.8035 1.45898C18.0051 4.6122 17.1497 7.76543 16.2372 10.8624C16.2942 10.8624 18.6894 10.9187 18.8605 10.8624C18.9176 10.7498 18.9746 10.5808 18.9746 10.4682C19.2597 9.67989 19.6589 8.94789 20.2292 8.2722L21.0847 7.42759H21.1417C21.1417 7.46513 21.1227 7.50266 21.0847 7.5402C20.7995 8.15959 20.5714 8.83528 20.3433 9.51097C20.2292 9.96144 20.1152 10.4119 20.0581 10.8624C20.0011 11.1439 20.0011 11.4255 20.0011 11.707C20.0011 12.1011 20.0581 12.4953 20.1722 12.8894C20.2292 13.1147 20.2292 13.2836 20.2863 13.5088C20.3433 13.8467 20.5144 14.1282 20.6855 14.4098C20.9136 14.7476 21.1417 15.0854 21.4269 15.4233C21.655 15.6485 21.8831 15.8174 22.1682 15.9864C22.2253 16.0427 22.3393 16.0427 22.3963 16.099C22.3963 16.0614 22.3773 16.0239 22.3393 15.9864C22.2253 15.7048 22.0542 15.4796 21.9401 15.1981C21.655 14.5224 21.3698 13.8467 21.2558 13.171C21.1987 12.8331 21.1417 12.4953 21.0847 12.1011V11.0876C21.1417 10.4119 21.2558 9.67989 21.4839 9.0042C21.769 8.2722 22.1112 7.5402 22.6815 6.97713C23.1377 6.47036 23.708 6.0199 24.2783 5.73836C24.6775 5.51313 25.0767 5.3442 25.5329 5.23159C26.1603 5.00636 26.7306 4.89374 27.3579 4.78113C27.643 4.72482 27.8711 4.66851 28.0993 4.6122C28.3844 4.49959 28.6696 4.33067 28.8406 4.10544C29.0117 3.88021 29.0688 3.65497 29.1258 3.37344C29.1258 3.0919 29.0688 2.81036 29.0117 2.52882V2.41621C29.4109 2.75405 29.7531 3.0919 29.9812 3.54236C30.0953 3.8239 30.2093 4.10544 30.2093 4.38697C30.2093 4.72482 30.2093 5.00636 30.0953 5.3442C29.9242 5.68205 29.6961 5.96359 29.4109 6.18882C29.0688 6.47036 28.6696 6.58297 28.2133 6.69559C27.8141 6.7519 27.4149 6.86451 27.0157 7.03343C26.6165 7.20236 26.2743 7.42759 25.9322 7.70913C25.59 8.04697 25.3048 8.44113 25.1908 8.94789C25.1337 9.28574 25.1337 9.62359 25.1908 9.96143C25.1908 9.96143 25.1908 10.0178 25.2478 10.0741C25.2478 10.0178 25.3048 9.96143 25.3048 9.96143C25.4759 9.62359 25.647 9.28574 25.9322 9.06051C26.2743 8.72266 26.6735 8.49743 27.1298 8.38482C27.529 8.2722 27.9852 8.21589 28.4414 8.2722H28.3844C27.9282 8.38482 27.4719 8.61005 27.0727 8.89159C26.6735 9.22943 26.3314 9.56728 26.1032 10.0178C25.9892 10.243 25.9322 10.4682 25.8751 10.6935C25.8181 11.0876 25.8181 11.4818 25.9892 11.8759C26.1032 12.1575 26.2173 12.439 26.4454 12.6079C26.6165 12.7768 26.8446 12.9458 27.0727 13.0021C27.3579 13.1147 27.643 13.171 27.9852 13.171H28.0993C28.4985 13.171 28.8977 13.1147 29.2398 13.0021C29.525 12.9458 29.7531 12.8331 29.9812 12.6079C30.2093 12.439 30.3804 12.1575 30.4945 11.9322C30.8367 11.2002 31.1218 10.4682 31.3499 9.67989C31.521 9.17313 31.6351 8.61005 31.7491 8.10328C31.9202 7.37128 32.0913 6.63928 32.3194 5.90728C32.5475 5.23159 32.8327 4.61221 33.2319 4.04913C33.6311 3.42974 34.2014 2.92298 34.8287 2.52882C35.342 2.19098 35.9123 1.96575 36.4826 1.85313C36.7107 1.79682 36.9388 1.79682 37.1669 1.79682H37.9653C38.1934 1.79682 38.4215 1.85313 38.7067 1.85313C38.7637 1.85313 38.8207 1.85313 38.8778 1.90944C38.7637 1.96575 38.5926 1.96574 38.4786 2.02205C37.8513 2.24728 37.338 2.52882 36.8247 2.97928C36.1974 3.54236 35.7412 4.27436 35.456 5.11897C35.342 5.45682 35.2849 5.79467 35.1709 6.13251C35.0568 6.69559 34.9428 7.31497 34.8287 7.87805C34.7717 8.32851 34.7146 8.77897 34.6576 9.22943C34.5436 9.84882 34.4865 10.4682 34.3725 11.0313C34.2584 11.6507 34.1444 12.2138 33.9162 12.7768C33.6881 13.3962 33.3459 13.9593 32.8897 14.4661C32.5475 14.8602 32.1483 15.1981 31.6921 15.4233C31.0648 15.8174 30.3804 16.0427 29.6391 16.1553C29.2969 16.2116 29.0117 16.2679 28.6696 16.2679C28.2704 16.3242 27.8141 16.2679 27.4149 16.2116C26.9587 16.1553 26.5595 16.0427 26.1032 15.8738C25.59 15.6485 25.1908 15.367 24.7916 15.0291C24.5064 14.7476 24.2213 14.4098 23.9932 14.0156C23.9932 13.9593 23.9361 13.9593 23.8791 13.903V13.9593C23.9932 14.635 24.1643 15.2544 24.5635 15.8174C24.7916 16.1553 25.0197 16.4931 25.3048 16.7747C25.647 17.1125 26.0462 17.4504 26.5024 17.6756C26.9017 17.9008 27.3579 18.0698 27.7571 18.1824C28.2133 18.295 28.6125 18.4076 29.0688 18.4076C29.2398 18.4076 29.468 18.4076 29.6391 18.4639H29.9812C30.9507 18.4639 31.8632 18.295 32.7186 17.9008C33.3459 17.6193 33.8592 17.2814 34.3725 16.831C34.9428 16.3242 35.399 15.7048 35.7982 15.0291C36.1974 14.2971 36.4826 13.5088 36.5966 12.7205C36.6536 12.5516 36.6536 12.3264 36.7107 12.1575C36.7867 12.0073 36.8437 11.9135 36.8818 11.8759Z" fill="url(#paint5_linear_1704_1054)"/>
<path d="M18.9335 1.28987C18.8708 1.3856 14.8901 6.31252 13.0082 8.62113C11.2973 10.7608 9.52935 12.9005 7.81847 15.0402C7.76144 15.1528 7.64738 15.2654 7.59036 15.3781C7.53333 15.4344 7.59036 15.4907 7.64738 15.4907H19.1673C19.2814 15.4907 19.2814 15.547 19.3384 15.6596V46.7977H19.2814C19.2814 46.7414 19.2243 46.6851 19.2243 46.6288C18.4259 43.8134 17.5705 40.998 16.7721 38.1264C16.0877 35.8177 15.4604 33.5654 14.7761 31.2568C13.9777 28.554 13.2363 25.8513 12.4379 23.1485C12.3808 22.9796 12.3238 22.8107 12.2668 22.6417C12.2668 22.5854 12.2098 22.5291 12.0957 22.5291H5.08107C4.96701 22.5291 4.90998 22.4728 4.85296 22.4165C4.79593 22.3039 4.7389 22.2476 4.68187 22.135C3.19911 20.0516 1.77338 17.9119 0.290617 15.8285C0.233588 15.7159 0.119529 15.6033 0.0625 15.4907C0.0625 15.3781 0.176559 15.3218 0.233588 15.3218C0.518734 15.0965 0.860909 14.8713 1.14606 14.5898C6.84898 10.3104 12.5519 5.97467 18.2549 1.69529C18.3974 1.6052 18.8594 1.28424 18.9278 1.26172V1.28987H18.9335Z" fill="#0041A7"/>
<path d="M18.9622 1.27246L2.41804 18.8348L0 15.3944L18.2208 1.72855L18.9508 1.27246H18.9622Z" fill="url(#paint6_linear_1704_1054)"/>
<path d="M18.8023 1.45898L4.92702 22.4336L2.48047 18.8355L18.8023 1.45898Z" fill="url(#paint7_linear_1704_1054)"/>
<path d="M19.385 15.5361L15.4785 19.4438L19.3394 46.8262L19.385 15.5361Z" fill="url(#paint8_linear_1704_1054)"/>
<path d="M12.2266 22.5572L15.5 19.4434L19.3381 46.8258L12.2266 22.5572Z" fill="url(#paint9_linear_1704_1054)"/>
</g>
</g>
<path d="M41.4766 41.9375V43.8516C41.4036 45.0182 40.7109 45.638 39.3984 45.7109H33.7109V34.3906H39.1797C40.6745 34.4271 41.4401 35.1198 41.4766 36.4688V38.2188C41.4766 39.0573 41.0938 39.6771 40.3281 40.0781C41.0938 40.5156 41.4766 41.1354 41.4766 41.9375ZM39.2891 39.0391V37.5078C39.1797 36.8151 38.651 36.4323 37.7031 36.3594H35.8984V39.0391H39.2891ZM39.2891 43.8516V42.2109C39.1797 41.5182 38.6693 41.1172 37.7578 41.0078H35.8984V43.8516H39.2891ZM49.6797 39.2578V42.4844H45.0859V43.8516H49.6797V45.7109H44.9766C43.6276 45.6745 42.9349 45.1276 42.8984 44.0703V39.4219C42.9349 38.0365 43.6094 37.3255 44.9219 37.2891H47.6016C48.9505 37.3255 49.6432 37.9818 49.6797 39.2578ZM45.0859 40.6797H47.5469V40.0234C47.474 39.4036 47.0182 39.0755 46.1797 39.0391H45.0859V40.6797ZM65.7578 37.2891V39.2578H64.8828C64.3724 39.2943 64.099 39.5677 64.0625 40.0781V45.7109H61.875V39.3672C61.875 37.9818 62.6224 37.2891 64.1172 37.2891H65.7578ZM73.7969 37.2891V44.0156C73.7604 45.1094 73.1224 45.6745 71.8828 45.7109H68.7656C67.4896 45.7474 66.8698 45.1823 66.9062 44.0156V37.2891H69.0938V43.1953C69.0938 43.6328 69.3125 43.8516 69.75 43.8516H70.8984C71.3359 43.8151 71.5729 43.5964 71.6094 43.1953V37.2891H73.7969ZM79.9219 37.2891V39.2578H78.4453V45.7109H76.2578V40.8438C76.1849 39.8594 75.6927 39.3307 74.7812 39.2578V37.2891H76.2578V34.3906H78.4453V37.2891H79.9219ZM87.6875 39.3672V45.7109H85.5547V40.4062C85.4453 39.7135 84.9167 39.3307 83.9688 39.2578H83.0938V45.7109H80.9062V34.3906H83.0938V37.2891H85.5C86.8854 37.3984 87.6146 38.0911 87.6875 39.3672ZM93.2656 37.2891V39.2578H92.0078V45.7109H89.8203V39.2578H88.7812V37.2891H89.8203V36.3047C89.8203 35.0286 90.4401 34.3906 91.6797 34.3906H93.4297V35.8672H92.6094C92.2448 35.9036 92.0443 36.1406 92.0078 36.5781V37.2891H93.2656ZM101.359 37.2891V44.0156C101.323 45.1094 100.685 45.6745 99.4453 45.7109H96.3281C95.0521 45.7474 94.4323 45.1823 94.4688 44.0156V37.2891H96.6562V43.1953C96.6562 43.6328 96.875 43.8516 97.3125 43.8516H98.4609C98.8984 43.8151 99.1354 43.5964 99.1719 43.1953V37.2891H101.359ZM105.023 34.3906V45.7109H102.781V34.3906H105.023ZM106.227 43.0312H109.125V45.2734C109.089 46.9141 108.122 47.9167 106.227 48.2812V46.9141C107.065 46.7682 107.557 46.3672 107.703 45.7109H106.227V43.0312ZM121.648 41.9375V43.8516C121.576 45.0182 120.883 45.638 119.57 45.7109H113.883V34.3906H119.352C120.846 34.4271 121.612 35.1198 121.648 36.4688V38.2188C121.648 39.0573 121.266 39.6771 120.5 40.0781C121.266 40.5156 121.648 41.1354 121.648 41.9375ZM119.461 39.0391V37.5078C119.352 36.8151 118.823 36.4323 117.875 36.3594H116.07V39.0391H119.461ZM119.461 43.8516V42.2109C119.352 41.5182 118.841 41.1172 117.93 41.0078H116.07V43.8516H119.461ZM129.852 39.2578V42.4844H125.258V43.8516H129.852V45.7109H125.148C123.799 45.6745 123.107 45.1276 123.07 44.0703V39.4219C123.107 38.0365 123.781 37.3255 125.094 37.2891H127.773C129.122 37.3255 129.815 37.9818 129.852 39.2578ZM125.258 40.6797H127.719V40.0234C127.646 39.4036 127.19 39.0755 126.352 39.0391H125.258V40.6797ZM149.812 39.3125V43.9062C149.776 45.0729 149.102 45.6745 147.789 45.7109H144.945C143.633 45.7109 142.977 45.1276 142.977 43.9609V39.2031C142.977 37.9271 143.651 37.2891 145 37.2891H147.789C149.102 37.3255 149.776 38 149.812 39.3125ZM147.625 43.8516V40.3516C147.589 39.6589 147.115 39.2943 146.203 39.2578H145.164V43.8516H147.625ZM155.117 37.2891V39.2578H154.242C153.732 39.2943 153.458 39.5677 153.422 40.0781V45.7109H151.234V39.3672C151.234 37.9818 151.982 37.2891 153.477 37.2891H155.117ZM161.023 37.2891V39.2578H159.547V45.7109H157.359V40.8438C157.286 39.8594 156.794 39.3307 155.883 39.2578V37.2891H157.359V34.3906H159.547V37.2891H161.023ZM168.898 37.2891V44.0156C168.862 45.1094 168.224 45.6745 166.984 45.7109H163.867C162.591 45.7474 161.971 45.1823 162.008 44.0156V37.2891H164.195V43.1953C164.195 43.6328 164.414 43.8516 164.852 43.8516H166C166.438 43.8151 166.674 43.5964 166.711 43.1953V37.2891H168.898ZM177.266 39.3125V45.7109H175.078V40.5703C174.969 39.8047 174.477 39.3672 173.602 39.2578H172.453V45.7109H170.266V39.2578C170.266 37.9453 170.958 37.2891 172.344 37.2891H175.242C176.555 37.3255 177.229 38 177.266 39.3125ZM185.469 39.2578V42.4844H180.875V43.8516H185.469V45.7109H180.766C179.417 45.6745 178.724 45.1276 178.688 44.0703V39.4219C178.724 38.0365 179.398 37.3255 180.711 37.2891H183.391C184.74 37.3255 185.432 37.9818 185.469 39.2578ZM180.875 40.6797H183.336V40.0234C183.263 39.4036 182.807 39.0755 181.969 39.0391H180.875V40.6797Z" fill="#004FB8"/>
<path d="M61.0547 34.3906V36.3594H58.7031V45.7109H56.3516V37.8359C56.2786 36.9245 55.6953 36.4323 54.6016 36.3594H54V34.3906H61.0547ZM141.555 39.0938V41.0625H136.906V45.7109H134.719V36.7422C134.755 35.2109 135.576 34.4271 137.18 34.3906H141.828V36.3594H138.438C137.526 36.4323 137.016 36.8516 136.906 37.6172V39.0938H141.555Z" fill="#F5C846"/>
<defs>
<radialGradient id="paint0_radial_1704_1054" cx="0" cy="0" r="1" gradientUnits="userSpaceOnUse" gradientTransform="translate(120.5 17.5) rotate(90) scale(14.5 11.5)">
<stop stop-color="#0077F7"/>
<stop offset="1" stop-color="#0041A2"/>
</radialGradient>
<radialGradient id="paint1_radial_1704_1054" cx="0" cy="0" r="1" gradientUnits="userSpaceOnUse" gradientTransform="translate(144.5 17.5) rotate(90) scale(14.5 11.4998)">
<stop stop-color="#0077F7"/>
<stop offset="1" stop-color="#0041A2"/>
</radialGradient>
<radialGradient id="paint2_radial_1704_1054" cx="0" cy="0" r="1" gradientUnits="userSpaceOnUse" gradientTransform="translate(95.5 17.5) rotate(90) scale(14.5 11.5)">
<stop stop-color="#0077F7"/>
<stop offset="1" stop-color="#0041A2"/>
</radialGradient>
<radialGradient id="paint3_radial_1704_1054" cx="0" cy="0" r="1" gradientUnits="userSpaceOnUse" gradientTransform="translate(70 17.5) rotate(90) scale(14.5 13)">
<stop stop-color="#0077F7"/>
<stop offset="1" stop-color="#0041A2"/>
</radialGradient>
<linearGradient id="paint4_linear_1704_1054" x1="16.7383" y1="4.13359" x2="39.4473" y2="4.13359" gradientUnits="userSpaceOnUse">
<stop stop-color="#DD3021"/>
<stop offset="1" stop-color="#FAE64D"/>
</linearGradient>
<linearGradient id="paint5_linear_1704_1054" x1="7.22656" y1="24.2298" x2="38.8778" y2="24.2298" gradientUnits="userSpaceOnUse">
<stop stop-color="#DD3021"/>
<stop offset="1" stop-color="#FAE64D"/>
</linearGradient>
<linearGradient id="paint6_linear_1704_1054" x1="11.8107" y1="11.4247" x2="5.9316" y2="4.04845" gradientUnits="userSpaceOnUse">
<stop stop-color="#00AAE9"/>
<stop offset="0.15" stop-color="#0091D9"/>
<stop offset="0.47" stop-color="#0054B3"/>
<stop offset="0.56" stop-color="#0041A7"/>
</linearGradient>
<linearGradient id="paint7_linear_1704_1054" x1="14.1202" y1="14.6519" x2="8.04861" y2="7.18279" gradientUnits="userSpaceOnUse">
<stop stop-color="#00AAE9"/>
<stop offset="0.15" stop-color="#0091D9"/>
<stop offset="0.47" stop-color="#0054B3"/>
<stop offset="0.56" stop-color="#0041A7"/>
</linearGradient>
<linearGradient id="paint8_linear_1704_1054" x1="10.6709" y1="21.7806" x2="31.4734" y2="44.8602" gradientUnits="userSpaceOnUse">
<stop stop-color="#00AAE9"/>
<stop offset="0.15" stop-color="#0091D9"/>
<stop offset="0.47" stop-color="#0054B3"/>
<stop offset="0.56" stop-color="#0041A7"/>
</linearGradient>
<linearGradient id="paint9_linear_1704_1054" x1="9.08416" y1="15.3498" x2="21.6601" y2="42.8768" gradientUnits="userSpaceOnUse">
<stop stop-color="#00AAE9"/>
<stop offset="0.15" stop-color="#0091D9"/>
<stop offset="0.47" stop-color="#0054B3"/>
<stop offset="0.56" stop-color="#0041A7"/>
</linearGradient>
</defs>
</svg>
