<svg width="40" height="40" viewBox="0 0 40 40" fill="none" xmlns="http://www.w3.org/2000/svg">
<circle cx="20" cy="20" r="20" fill="#D9D9D9"/>
<circle cx="20" cy="20" r="20" fill="url(#paint0_linear_685_1172)"/>
<circle cx="20" cy="20" r="20" fill="url(#paint1_linear_685_1172)"/>
<circle cx="20" cy="20" r="20" fill="url(#paint2_linear_685_1172)"/>
<circle cx="20" cy="20" r="20" fill="url(#paint3_linear_685_1172)"/>
<path d="M19.0651 25.8586C19.0651 24.4949 19.4344 23.3103 20.0793 22.2194C20.0793 22.0376 20.0793 21.7648 20.264 21.4921C20.9998 20.4921 21.46 19.3984 21.46 19.0347C21.46 19.0347 22.5651 18.1256 22.656 16.8501C22.7469 15.4864 22.3805 15.4864 22.3805 15.4864C22.8407 14.0319 23.0253 8.57165 19.5253 9.29892C18.9742 8.11426 15.2896 7.20517 13.5396 10.2989C12.71 11.8472 12.3435 13.8472 12.9856 15.5773C12.9856 15.6682 12.71 15.4864 12.71 16.2137C12.6191 16.941 12.9856 18.0347 13.3549 18.5802C13.5396 18.6711 13.8151 18.8529 13.9998 18.9438C13.9998 18.9438 14.1844 20.3074 15.2896 21.583C15.5651 22.583 14.5538 23.1313 14.5538 23.1313C11.2356 23.7648 8.1958 25.5859 8.1958 27.5859V29.1313C8.1958 31.316 13.2611 31.7705 17.7753 31.7705C19.156 31.7705 20.5396 31.6796 21.8293 31.4069C20.0793 30.0432 19.0651 28.1341 19.0651 25.8586ZM25.9742 20.1256C22.7498 20.1256 20.1702 22.6739 20.1702 25.8586C20.1702 29.0432 22.7498 31.5915 25.9742 31.5915C29.1986 31.5915 31.7782 29.0432 31.7782 25.8586C31.7753 22.6739 29.1986 20.1256 25.9742 20.1256ZM29.1986 24.2194L26.0651 28.7705C25.8805 28.9523 25.6958 29.1341 25.5111 29.1341C25.3265 29.1341 25.0509 29.0432 24.9572 28.8614L23.1163 27.0404C22.9316 26.8586 22.9316 26.4949 23.1163 26.3131L23.5765 25.8586C23.7611 25.6768 24.1305 25.6768 24.3123 25.8586L25.3265 26.8586L27.7214 23.3103C27.906 23.0376 28.2753 23.0376 28.4572 23.1285L29.0111 23.4921C29.1021 23.583 29.1958 23.6739 29.2867 23.8557C29.2896 23.9466 29.2896 24.1285 29.1986 24.2194Z" fill="white"/>
<defs>
<linearGradient id="paint0_linear_685_1172" x1="18.8956" y1="0" x2="18.8956" y2="40" gradientUnits="userSpaceOnUse">
<stop stop-color="#70CBFB"/>
<stop offset="0.49" stop-color="#4AA5FF"/>
<stop offset="0.915" stop-color="#4AA5FF"/>
<stop offset="1" stop-color="#6EC7FD"/>
</linearGradient>
<linearGradient id="paint1_linear_685_1172" x1="0" y1="20" x2="40" y2="20" gradientUnits="userSpaceOnUse">
<stop stop-color="#F4D24C"/>
<stop offset="1" stop-color="#F2A03A"/>
</linearGradient>
<linearGradient id="paint2_linear_685_1172" x1="3.26041" y1="20.2665" x2="36.9675" y2="20.2665" gradientUnits="userSpaceOnUse">
<stop stop-color="#89D3FF"/>
<stop offset="1" stop-color="#0085E8"/>
</linearGradient>
<linearGradient id="paint3_linear_685_1172" x1="3.26041" y1="20.2665" x2="36.9675" y2="20.2665" gradientUnits="userSpaceOnUse">
<stop stop-color="#41B9FF"/>
<stop offset="1" stop-color="#0085E8"/>
</linearGradient>
</defs>
</svg>
