<svg width="40" height="40" viewBox="0 0 40 40" fill="none" xmlns="http://www.w3.org/2000/svg">
<circle cx="20" cy="20" r="20" fill="#D9D9D9"/>
<circle cx="20" cy="20" r="20" fill="url(#paint0_linear_685_1209)"/>
<circle cx="20" cy="20" r="20" fill="url(#paint1_linear_685_1209)"/>
<circle cx="20" cy="20" r="20" fill="url(#paint2_linear_685_1209)"/>
<circle cx="20" cy="20" r="20" fill="url(#paint3_linear_685_1209)"/>
<path d="M27.3705 16.4336C26.8297 15.8318 26.2418 15.274 25.6123 14.7656C25.5227 14.6926 25.4543 14.6417 25.3751 14.5805C26.4866 14.1756 27.2643 13.2062 27.2643 12.0582C27.2643 10.5134 25.8803 9.33062 24.2369 9.33062C23.881 9.32985 23.5284 9.39829 23.1987 9.53213C23.0793 9.57952 22.9643 9.63746 22.8554 9.70532C22.7967 9.73095 22.6748 9.70165 22.641 9.65793C22.4758 9.40025 22.2767 9.16628 22.0503 8.96033C21.5275 8.4789 20.9097 8.18164 20.2019 8.18164C19.495 8.18164 18.8757 8.47901 18.3533 8.96033C18.1316 9.16226 17.9372 9.3922 17.775 9.64436C17.7269 9.70359 17.6028 9.73353 17.5598 9.71189C17.4471 9.64165 17.3284 9.58147 17.2051 9.53202C16.8751 9.39858 16.5224 9.33019 16.1665 9.33062C14.5231 9.33062 13.1398 10.5133 13.1398 12.0582C13.1398 13.0394 13.7106 13.8893 14.5696 14.3691C14.4774 14.4388 14.3859 14.5096 14.2952 14.5815C13.6639 15.0805 13.0769 15.6331 12.5406 16.2331C10.9165 18.0541 9.92969 20.1368 9.92969 22.449C9.92969 28.8595 14.4364 31.9077 19.8651 31.9077C22.1404 31.9077 24.3646 31.4264 26.164 30.2911C28.6071 28.7494 29.9956 26.1591 29.9956 22.449C29.9957 20.2745 29.0029 18.2564 27.3705 16.4336ZM23.2186 23.77C23.5775 23.77 23.8688 24.0856 23.8688 24.4754C23.8688 24.8651 23.5775 25.1807 23.2186 25.1807H20.6137V27.213C20.6137 27.5107 20.3228 27.7524 19.9626 27.7524C19.6037 27.7524 19.3124 27.5107 19.3124 27.213V25.1807H16.7081C16.3489 25.1807 16.0566 24.8651 16.0566 24.4754C16.0566 24.0856 16.3488 23.77 16.7081 23.77H19.3124V23.0645H16.7081C16.3489 23.0645 16.0566 22.749 16.0566 22.3577C16.0566 21.9694 16.3488 21.6528 16.7081 21.6528H19.3685L16.8986 18.9773C16.7762 18.84 16.7085 18.6624 16.7085 18.4784C16.7085 18.2945 16.7762 18.1169 16.8986 17.9796C16.9566 17.9147 17.0276 17.8628 17.107 17.8272C17.1864 17.7917 17.2724 17.7733 17.3594 17.7733C17.4464 17.7733 17.5324 17.7917 17.6118 17.8272C17.6912 17.8628 17.7622 17.9147 17.8201 17.9796L19.9638 20.3021L22.1063 17.9796C22.1642 17.9147 22.2352 17.8628 22.3146 17.8272C22.394 17.7916 22.48 17.7733 22.567 17.7733C22.654 17.7733 22.74 17.7916 22.8194 17.8272C22.8988 17.8628 22.9698 17.9147 23.0277 17.9796C23.1505 18.1167 23.2184 18.2943 23.2184 18.4784C23.2184 18.6625 23.1505 18.8401 23.0277 18.9773L20.5591 21.6528H23.2186C23.5775 21.6528 23.8688 21.9693 23.8688 22.3577C23.8688 22.749 23.5775 23.0645 23.2186 23.0645H20.6137V23.77H23.2186Z" fill="white"/>
<ellipse cx="19.5469" cy="22.2743" rx="5" ry="5.90909" fill="white"/>
<path d="M19.3507 17.9359C19.7072 17.5722 20.2928 17.5722 20.6493 17.9359L22.4749 19.7986L24.3376 21.6242C24.7012 21.9806 24.7012 22.5662 24.3376 22.9227L22.4749 24.7483L20.6493 26.611C20.2928 26.9747 19.7072 26.9747 19.3507 26.611L17.5251 24.7483L15.6624 22.9227C15.2988 22.5662 15.2988 21.9806 15.6624 21.6242L17.5251 19.7986L19.3507 17.9359Z" fill="#D9D9D9"/>
<path d="M19.3507 17.9359C19.7072 17.5722 20.2928 17.5722 20.6493 17.9359L22.4749 19.7986L24.3376 21.6242C24.7012 21.9806 24.7012 22.5662 24.3376 22.9227L22.4749 24.7483L20.6493 26.611C20.2928 26.9747 19.7072 26.9747 19.3507 26.611L17.5251 24.7483L15.6624 22.9227C15.2988 22.5662 15.2988 21.9806 15.6624 21.6242L17.5251 19.7986L19.3507 17.9359Z" fill="url(#paint4_linear_685_1209)"/>
<defs>
<linearGradient id="paint0_linear_685_1209" x1="18.8956" y1="0" x2="18.8956" y2="40" gradientUnits="userSpaceOnUse">
<stop stop-color="#70CBFB"/>
<stop offset="0.49" stop-color="#4AA5FF"/>
<stop offset="0.915" stop-color="#4AA5FF"/>
<stop offset="1" stop-color="#6EC7FD"/>
</linearGradient>
<linearGradient id="paint1_linear_685_1209" x1="0" y1="20" x2="40" y2="20" gradientUnits="userSpaceOnUse">
<stop stop-color="#F4D24C"/>
<stop offset="1" stop-color="#F2A03A"/>
</linearGradient>
<linearGradient id="paint2_linear_685_1209" x1="3.26041" y1="20.2665" x2="36.9675" y2="20.2665" gradientUnits="userSpaceOnUse">
<stop stop-color="#89D3FF"/>
<stop offset="1" stop-color="#0085E8"/>
</linearGradient>
<linearGradient id="paint3_linear_685_1209" x1="3.26041" y1="20.2665" x2="36.9675" y2="20.2665" gradientUnits="userSpaceOnUse">
<stop stop-color="#41B9FF"/>
<stop offset="1" stop-color="#0085E8"/>
</linearGradient>
<linearGradient id="paint4_linear_685_1209" x1="15.8151" y1="22.3401" x2="24.2419" y2="22.3401" gradientUnits="userSpaceOnUse">
<stop stop-color="#41B9FF"/>
<stop offset="1" stop-color="#0085E8"/>
</linearGradient>
</defs>
</svg>
