<svg width="32" height="32" viewBox="0 0 32 32" fill="none" xmlns="http://www.w3.org/2000/svg">
<path d="M16.9248 14.7915V8.67596C16.6403 8.67596 16.2848 8.60485 16.0714 8.60485H16.0003C15.6448 8.67596 15.2892 8.67596 14.7914 8.74707V14.7915H2.27588V9.95596C2.27588 9.17374 2.91588 8.60485 3.62699 8.60485H9.31588C7.82255 8.24929 6.68477 7.60929 6.61366 6.4004C6.54255 4.97818 8.1781 2.63151 10.5248 3.2004C12.9425 3.76929 14.6492 5.61818 15.9292 7.25374C17.2092 5.61818 19.1292 3.48485 21.6181 3.12929C23.8225 2.84485 25.5292 4.97818 25.3159 6.4004C25.1025 7.60929 23.9648 8.3204 22.4714 8.60485H28.0892C28.8714 8.60485 29.4403 9.24485 29.4403 9.95596V14.7915H16.9248ZM10.8092 4.4804C9.67143 4.05373 8.96032 4.55151 8.46255 5.33373C8.1781 5.7604 7.89366 6.4004 8.32032 6.82707C9.4581 7.96485 12.5159 7.89373 14.6492 7.6804C13.6537 6.47151 12.4448 5.1204 10.8092 4.4804ZM23.6092 6.82707C24.3914 5.7604 22.827 3.62707 21.1203 4.40929C19.4848 5.19151 18.347 6.4004 17.2803 7.6804C18.1337 7.75151 19.0581 7.75151 19.9114 7.75151C21.0492 7.6804 23.0403 7.60929 23.6092 6.82707ZM14.8625 29.3693H4.69366C3.98255 29.3693 3.41366 28.8004 3.41366 28.0893V15.7871H14.8625V29.3693ZM28.3025 28.0893C28.3025 28.8004 27.7337 29.3693 27.0225 29.3693H16.8537V15.8582H28.3025V28.0893Z" fill="black"/>
<path d="M16.9248 14.7915V8.67596C16.6403 8.67596 16.2848 8.60485 16.0714 8.60485H16.0003C15.6448 8.67596 15.2892 8.67596 14.7914 8.74707V14.7915H2.27588V9.95596C2.27588 9.17374 2.91588 8.60485 3.62699 8.60485H9.31588C7.82255 8.24929 6.68477 7.60929 6.61366 6.4004C6.54255 4.97818 8.1781 2.63151 10.5248 3.2004C12.9425 3.76929 14.6492 5.61818 15.9292 7.25374C17.2092 5.61818 19.1292 3.48485 21.6181 3.12929C23.8225 2.84485 25.5292 4.97818 25.3159 6.4004C25.1025 7.60929 23.9648 8.3204 22.4714 8.60485H28.0892C28.8714 8.60485 29.4403 9.24485 29.4403 9.95596V14.7915H16.9248ZM10.8092 4.4804C9.67143 4.05373 8.96032 4.55151 8.46255 5.33373C8.1781 5.7604 7.89366 6.4004 8.32032 6.82707C9.4581 7.96485 12.5159 7.89373 14.6492 7.6804C13.6537 6.47151 12.4448 5.1204 10.8092 4.4804ZM23.6092 6.82707C24.3914 5.7604 22.827 3.62707 21.1203 4.40929C19.4848 5.19151 18.347 6.4004 17.2803 7.6804C18.1337 7.75151 19.0581 7.75151 19.9114 7.75151C21.0492 7.6804 23.0403 7.60929 23.6092 6.82707ZM14.8625 29.3693H4.69366C3.98255 29.3693 3.41366 28.8004 3.41366 28.0893V15.7871H14.8625V29.3693ZM28.3025 28.0893C28.3025 28.8004 27.7337 29.3693 27.0225 29.3693H16.8537V15.8582H28.3025V28.0893Z" fill="url(#paint0_linear_685_1163)"/>
<path d="M16.9248 14.7915V8.67596C16.6403 8.67596 16.2848 8.60485 16.0714 8.60485H16.0003C15.6448 8.67596 15.2892 8.67596 14.7914 8.74707V14.7915H2.27588V9.95596C2.27588 9.17374 2.91588 8.60485 3.62699 8.60485H9.31588C7.82255 8.24929 6.68477 7.60929 6.61366 6.4004C6.54255 4.97818 8.1781 2.63151 10.5248 3.2004C12.9425 3.76929 14.6492 5.61818 15.9292 7.25374C17.2092 5.61818 19.1292 3.48485 21.6181 3.12929C23.8225 2.84485 25.5292 4.97818 25.3159 6.4004C25.1025 7.60929 23.9648 8.3204 22.4714 8.60485H28.0892C28.8714 8.60485 29.4403 9.24485 29.4403 9.95596V14.7915H16.9248ZM10.8092 4.4804C9.67143 4.05373 8.96032 4.55151 8.46255 5.33373C8.1781 5.7604 7.89366 6.4004 8.32032 6.82707C9.4581 7.96485 12.5159 7.89373 14.6492 7.6804C13.6537 6.47151 12.4448 5.1204 10.8092 4.4804ZM23.6092 6.82707C24.3914 5.7604 22.827 3.62707 21.1203 4.40929C19.4848 5.19151 18.347 6.4004 17.2803 7.6804C18.1337 7.75151 19.0581 7.75151 19.9114 7.75151C21.0492 7.6804 23.0403 7.60929 23.6092 6.82707ZM14.8625 29.3693H4.69366C3.98255 29.3693 3.41366 28.8004 3.41366 28.0893V15.7871H14.8625V29.3693ZM28.3025 28.0893C28.3025 28.8004 27.7337 29.3693 27.0225 29.3693H16.8537V15.8582H28.3025V28.0893Z" fill="url(#paint1_linear_685_1163)"/>
<path d="M16.9248 14.7915V8.67596C16.6403 8.67596 16.2848 8.60485 16.0714 8.60485H16.0003C15.6448 8.67596 15.2892 8.67596 14.7914 8.74707V14.7915H2.27588V9.95596C2.27588 9.17374 2.91588 8.60485 3.62699 8.60485H9.31588C7.82255 8.24929 6.68477 7.60929 6.61366 6.4004C6.54255 4.97818 8.1781 2.63151 10.5248 3.2004C12.9425 3.76929 14.6492 5.61818 15.9292 7.25374C17.2092 5.61818 19.1292 3.48485 21.6181 3.12929C23.8225 2.84485 25.5292 4.97818 25.3159 6.4004C25.1025 7.60929 23.9648 8.3204 22.4714 8.60485H28.0892C28.8714 8.60485 29.4403 9.24485 29.4403 9.95596V14.7915H16.9248ZM10.8092 4.4804C9.67143 4.05373 8.96032 4.55151 8.46255 5.33373C8.1781 5.7604 7.89366 6.4004 8.32032 6.82707C9.4581 7.96485 12.5159 7.89373 14.6492 7.6804C13.6537 6.47151 12.4448 5.1204 10.8092 4.4804ZM23.6092 6.82707C24.3914 5.7604 22.827 3.62707 21.1203 4.40929C19.4848 5.19151 18.347 6.4004 17.2803 7.6804C18.1337 7.75151 19.0581 7.75151 19.9114 7.75151C21.0492 7.6804 23.0403 7.60929 23.6092 6.82707ZM14.8625 29.3693H4.69366C3.98255 29.3693 3.41366 28.8004 3.41366 28.0893V15.7871H14.8625V29.3693ZM28.3025 28.0893C28.3025 28.8004 27.7337 29.3693 27.0225 29.3693H16.8537V15.8582H28.3025V28.0893Z" fill="url(#paint2_linear_685_1163)"/>
<defs>
<linearGradient id="paint0_linear_685_1163" x1="2.27588" y1="16.2364" x2="29.4403" y2="16.2364" gradientUnits="userSpaceOnUse">
<stop stop-color="#F4D24C"/>
<stop offset="1" stop-color="#F2A03A"/>
</linearGradient>
<linearGradient id="paint1_linear_685_1163" x1="4.49006" y1="16.4114" x2="27.381" y2="16.4114" gradientUnits="userSpaceOnUse">
<stop stop-color="#89D3FF"/>
<stop offset="1" stop-color="#0085E8"/>
</linearGradient>
<linearGradient id="paint2_linear_685_1163" x1="4.49006" y1="16.4114" x2="27.381" y2="16.4114" gradientUnits="userSpaceOnUse">
<stop stop-color="#41B9FF"/>
<stop offset="1" stop-color="#0085E8"/>
</linearGradient>
</defs>
</svg>
