<svg width="40" height="40" viewBox="0 0 40 40" fill="none" xmlns="http://www.w3.org/2000/svg">
<circle cx="20" cy="20" r="20" fill="#D9D9D9"/>
<circle cx="20" cy="20" r="20" fill="url(#paint0_linear_685_1187)"/>
<circle cx="20" cy="20" r="20" fill="url(#paint1_linear_685_1187)"/>
<circle cx="20" cy="20" r="20" fill="url(#paint2_linear_685_1187)"/>
<circle cx="20" cy="20" r="20" fill="url(#paint3_linear_685_1187)"/>
<g clip-path="url(#clip0_685_1187)">
<path d="M28.7428 13.5898C28.7428 12.6673 27.9828 11.9102 27.0522 11.9102H11.6878C10.7599 11.9102 10 12.6645 10 13.5898V15.465H28.7428V13.5898ZM25.017 19.3263C26.3888 19.3249 27.7138 19.8248 28.7428 20.7321V17.983H10V25.0467C10 25.9692 10.7599 26.7263 11.6878 26.7263H19.6491C19.4648 26.1602 19.3707 25.5687 19.3703 24.9733C19.3731 21.8555 21.8994 19.3263 25.0172 19.3263H25.017ZM20.4255 23.0652C20.6794 22.4788 21.0433 21.9464 21.4975 21.4968C21.9547 21.0457 22.4921 20.6841 23.0821 20.4304C23.6887 20.1692 24.3428 20.0363 25.0033 20.04C25.6981 20.04 26.3466 20.1701 26.949 20.4304C28.1374 20.9398 29.088 21.8816 29.6084 23.0652C29.8737 23.6661 30.0087 24.3163 30.0047 24.973C30.0098 25.6359 29.8747 26.2924 29.6084 26.8995C29.3519 27.4875 28.9864 28.0216 28.5311 28.4735C28.0765 28.9231 27.5393 29.2805 26.949 29.5263C26.3466 29.7814 25.698 29.9064 25.0033 29.9064C24.3438 29.911 23.6902 29.7817 23.0821 29.5263C22.4911 29.2806 21.953 28.9232 21.4975 28.4735C21.0438 28.0214 20.68 27.4873 20.4255 26.8995C20.1598 26.3027 20.0293 25.6624 20.0293 24.973C20.0236 24.3161 20.1588 23.6656 20.4255 23.0652ZM22.2103 27.2877C22.3574 26.8855 22.6245 26.5381 22.9753 26.2925C23.3262 26.047 23.744 25.915 24.1722 25.9145V28.0097C24.1723 28.1218 24.2083 28.231 24.275 28.3211C24.3417 28.4112 24.4355 28.4776 24.5427 28.5104C24.6499 28.5432 24.7648 28.5407 24.8705 28.5034C24.9762 28.466 25.0671 28.3957 25.1299 28.3028L28.0643 25.3721C28.1205 25.3254 28.1664 25.2674 28.1989 25.2019C28.2315 25.1364 28.25 25.0648 28.2533 24.9918C28.2566 24.9187 28.2445 24.8457 28.218 24.7776C28.1914 24.7094 28.151 24.6476 28.0991 24.596L25.0496 21.5462L25.0468 21.5487C24.951 21.462 24.826 21.4145 24.6968 21.4157C24.558 21.4158 24.4248 21.471 24.3266 21.5692C24.2285 21.6674 24.1732 21.8006 24.1731 21.9394V23.5243C23.7349 23.523 23.3047 23.6422 22.9297 23.8689C22.5546 24.0957 22.2492 24.4211 22.0466 24.8098C21.8441 25.1984 21.7524 25.6352 21.7814 26.0725C21.8104 26.5098 21.9591 26.9306 22.2112 27.2891L22.2103 27.2877Z" fill="white"/>
</g>
<defs>
<linearGradient id="paint0_linear_685_1187" x1="18.8956" y1="0" x2="18.8956" y2="40" gradientUnits="userSpaceOnUse">
<stop stop-color="#70CBFB"/>
<stop offset="0.49" stop-color="#4AA5FF"/>
<stop offset="0.915" stop-color="#4AA5FF"/>
<stop offset="1" stop-color="#6EC7FD"/>
</linearGradient>
<linearGradient id="paint1_linear_685_1187" x1="0" y1="20" x2="40" y2="20" gradientUnits="userSpaceOnUse">
<stop stop-color="#F4D24C"/>
<stop offset="1" stop-color="#F2A03A"/>
</linearGradient>
<linearGradient id="paint2_linear_685_1187" x1="3.26041" y1="20.2665" x2="36.9675" y2="20.2665" gradientUnits="userSpaceOnUse">
<stop stop-color="#89D3FF"/>
<stop offset="1" stop-color="#0085E8"/>
</linearGradient>
<linearGradient id="paint3_linear_685_1187" x1="3.26041" y1="20.2665" x2="36.9675" y2="20.2665" gradientUnits="userSpaceOnUse">
<stop stop-color="#41B9FF"/>
<stop offset="1" stop-color="#0085E8"/>
</linearGradient>
<clipPath id="clip0_685_1187">
<rect width="20" height="20" fill="white" transform="translate(10 10.9082)"/>
</clipPath>
</defs>
</svg>
