<svg width="40" height="40" viewBox="0 0 40 40" fill="none" xmlns="http://www.w3.org/2000/svg">
<circle cx="20" cy="20" r="20" fill="#D9D9D9"/>
<circle cx="20" cy="20" r="20" fill="url(#paint0_linear_685_1229)"/>
<circle cx="20" cy="20" r="20" fill="url(#paint1_linear_685_1229)"/>
<circle cx="20" cy="20" r="20" fill="url(#paint2_linear_685_1229)"/>
<circle cx="20" cy="20" r="20" fill="url(#paint3_linear_685_1229)"/>
<path d="M29.7055 16.2502C29.7055 15.821 29.3576 15.4731 28.9284 15.4731H11.8318C11.4026 15.4731 11.0547 15.821 11.0547 16.2502V27.8292C11.0547 28.2584 11.4026 28.6063 11.8318 28.6063H28.9284C29.3576 28.6063 29.7055 28.2584 29.7055 27.8292V24.8762H24.8097V24.8757C24.7967 24.8759 24.7838 24.8762 24.7708 24.8762C23.2043 24.8762 21.9343 23.6063 21.9343 22.0397C21.9343 20.4732 23.2043 19.2032 24.7708 19.2032C24.7838 19.2032 24.7967 19.2036 24.8097 19.2037V19.2032H29.7055V16.2502ZM23.1 22.0397C23.1 22.9625 23.848 23.7105 24.7708 23.7105C25.6936 23.7105 26.4416 22.9625 26.4416 22.0397C26.4416 21.117 25.6936 20.3689 24.7708 20.3689C23.848 20.3689 23.1 21.117 23.1 22.0397ZM27.8403 14.75L26.8756 11.373C26.7785 11.0332 26.4233 10.8361 26.0821 10.9328L12.6107 14.75H27.8403Z" fill="white"/>
<defs>
<linearGradient id="paint0_linear_685_1229" x1="18.8956" y1="0" x2="18.8956" y2="40" gradientUnits="userSpaceOnUse">
<stop stop-color="#70CBFB"/>
<stop offset="0.49" stop-color="#4AA5FF"/>
<stop offset="0.915" stop-color="#4AA5FF"/>
<stop offset="1" stop-color="#6EC7FD"/>
</linearGradient>
<linearGradient id="paint1_linear_685_1229" x1="0" y1="20" x2="40" y2="20" gradientUnits="userSpaceOnUse">
<stop stop-color="#F4D24C"/>
<stop offset="1" stop-color="#F2A03A"/>
</linearGradient>
<linearGradient id="paint2_linear_685_1229" x1="3.26041" y1="20.2665" x2="36.9675" y2="20.2665" gradientUnits="userSpaceOnUse">
<stop stop-color="#89D3FF"/>
<stop offset="1" stop-color="#0085E8"/>
</linearGradient>
<linearGradient id="paint3_linear_685_1229" x1="3.26041" y1="20.2665" x2="36.9675" y2="20.2665" gradientUnits="userSpaceOnUse">
<stop stop-color="#41B9FF"/>
<stop offset="1" stop-color="#0085E8"/>
</linearGradient>
</defs>
</svg>
