<svg width="24" height="24" viewBox="0 0 24 24" fill="none" xmlns="http://www.w3.org/2000/svg">
<path d="M15.0049 2C17.214 2 19.0049 3.79086 19.0049 6C19.0049 6.72903 18.8098 7.41251 18.4691 8.00111L23.0049 8V9.99997H21.0049V20C21.0049 20.5523 20.5572 21 20.0049 21H4.00488C3.4526 21 3.00488 20.5523 3.00488 20V9.99997H1.00488V8L5.54065 8.00111C5.19992 7.41251 5.00488 6.72903 5.00488 6C5.00488 3.79086 6.79574 2 9.00488 2C10.2001 2 11.2729 2.52421 12.0058 3.35526C12.7369 2.52421 13.8097 2 15.0049 2ZM13.0049 9.99997H11.0049V20H13.0049V9.99997ZM9.00488 4C7.90031 4 7.00488 4.89543 7.00488 6C7.00488 7.05436 7.82076 7.91816 8.85562 7.99451L9.00488 8H11.0049V6C11.0049 4.99836 10.2686 4.16869 9.30766 4.02277L9.15415 4.00549L9.00488 4ZM15.0049 4C13.9505 4 13.0867 4.81588 13.0104 5.85074L13.0049 6V8H15.0049C16.0592 8 16.923 7.18412 16.9994 6.14926L17.0049 6C17.0049 4.89543 16.1095 4 15.0049 4Z" fill="#7A80A1"/>
</svg>
