<svg width="20" height="19" viewBox="0 0 20 19" fill="none" xmlns="http://www.w3.org/2000/svg">
<path d="M17.7913 3.21625H18.5001C19.0524 3.21625 19.5001 3.66397 19.5001 4.21625V11.2162C19.5001 11.7685 19.0524 12.2162 18.5001 12.2162H16.5001L12.3318 6.38058C11.8344 5.68428 10.9492 5.38153 10.1296 5.6274L7.64435 6.37299C6.93962 6.58441 6.17571 6.39182 5.65544 5.87155L5.36268 5.57878C4.91646 5.13257 4.99002 4.38967 5.51508 4.03963L10.9161 0.438927C11.5751 -0.000363022 12.4311 -0.00947309 13.0993 0.415707L17.2545 3.05991C17.4149 3.16202 17.6012 3.21625 17.7913 3.21625ZM3.52699 11.511L1.91123 12.9248C1.43982 13.3372 1.45936 14.0766 1.95192 14.4637L7.09268 18.5028C7.57275 18.88 8.27583 18.7427 8.57871 18.2126L9.28261 16.9808C9.71261 16.2283 9.60901 15.2845 9.02601 14.6432L6.32388 11.6708C5.59082 10.8644 4.34713 10.7934 3.52699 11.511ZM5.54548 2.21631H1.49991C0.947628 2.21631 0.499908 2.66403 0.499908 3.21631V10.7321C0.499908 11.1405 0.624658 11.5336 0.850098 11.8627C0.874008 11.8401 0.898468 11.8178 0.923478 11.7959L2.53924 10.3821C3.97448 9.12631 6.15094 9.25061 7.43379 10.6618L10.136 13.6342C11.1562 14.7564 11.3375 16.4081 10.585 17.725L9.93071 18.8701C10.4936 19.0834 11.1349 19.0353 11.6689 18.7149L16.0781 16.0694C16.5785 15.7691 16.7165 15.1059 16.3775 14.6309L11.1108 7.25241C10.9864 7.07836 10.7651 7.00267 10.5602 7.06414L8.07496 7.80971C6.84167 8.17971 5.50483 7.84271 4.59437 6.93221L4.3016 6.63944C3.18606 5.5239 3.36996 3.66666 4.68262 2.79155L5.54548 2.21631Z" fill="#7A80A1"/>
</svg>
