<svg width="22" height="22" viewBox="0 0 22 22" fill="none" xmlns="http://www.w3.org/2000/svg">
<path d="M20.3495 5.8239L19.2755 6.9024C18.131 8.0514 16.268 8.0514 15.1235 6.9024C13.979 5.7534 13.979 3.8829 15.1235 2.7339L16.1975 1.6554C16.79 1.0599 16.394 0.359396 15.326 0.525896C14.2001 0.701168 13.1595 1.23142 12.356 2.0394C11.7227 2.6768 11.258 3.46176 11.0038 4.32354C10.7495 5.18532 10.7137 6.09682 10.8995 6.9759L1.892 16.0209C1.34222 16.575 1.03371 17.3239 1.03371 18.1044C1.03371 18.8849 1.34222 19.6338 1.892 20.1879C2.16417 20.4611 2.48759 20.6778 2.84371 20.8257C3.19983 20.9736 3.58164 21.0497 3.96725 21.0497C4.35286 21.0497 4.73467 20.9736 5.09079 20.8257C5.44691 20.6778 5.77033 20.4611 6.0425 20.1879L15.0515 11.1429C15.7668 11.2947 16.5056 11.2987 17.2226 11.1548C17.9395 11.011 18.6195 10.7222 19.2209 10.3062C19.8223 9.89017 20.3324 9.35574 20.7199 8.73562C21.1074 8.1155 21.3642 7.42277 21.4745 6.6999C21.641 5.6274 20.9435 5.2284 20.3495 5.8239ZM4.6595 18.7974C4.277 19.1814 3.6575 19.1814 3.275 18.7974C2.8925 18.4134 2.8925 17.7924 3.275 17.4084C3.46094 17.2336 3.70769 17.1381 3.96288 17.1423C4.21806 17.1464 4.46158 17.2498 4.64176 17.4306C4.82193 17.6113 4.92456 17.8552 4.92788 18.1104C4.93119 18.3656 4.83492 18.612 4.6595 18.7974ZM3.6815 6.0039L7.073 9.4104L8.4575 8.0214L5.066 4.6149L4.3055 3.1569L1.8845 1.4199L0.5 2.8089L2.2295 5.2404L3.6815 6.0039ZM15.032 13.2294C14.9867 13.1838 14.9328 13.1476 14.8735 13.123C14.8141 13.0983 14.7505 13.0856 14.6863 13.0856C14.622 13.0856 14.5584 13.0983 14.499 13.123C14.4397 13.1476 14.3858 13.1838 14.3405 13.2294L12.2645 15.3144C12.173 15.4068 12.1217 15.5316 12.1217 15.6616C12.1217 15.7917 12.173 15.9165 12.2645 16.0089L17.162 20.9259C17.927 21.6924 19.1675 21.6924 19.931 20.9259C20.696 20.1594 20.696 18.9144 19.931 18.1464L15.032 13.2294Z" fill="white"/>
</svg>
