<svg width="143" height="53" viewBox="0 0 143 53" fill="none" xmlns="http://www.w3.org/2000/svg">
<rect y="0.342773" width="142.176" height="52.6577" rx="26.3289" fill="url(#paint0_linear_6879_23261)"/>
<rect y="0.342773" width="142.176" height="52.6577" rx="26.3289" fill="url(#paint1_linear_6879_23261)"/>
<rect y="0.342773" width="142.176" height="52.6577" rx="26.3289" fill="url(#paint2_linear_6879_23261)"/>
<path d="M57.5034 15.417H61.1999L72.3528 31.6883H72.4792V15.417H76.2074V37.9756H72.6056L61.3263 21.4832H61.1999V37.9756H57.5034V15.417ZM79.3802 15.417H95.6514V18.5765H83.0767V24.8322H94.8931V27.9917H83.0767V34.8161H96.1885V37.9756H79.3802V15.417ZM96.3339 15.417H100.504L104.738 32.5729H104.864L109.319 15.417H113.142L117.597 32.5729H117.723L121.957 15.417H126.128L119.619 37.9756H115.701L111.31 21.0093H111.183L106.76 37.9756H102.811L96.3339 15.417Z" fill="white"/>
<path d="M24.8635 24.8296L25.281 26.387C25.5422 27.3606 25.8259 28.2655 26.1553 29.1054L26.1265 29.1135C25.6272 28.4223 25.0129 27.6474 24.478 27.0925L22.8969 25.3565L20.8221 25.9126L22.5807 32.4744L24.1867 32.0432L23.7543 30.4271C23.4964 29.4488 23.2118 28.4777 22.9006 27.515L22.94 27.5043C23.4625 28.2099 24.1286 28.9804 24.6748 29.5753L26.3784 31.4564L28.2282 30.9608L26.4696 24.3991L24.8635 24.8296ZM50.0269 21.8569L45.3912 18.861L45.1143 13.3491L39.6018 13.0722L36.6059 8.43652L31.694 10.9531L26.7814 8.43652L23.7855 13.0722L18.2724 13.3491L17.9962 18.861L13.3599 21.8569L15.8771 26.7688L13.3599 31.6814L17.9962 34.6773L18.2724 40.1891L23.7855 40.466L26.7814 45.1017L31.6934 42.5851L36.6053 45.1017L39.6018 40.466L45.1143 40.1891L45.3912 34.6773L50.0269 31.6814L47.5103 26.7694L50.0269 21.8569ZM45.9574 30.5909L42.3503 32.9218L42.1353 37.2107L37.8464 37.4257L35.5154 41.0322L31.6934 39.0743L27.8713 41.0322L25.5403 37.4257L21.2521 37.2107L21.0365 32.9218L17.4294 30.5909L19.3873 26.7688L17.4294 22.9474L21.0365 20.6164L21.2521 16.3275L25.5403 16.1125L27.8713 12.5054L31.6934 14.464L35.5154 12.5054L37.8464 16.1125L42.1347 16.3275L42.3503 20.6164L45.9574 22.9474L43.9995 26.7688L45.9574 30.5909ZM30.8216 28.7211L30.4985 27.5137L32.8545 26.8825L32.4739 25.4614L30.1179 26.0926L29.8367 25.0415L32.3389 24.3703L31.9521 22.9299L27.6882 24.0722L29.4468 30.634L33.8463 29.4554L33.4607 28.0143L30.8222 28.7211H30.8216ZM39.4112 20.9313L39.6662 23.4404C39.7581 24.2503 39.8474 25.0509 39.9481 25.817L39.9293 25.822C39.6507 25.1188 39.359 24.4209 39.0544 23.7285L37.9702 21.3175L36.0916 21.8206L36.3166 24.3372C36.3878 25.1846 36.4622 26.0095 36.5541 26.7788L36.5347 26.7838C36.2541 26.1276 35.9054 25.2927 35.5848 24.5653L34.5537 22.2324L32.6645 22.7386L35.9323 28.896L37.8789 28.3742L37.6864 25.6714C37.6496 25.0659 37.5708 24.4191 37.4708 23.621L37.4908 23.616C37.7391 24.2548 38.0058 24.8863 38.2907 25.5096L39.4169 27.9624L41.3348 27.4487L41.1923 20.4539L39.4112 20.9313Z" fill="white"/>
<defs>
<linearGradient id="paint0_linear_6879_23261" x1="0" y1="26.6716" x2="142.176" y2="26.6716" gradientUnits="userSpaceOnUse">
<stop stop-color="#0094FF"/>
<stop offset="1" stop-color="#77C6FF"/>
</linearGradient>
<linearGradient id="paint1_linear_6879_23261" x1="0" y1="26.6716" x2="142.176" y2="26.6716" gradientUnits="userSpaceOnUse">
<stop stop-color="#00C092"/>
<stop offset="1" stop-color="#00E7B0"/>
</linearGradient>
<linearGradient id="paint2_linear_6879_23261" x1="0" y1="26.6716" x2="142.176" y2="26.6716" gradientUnits="userSpaceOnUse">
<stop stop-color="#E72828"/>
<stop offset="1" stop-color="#FF5858"/>
</linearGradient>
</defs>
</svg>
